<svg xmlns="http://www.w3.org/2000/svg" viewBox="0 0 400 304.63"><defs><style>.cls-1{fill:#ffdb3b}.cls-3{fill:#5a4fd1}.cls-5{fill:#fa7146}.cls-6{fill:#fffadb}.cls-7{fill:#322c74}.cls-8{fill:#fff}.cls-9{fill:#5d5d5d}.cls-10{fill:#282f39}.cls-11{fill:#fbdc1f}.cls-12{fill:#a7cb1f}.cls-13{fill:#69cdff}.cls-14{fill:#fb7246}.cls-15{fill:#fdb636}.cls-20{fill:#e064a0}.cls-22{fill:#7e7aac}.cls-23{fill:#1cbfff}</style></defs><g id="Layer_2" data-name="Layer 2"><g id="OBJECTS"><path d="M397.17 242.59A201.3 201.3 0 0 0 400 209C400 98.49 310.46 9 200 9S0 98.49 0 209a201 201 0 0 0 2.83 33.64Z" class="cls-1"/><path d="M398.28 239.83c-.69 35.83-89.2 64.8-198.28 64.8-14.85 0-29.32-.54-43.24-1.55-88.32-6.47-154.45-32.3-155-63.25Z" style="fill:#312c74"/><path d="M311.8 239.83c-.61 30.94-66.72 56.78-155 63.25-88.32-6.47-154.45-32.3-155-63.25Z" class="cls-3"/><ellipse cx="200" cy="239.35" rx="198.3" ry="33.77" style="fill:#786bff"/><circle cx="301.21" cy="67.04" r="4.56" class="cls-5"/><circle cx="269" cy="174.48" r="4.59" class="cls-5"/><circle cx="91.24" cy="55.27" r="7.37" class="cls-5"/><circle cx="56.65" cy="92.15" r="2.31" class="cls-5"/><circle cx="13.41" cy="199.7" r="12.16" class="cls-5"/><circle cx="155" cy="181.17" r="7.61" class="cls-5"/><circle cx="148.74" cy="151.6" r="1.8" class="cls-5"/><circle cx="382.74" cy="211.02" r="6.71" class="cls-5"/><circle cx="371.75" cy="193.62" r="1.47" class="cls-5"/><circle cx="363.66" cy="119.93" r="3.15" class="cls-6"/><circle cx="308.76" cy="196.91" r="7.71" class="cls-6"/><circle cx="312.62" cy="59.01" r="2.73" class="cls-6"/><circle cx="258.94" cy="150.85" r="6.5" class="cls-6"/><circle cx="202.95" cy="184.89" r="2.9" class="cls-6"/><circle cx="127.85" cy="149.76" r="5.41" class="cls-6"/><circle cx="61.8" cy="111.42" r="2.14" class="cls-6"/><circle cx="25.98" cy="149.03" r="8.11" class="cls-6"/><circle cx="100.31" cy="129.16" r="6.8" class="cls-6"/><circle cx="36.27" cy="182.17" r="4.27" class="cls-6"/><path d="M188.68 104.84h22.64v30.19h-22.64z" class="cls-7"/><path d="M222.44 129.16h-44.88a4.82 4.82 0 0 0-4.82 4.82 4.82 4.82 0 0 0 4.82 4.82h44.87a4.82 4.82 0 0 0 4.82-4.82 4.82 4.82 0 0 0-4.81-4.82" class="cls-7"/><rect width="175.71" height="109.87" x="112.15" class="cls-7" rx="10.69" ry="10.69"/><rect width="87.12" height="165.64" x="156.44" y="-34.23" class="cls-8" rx="5.66" ry="5.66" transform="rotate(90 200 48.59)"/><path d="M277.16 5h-3.78v87.15h3.78a5.67 5.67 0 0 0 5.66-5.66v-75.8A5.67 5.67 0 0 0 277.16 5M128.07 5h-5.23a5.67 5.67 0 0 0-5.66 5.66v75.8a5.67 5.67 0 0 0 5.66 5.66h5.23Z" class="cls-9"/><path d="M282.82 14.06v-3.37A5.67 5.67 0 0 0 277.16 5H122.84a5.67 5.67 0 0 0-5.66 5.66v3.36ZM117.18 85.14v1.35a5.67 5.67 0 0 0 5.66 5.66h154.32a5.67 5.67 0 0 0 5.66-5.66v-1.35Z" class="cls-10"/><path d="M205.44 28.7h14.02v39.79h-38.92V28.7z" class="cls-3"/><path d="M184.31 32.48h31.38v32.23h-31.38z" class="cls-11"/><path d="M215.69 47v15a19 19 0 0 1-4.15.3 119 119 0 0 1-27.22-3.35v-9.5c.06-.19.14-.38.21-.57 1.22-3 4.47-5.57 7.2-4.13 1.11.59 1.89 1.72 2.93 2.48a5 5 0 0 0 5.4.24c2.31-1.38 3.42-4.5 5.79-5.77a5.89 5.89 0 0 1 6 .6 12.55 12.55 0 0 1 3.84 4.7" class="cls-12"/><path d="M184.31 53.81h31.37v10.91h-31.37z" class="cls-13"/><circle cx="198.92" cy="39.45" r="3.56" class="cls-14"/><path d="M219.46 179.81a23.4 23.4 0 0 1-23.37-23.37v-27.78h5.66v27.78a17.71 17.71 0 0 0 35.42 0v-32.92a15 15 0 0 1 14.93-14.93h13.82v5.66H252.1a9.28 9.28 0 0 0-9.27 9.27v32.92a23.4 23.4 0 0 1-23.37 23.37" class="cls-8"/><path d="M214.82 106.77a9.57 9.57 0 0 1 8.37-4.92h3.69a9.57 9.57 0 0 0 6.68-2.71c3-2.94 6.84-7.51 4.24-9.87-2.37-2.19-11.06 6.93-11.06 6.93s12.88-25 9.05-27.2-9.85 16.44-9.85 16.44 2.92-11.67-.55-12.22-5.47 8.93-5.47 8.93 2.55-8-.73-8.93-4.38 8.2-4.38 8.2 1.46-7.84-2-8.2S209 83.43 209 83.43s-5.47 4.38-4.38 9.3a24.1 24.1 0 0 1-.14 9.85Z" class="cls-15"/><path d="m215 113.16 3.28-7.85-15.21-6.56-3.39 9.3z" class="cls-8"/><path d="M227.77 237s-42.68-53.08-9.85-125.85l-20.25-9.3S159.92 175.72 190 237c3.88 10.26 37.77 6.91 37.77 0" class="cls-3"/><rect width="62.55" height="82.19" x="269.93" y="69.98" class="cls-3" rx="7.65" ry="7.65" transform="rotate(-90 301.205 111.075)"/><path d="M268.05 87.74h66.32v46.68h-66.32z" class="cls-7"/><path d="M270.31 90h61.79v42.14h-61.79z" style="fill:#6e60ff"/><path d="M281.77 87.74h2.3v46.68h-2.3z" class="cls-7"/><path d="M269.18 109.92h13.23v2.3h-13.23z" class="cls-7"/><path d="M341.46 115.42s-.23-13.73 3.61-18.91a9.55 9.55 0 0 0 2-5.54c.08-7.21-5.59-16.09-14.77-15.34-11.19.91-18.19 6.2-17.52 8.83s13.47-.92 13.47-.92-12.14 4-11.47 7.49S331 89.24 331 89.24s-14.18 4.43-13.07 7.76 15.14-.27 15.14-.27l.5 18.76Z" class="cls-15"/><path d="M346.57 68.48a6 6 0 0 1-.79 8.46l-2.06 1.71-7.67-9.25 2.06-1.71a6 6 0 0 1 8.46.79" style="fill:#4e606c"/><path d="m306.31 94.09-1.6 5.97-1.08 4.05 4.18-.31 6.17-.47 29.75-24.69-1.75-2.11-4.17-5.02-1.75-2.11z" style="fill:#b5bbdb"/><path d="M304.71 100.06a4.53 4.53 0 0 1 3.1 3.74l-4.18.31Z" style="fill:#3a505d"/><path d="m326.25 83.77-9.75 8.09a1.21 1.21 0 0 1-1.71-.16A1.21 1.21 0 0 1 315 90l9.75-8.09a1.21 1.21 0 0 1 1.71.16 1.21 1.21 0 0 1-.21 1.7" class="cls-8"/><path d="m338.82 112.69-4.23-20S328 75 322.82 77.69c-3.14 1.41 4.52 13.39 3.87 17.85s-7.84 19.62 6.86 19.91Z" class="cls-15"/><path d="m325.863 112.753 17.55-.052.016 5.48-17.55.052z" class="cls-8"/><path d="M309.14 246.65c-4.48 7.89 32.07 10.81 36.56-.11 25.67-66.34-1.09-129.77-1.09-129.77l-20.48.06c8.94 71.91-5.04 111.66-14.99 129.82" class="cls-7"/><path d="M72.76 114.95s1.95-12.51.65-19.46-.23-14 9.62-15.88l1.66 26.68-3.31 11.16Z" class="cls-15"/><path d="M107.03 67.04h14.02v39.79H82.13V67.04z" class="cls-3"/><path d="M85.9 70.82h31.38v32.23H85.9z" class="cls-11"/><path d="M117.28 85.3v15a19 19 0 0 1-4.15.3 119 119 0 0 1-27.23-3.33v-9.48c.06-.19.14-.38.21-.57 1.22-3 4.47-5.57 7.2-4.13 1.11.59 1.89 1.72 2.93 2.48a5 5 0 0 0 5.4.24c2.31-1.38 3.42-4.5 5.79-5.77a5.89 5.89 0 0 1 6 .6 12.55 12.55 0 0 1 3.85 4.66" class="cls-12"/><path d="M85.91 92.15h31.37v10.91H85.91z" class="cls-13"/><path d="M78.92 96.75s3.41.35 7.61-6.91 7.15-12 9.76-10.16-3.48 17.48-3.48 17.48 7.55 17.1-11.42 20.29Z" class="cls-15"/><path d="m84.85 122.73 2.33-6.53-15.41-3.09-2.27 6.95z" class="cls-8"/><path d="M78.73 237.32c0 10.06-34.54 10.06-34.54 0 1.21-79.63 24.13-119.85 24.13-119.85l19.41 3c-12.55 40.46-12.5 83.15-9 116.85" class="cls-14"/><circle cx="100.51" cy="77.8" r="3.56" class="cls-14"/><path d="M146.23 36.48h12.49v23.99h-12.49z" class="cls-15"/><path d="M149.08 36.48h6.78v23.99h-6.78z" class="cls-14"/><path d="M152.47 69.49a6.24 6.24 0 0 1-6.24-6.24v-2.78h12.49v2.78a6.24 6.24 0 0 1-6.25 6.24" class="cls-7"/><path d="M158.72 36.48h-12.49l3.72-5.24 2.52-3.55 2.53 3.55z" class="cls-15"/><path d="M155 31.24a4.7 4.7 0 0 1-5 0l2.52-3.55Z" class="cls-7"/><path d="M152.24 199.17v-6.4h-41.39a4.15 4.15 0 0 0-4.15 4.15 4.15 4.15 0 0 0 4.15 4.15h41.39Z" class="cls-20"/><path d="M152.24 201.06v-8.3l3.48 2.47 2.36 1.68-2.36 1.68z" class="cls-15"/><path d="M155.72 198.59a3.13 3.13 0 0 1 0-3.35l2.36 1.68Z" class="cls-20"/><path d="m319.87 150.35-3.19-3.19-1.34-1.34-28 28-1.31 1.31a4.15 4.15 0 0 0 0 5.87 4.15 4.15 0 0 0 5.87 0l1.31-1.31 28-28Z" class="cls-11"/><path d="m321.21 151.69-5.87-5.87 4.21-.72 2.86-.48-.48 2.86z" class="cls-15"/><path d="M321.92 147.48a3.13 3.13 0 0 1-2.37-2.37l2.85-.48Z" class="cls-11"/><path d="M373.83 146.78h-6.4v41.39a4.15 4.15 0 0 0 4.15 4.15 4.15 4.15 0 0 0 4.15-4.15v-41.39Z" class="cls-12"/><path d="M375.72 146.78h-8.3l2.47-3.48 1.68-2.36 1.68 2.36z" class="cls-15"/><path d="M373.25 143.3a3.13 3.13 0 0 1-3.35 0l1.68-2.36Z" class="cls-12"/><circle cx="44.19" cy="143.28" r="3.4" class="cls-7"/><path d="M44.19 144.21a5.65 5.65 0 0 1-5.65-5.65v-8.86h11.3v8.86a5.65 5.65 0 0 1-5.65 5.65" class="cls-3"/><circle cx="44.19" cy="125.48" r="12.35" class="cls-8"/><circle cx="44.19" cy="125.48" r="7.34" class="cls-1"/><rect width="47.45" height="31.72" x="88.42" y="143.4" rx="7.75" ry="7.75" style="fill:#545283"/><path d="M88.42 153.15h47.45v12.21H88.42z" class="cls-22"/><circle cx="112.15" cy="159.26" r="11.18" class="cls-22"/><circle cx="112.15" cy="159.26" r="8.67" class="cls-8"/><circle cx="112.15" cy="159.26" r="5.44" class="cls-23"/><path d="M96.17 139.17h10.53v4.23H96.17z" class="cls-22"/><path d="M272.64 183.2H262.1a8.18 8.18 0 0 0-5.55 2.18h-7.28a8.18 8.18 0 0 0-5.55-2.18h-10.55a8.23 8.23 0 0 0-8.22 8.22v1.78a8.23 8.23 0 0 0 8.22 8.22h10.54a8.23 8.23 0 0 0 8.22-8.22v-1.78a8 8 0 0 0-.15-1.53H254a8 8 0 0 0-.15 1.53v1.78a8.23 8.23 0 0 0 8.22 8.22h10.54a8.23 8.23 0 0 0 8.22-8.22v-1.78a8.23 8.23 0 0 0-8.19-8.22" class="cls-7"/><rect width="17.96" height="9.19" x="229.46" y="187.72" class="cls-23" rx="3.71" ry="3.71"/><rect width="17.96" height="9.19" x="258.39" y="187.72" class="cls-23" rx="3.71" ry="3.71"/></g></g></svg>