<svg xmlns="http://www.w3.org/2000/svg" viewBox="0 0 507.07 359.76"><defs><clipPath id="clip-path"><path d="m345 249.8-16.68 8.34a9.35 9.35 0 0 1-7.43 0l-10.81-5.4c-2.05-1-2.05-2.69 0-3.71l16.68-8.34a9.35 9.35 0 0 1 7.43 0l10.81 5.4c2 1.02 2 2.68 0 3.71" class="cls-1"/></clipPath><clipPath id="clip-path-2"><path d="M60.12 320.68A18.4 18.4 0 0 0 54 316c-10.94-5.47-28.69-5.47-39.63 0a18.4 18.4 0 0 0-6.16 4.65h-2v5.26c0 3.59 2.74 7.17 8.21 9.91 10.94 5.47 28.69 5.47 39.63 0 5.47-2.74 8.21-6.32 8.21-9.91v-5.26Z" class="cls-2"/></clipPath><clipPath id="clip-path-3"><path d="M60.12 313.92a18.4 18.4 0 0 0-6.12-4.64c-10.94-5.47-28.69-5.47-39.63 0a18.4 18.4 0 0 0-6.16 4.65h-2v5.26c0 3.59 2.74 7.17 8.21 9.91 10.94 5.47 28.69 5.47 39.63 0 5.47-2.74 8.21-6.32 8.21-9.91v-5.26Z" class="cls-2"/></clipPath><clipPath id="clip-path-4"><path d="M60.12 307.16a18.4 18.4 0 0 0-6.12-4.64c-11-5.52-28.73-5.52-39.67 0a18.4 18.4 0 0 0-6.16 4.65h-2v5.26c0 3.59 2.74 7.17 8.21 9.91 10.94 5.47 28.69 5.47 39.63 0 5.47-2.74 8.21-6.32 8.21-9.91v-5.26Z" class="cls-2"/></clipPath><clipPath id="clip-path-5"><path d="M282 327.32a18.4 18.4 0 0 0-6.16-4.65c-10.94-5.47-28.69-5.47-39.63 0a18.4 18.4 0 0 0-6.16 4.65h-2v5.26c0 3.59 2.74 7.17 8.21 9.91 10.94 5.47 28.69 5.47 39.63 0 5.47-2.74 8.21-6.32 8.21-9.91v-5.26Z" class="cls-2"/></clipPath><clipPath id="clip-path-6"><path d="M344.16 139.64A18.4 18.4 0 0 0 338 135c-10.94-5.47-28.69-5.47-39.63 0a18.4 18.4 0 0 0-6.16 4.65h-2v5.26c0 3.59 2.74 7.17 8.21 9.91 10.94 5.47 28.69 5.47 39.63 0 5.47-2.74 8.21-6.32 8.21-9.91v-5.26Z" class="cls-2"/></clipPath><clipPath id="clip-path-7"><path d="M344.16 132.89a18.4 18.4 0 0 0-6.16-4.65c-10.94-5.47-28.69-5.47-39.63 0a18.4 18.4 0 0 0-6.16 4.65h-2v5.26c0 3.59 2.74 7.17 8.21 9.91 10.94 5.47 28.69 5.47 39.63 0 5.47-2.74 8.21-6.32 8.21-9.91v-5.26Z" class="cls-2"/></clipPath><clipPath id="clip-path-8"><path d="M344.16 126.13a18.4 18.4 0 0 0-6.16-4.65c-10.94-5.47-28.69-5.47-39.63 0a18.4 18.4 0 0 0-6.16 4.65h-2v5.26c0 3.59 2.74 7.17 8.21 9.91 10.94 5.47 28.69 5.47 39.63 0 5.47-2.74 8.21-6.32 8.21-9.91v-5.26Z" class="cls-2"/></clipPath><clipPath id="clip-path-9"><path d="M344.16 119.62A18.4 18.4 0 0 0 338 115c-10.94-5.47-28.69-5.47-39.63 0a18.4 18.4 0 0 0-6.16 4.65h-2v5.26c0 3.59 2.74 7.17 8.21 9.91 10.94 5.47 28.69 5.47 39.63 0 5.47-2.74 8.21-6.32 8.21-9.91v-5.26Z" class="cls-2"/></clipPath><clipPath id="clip-path-10"><path d="M344.16 112.87a18.4 18.4 0 0 0-6.16-4.65c-10.94-5.47-28.69-5.47-39.63 0a18.4 18.4 0 0 0-6.16 4.65h-2v5.26c0 3.59 2.74 7.17 8.21 9.91 10.94 5.47 28.69 5.47 39.63 0 5.47-2.74 8.21-6.32 8.21-9.91v-5.26Z" class="cls-2"/></clipPath><clipPath id="clip-path-11"><path d="M344.16 106.11a18.4 18.4 0 0 0-6.16-4.65c-10.94-5.47-28.69-5.47-39.63 0a18.4 18.4 0 0 0-6.16 4.65h-2v5.26c0 3.59 2.74 7.17 8.21 9.91 10.94 5.47 28.69 5.47 39.63 0 5.47-2.74 8.21-6.32 8.21-9.91v-5.26Z" class="cls-2"/></clipPath><linearGradient id="linear-gradient" x1="566.4" x2="575.72" y1="285.73" y2="179.24" gradientTransform="matrix(1.06 -.35 .71 .71 -393 269.47)" gradientUnits="userSpaceOnUse"><stop offset="0" stop-color="#371985"/><stop offset=".32" stop-color="#343291"/><stop offset=".99" stop-color="#2b71b0"/><stop offset="1" stop-color="#2b72b1"/></linearGradient><linearGradient id="linear-gradient-2" x1="567.8" x2="577.12" y1="281.38" y2="174.89" gradientTransform="matrix(1.06 -.35 .71 .71 -393 269.47)" gradientUnits="userSpaceOnUse"><stop offset="0" stop-color="#5727d1"/><stop offset=".24" stop-color="#5140d8"/><stop offset=".76" stop-color="#427fec"/><stop offset="1" stop-color="#3b9ef5"/></linearGradient><linearGradient id="linear-gradient-3" x1="-64.98" x2="-59.63" y1="270.53" y2="260.03" gradientTransform="matrix(-1 0 0 1 190.18 0)" gradientUnits="userSpaceOnUse"><stop offset="0" stop-color="#4da2ff"/><stop offset=".3" stop-color="#55a7ff"/><stop offset=".76" stop-color="#6ab4ff"/><stop offset="1" stop-color="#78bcff"/></linearGradient><style>.cls-1{fill:#fcaa37}.cls-2{fill:#f2a233}.cls-4{opacity:.2}.cls-8{fill:#8c5e1f}.cls-13,.cls-9{fill:#fff}.cls-10{fill:#333}.cls-11{fill:#fafafa}.cls-13{opacity:.51}.cls-19{fill:#81abde}.cls-22{fill:#1d4261}.cls-25{fill:#10273b}.cls-26{opacity:.5}.cls-27{fill:#336eff}.cls-29{fill:#215380}.cls-30{opacity:.13}.cls-32{fill:#e68f17}.cls-33{fill:#fcc881}.cls-36{fill:#f2ac4b}.cls-37{fill:#db8816}.cls-38{fill:#f09518}.cls-39{fill:#eb9217}</style></defs><g style="isolation:isolate"><g id="Capa_2" data-name="Capa 2"><g id="Layer_1" data-name="Layer 1"><path d="m365.65 288.24 120.75-60.37c4.69-2.34 4.69-6.14 0-8.49l-69.83-34.91c-4.69-2.34-12.29-2.34-17 0l-120.72 60.37c-4.69 2.34-4.69 6.14 0 8.49l69.83 34.91c4.68 2.34 12.32 2.34 16.97 0" class="cls-4"/><path d="m358.55 284.3 120.75-60.37c4.69-2.34 6-9.34 1.33-11.68l-71.16-31.72c-4.69-2.34-12.29-2.34-17 0L271.22 237.2c-4.69 2.34-4.16 9.84.53 12.19l69.83 34.91c4.68 2.34 12.28 2.34 16.97 0" style="fill:url(#linear-gradient)"/><path d="m358.55 280.31 120.75-60.37c4.69-2.34 4.69-6.14 0-8.49l-69.83-34.91c-4.69-2.34-12.29-2.34-17 0l-120.72 60.37c-4.69 2.34-4.69 6.14 0 8.49l69.83 34.91c4.68 2.34 12.28 2.34 16.97 0" style="fill:url(#linear-gradient-2)"/><path d="m345 249.8-16.68 8.34a9.35 9.35 0 0 1-7.43 0l-10.81-5.4c-2.05-1-2.05-2.69 0-3.71l16.68-8.34a9.35 9.35 0 0 1 7.43 0l10.81 5.4c2 1.02 2 2.68 0 3.71" class="cls-1"/><g style="clip-path:url(#clip-path)"><path d="m334.56 259.44-.35.17-25.39-12.69.35-.18z" class="cls-8"/><path d="m316.26 250.46-25.39 12.69-.35-.17 25.39-12.69zM324.57 254.62l-25.38 12.69-.35-.17 25.39-12.69zM355.61 230.79l-25.39 12.69-.35-.17 25.39-12.7zM326.71 244.94l-7.52 3.77-.35-.18 7.52-3.76zM335.75 249.47l-7.52 3.76-.35-.18 7.52-3.76zM363.93 234.94l-25.39 12.7-.35-.17 25.39-12.7z" class="cls-8"/><path d="m348.52 252.46-.35.17-25.39-12.69.35-.18z" class="cls-8"/></g><path d="M349.73 215.25a5.7 5.7 0 0 1-2 1.46 10.76 10.76 0 0 1-9.36-.05c-2.93-1.46-2.93-3.45 0-4.9a9.6 9.6 0 0 1 2.64-.9l.69.64a8.5 8.5 0 0 0-2.28.75c-2.19 1.1-2.25 2.53.21 3.76a8.33 8.33 0 0 0 7.36.08 4.5 4.5 0 0 0 1.58-1.18ZM346.84 212.37c-.79-.4-1.49-.73-2.15-1l1.07-.53 1.36.64h.06c-.6-.6-.43-1.26.39-1.67a2.3 2.3 0 0 1 .39-.15l1.15.58a3 3 0 0 0-.46.19c-.86.43-.82 1.06-.07 1.6a4 4 0 0 0 .51.31l3.58 1.79-1.21.6ZM353.41 210.57a5.28 5.28 0 0 0 4.64 0 4.2 4.2 0 0 0 1.51-1.1l1.08.33a5.1 5.1 0 0 1-1.82 1.33 7.68 7.68 0 0 1-6.69 0c-2-1-2.43-2.41-.47-3.39a7 7 0 0 1 5.94.19 6 6 0 0 1 .53.3Zm2.71-2.23a4.25 4.25 0 0 0-3.68-.15c-1.24.62-.64 1.46.11 1.93ZM358.77 201.17l8.12 4.06c.6.3 1.29.63 1.79.84l-1.1.55-1.22-.56c.38.56.12 1.26-1 1.8a7.6 7.6 0 0 1-6.29-.27c-2.25-1.11-2.23-2.49-.6-3.31a5.46 5.46 0 0 1 3.05-.5l-4-2Zm4.65 3.55a3.6 3.6 0 0 0-.57-.23 4.6 4.6 0 0 0-3.18.17c-1.26.63-.9 1.56.58 2.3a5.25 5.25 0 0 0 4.47.25c.82-.41 1-1.06.33-1.62a2.4 2.4 0 0 0-.47-.29ZM363.41 200.1c.43.2.46.52 0 .76a1.82 1.82 0 0 1-1.49 0c-.43-.21-.44-.54 0-.76a1.8 1.8 0 0 1 1.49 0m7.25 5-6.72-3.36 1.22-.61 6.72 3.36ZM366.73 198.4l1.93 1 1.75-.87.93.47-1.75.87 3.62 1.81a2.36 2.36 0 0 0 2.22.19 3 3 0 0 0 .62-.4l1 .43a3 3 0 0 1-.92.62 3.84 3.84 0 0 1-1.83.4 5.1 5.1 0 0 1-2.22-.64l-3.66-1.83-1 .52-.93-.47 1-.52-1.61-.81ZM387.72 196.25a5.7 5.7 0 0 1-2 1.46 10.76 10.76 0 0 1-9.36-.05c-2.93-1.46-2.93-3.45 0-4.9a9.6 9.6 0 0 1 2.64-.9l.69.64a8.5 8.5 0 0 0-2.28.75c-2.19 1.1-2.25 2.53.21 3.76a8.33 8.33 0 0 0 7.36.08 4.5 4.5 0 0 0 1.58-1.18ZM393.13 193.85l-.94-.38c.15.45-.1 1-1.06 1.53a4.76 4.76 0 0 1-4 .06c-1.62-.81-1.07-2 1.54-3.27l-.14-.07a3.34 3.34 0 0 0-3.08 0 2.62 2.62 0 0 0-1.25 1.13l-1.08-.26a3.35 3.35 0 0 1 1.61-1.4 5.75 5.75 0 0 1 5.3.1l2.51 1.26a15 15 0 0 0 1.72.75Zm-3.61-1.62c-1.36.65-2.64 1.53-1.33 2.18a2.66 2.66 0 0 0 2.32 0c.87-.44.88-1 .5-1.37a1.2 1.2 0 0 0-.32-.23ZM391.48 190.06c-.79-.4-1.49-.73-2.15-1l1.07-.53 1.36.64h.06c-.6-.6-.43-1.26.39-1.67a2.2 2.2 0 0 1 .39-.15l1.15.58a3 3 0 0 0-.46.19c-.86.43-.82 1.06-.07 1.6a4 4 0 0 0 .51.31l3.58 1.79-1.21.6ZM396.45 182.33l8.12 4.06c.6.3 1.29.63 1.79.84l-1.1.55-1.22-.56c.38.56.12 1.26-1 1.8a7.6 7.6 0 0 1-6.29-.27c-2.25-1.11-2.23-2.49-.6-3.31a5.46 5.46 0 0 1 3.05-.5l-4-2Zm4.65 3.55a3.6 3.6 0 0 0-.57-.23 4.6 4.6 0 0 0-3.18.17c-1.26.63-.9 1.56.58 2.3a5.26 5.26 0 0 0 4.47.25c.82-.41 1-1.06.33-1.62a2.4 2.4 0 0 0-.47-.29ZM358.51 273.82a4.9 4.9 0 0 1-1.74 1.25 9.22 9.22 0 0 1-8 0c-2.51-1.25-2.51-3 0-4.2a8.2 8.2 0 0 1 2.26-.77l.59.55a7.2 7.2 0 0 0-1.95.64c-1.88.94-1.93 2.16.18 3.22a7.14 7.14 0 0 0 6.3.07 3.9 3.9 0 0 0 1.36-1ZM363.14 271.77l-.81-.32c.13.39-.08.9-.9 1.31a4.07 4.07 0 0 1-3.41.05c-1.39-.7-.92-1.69 1.32-2.8l-.12-.06a2.86 2.86 0 0 0-2.64 0 2.24 2.24 0 0 0-1.07 1l-.93-.23a2.85 2.85 0 0 1 1.38-1.2 4.93 4.93 0 0 1 4.54.08l2.15 1.08a13 13 0 0 0 1.48.64Zm-3.14-1.39c-1.17.56-2.26 1.31-1.14 1.87a2.28 2.28 0 0 0 2 0c.75-.37.75-.85.43-1.18a1.1 1.1 0 0 0-.27-.2ZM361.72 268.52c-.68-.34-1.27-.62-1.84-.87l.92-.46 1.17.55c-.51-.52-.37-1.08.33-1.43a2 2 0 0 1 .33-.13l1 .49a3 3 0 0 0-.39.16c-.74.37-.7.91-.06 1.37a3.3 3.3 0 0 0 .44.27l3.07 1.53-1 .52ZM366 261.9l7 3.48c.51.26 1.11.54 1.53.72l-.94.47-1-.48c.32.48.11 1.08-.83 1.55a6.52 6.52 0 0 1-5.39-.23c-1.93-1-1.91-2.14-.51-2.84a4.7 4.7 0 0 1 2.62-.43l-3.44-1.72Zm4 3a3 3 0 0 0-.49-.2 3.94 3.94 0 0 0-2.72.15c-1.08.54-.77 1.34.5 2a4.5 4.5 0 0 0 3.83.21c.7-.35.88-.9.28-1.39a2 2 0 0 0-.4-.25ZM371.74 259.45l3.35 1.68 3.88-1.94-3.35-1.68 1-.52 8 4-1 .52-3.76-1.88-3.86 1.95 3.76 1.88-1 .52-8-4ZM388.72 256.05c2.13 1.06 1.58 2.27.19 3a6.79 6.79 0 0 1-5.72-.1c-1.93-1-1.8-2.16-.2-3a6.74 6.74 0 0 1 5.73.1m-4.51 2.31a4.86 4.86 0 0 0 4 .23c1-.5.81-1.34-.49-2a4.83 4.83 0 0 0-3.94-.24c-1.27.65-.66 1.47.43 2.02ZM384.52 252.63l1-.52 8.45 4.22-1 .52ZM392.3 248.75l7 3.48c.51.26 1.11.54 1.53.72l-.94.47-1-.48c.32.48.11 1.08-.83 1.55a6.52 6.52 0 0 1-5.39-.23c-1.93-1-1.92-2.13-.51-2.84a4.7 4.7 0 0 1 2.62-.43l-3.44-1.72Zm4 3a3 3 0 0 0-.49-.2 3.94 3.94 0 0 0-2.72.15c-1.08.54-.77 1.34.5 2a4.5 4.5 0 0 0 3.83.21c.7-.35.88-.9.29-1.39a2 2 0 0 0-.41-.25ZM400.37 250.46a4.53 4.53 0 0 0 4 0 3.55 3.55 0 0 0 1.3-.95l.93.29a4.4 4.4 0 0 1-1.6 1.2 6.57 6.57 0 0 1-5.73 0c-1.74-.87-2.08-2.06-.41-2.9a6 6 0 0 1 5.09.17 5 5 0 0 1 .45.26Zm2.32-1.91a3.63 3.63 0 0 0-3.15-.12c-1.06.53-.55 1.25.1 1.65ZM404.48 247.14c-.68-.34-1.27-.62-1.84-.87l.91-.46 1.17.55c-.51-.52-.37-1.08.33-1.43a2 2 0 0 1 .33-.13l1 .49a3 3 0 0 0-.39.16c-.74.37-.7.91-.06 1.37a3.4 3.4 0 0 0 .44.27l3.07 1.53-1 .52Z" class="cls-9"/><path d="m334.86 261-.6 1-.92-.27.77-1.21.84-.42 7.11 3.55-1 .48ZM344.69 262.31l-.59-.3v-.75c.14-1.8.07-2.68-1-3.22a3.12 3.12 0 0 0-2.84 0 1.61 1.61 0 0 0-1 1.08l-1-.18a2.24 2.24 0 0 1 1.35-1.39 5 5 0 0 1 4.31-.09c1.31.66 1.39 1.68 1.3 3.17l-.06.55 3.28-1.64.8.4ZM349.6 258.76a7 7 0 0 0 2.07-.59c1.27-.64.88-1.23.28-1.52a4 4 0 0 0-3.31.23l-.55.27-.72-.36.55-.27c.72-.36 1.27-1 .43-1.42a2.66 2.66 0 0 0-2.35.11 2 2 0 0 0-1 1l-1-.22a2.72 2.72 0 0 1 1.37-1.23 4.43 4.43 0 0 1 3.79-.2c.73.37.91.9.32 1.51a4.8 4.8 0 0 1 3.46.1c1.14.57 1.22 1.52-.53 2.4a7.8 7.8 0 0 1-2.38.71ZM359.29 255l-1.94-1-3.4 1.7-.63-.32-1.28-3.9 1.07-.53 4.42 2.21 1-.51.75.38-1 .51 1.94 1Zm-2.69-1.35-2.37-1.19q-.56-.28-1.08-.57c.19.32.32.56.44.83l.63 2.1ZM367.22 244.75l-2.79 1.39 1.57 1.06a5 5 0 0 1 .55-.32 6.3 6.3 0 0 1 2-.6 5 5 0 0 1 2.87.39c1.39.69 1.29 1.78-.29 2.57a7.4 7.4 0 0 1-2.26.69l-.49-.49a6.8 6.8 0 0 0 2-.59c.93-.47 1.14-1.16.19-1.64a4.12 4.12 0 0 0-3.68.26 9 9 0 0 0-.94.54l-2.94-1.94 3.5-1.75ZM372.66 241.9a5 5 0 0 0-.7.39c-1.3.9-1 1.86 0 2.53-.1-.4.13-.89.94-1.29a5.29 5.29 0 0 1 4.5 0c1.3.65 1.59 1.71.07 2.47a6.52 6.52 0 0 1-5.61-.22c-1.4-.7-2-1.51-2-2.22a2.33 2.33 0 0 1 1.29-1.69 6 6 0 0 1 .66-.39Zm3.82 2.19a3.59 3.59 0 0 0-3.14-.06c-.6.3-.79.75-.54 1.15a.65.65 0 0 0 .31.27 4.3 4.3 0 0 0 3.64.21c.86-.43.75-1.06-.27-1.57M378.33 238.39l.63.32 3.29 4.83-1 .51-3.11-4.73-3.58 1.79-.8-.4ZM384.56 240.57c-.9-.45-1-1-.45-1.68a4.5 4.5 0 0 1-2.76-.22c-1.13-.56-.91-1.43.37-2.08a4.62 4.62 0 0 1 3.87-.19c.6.3.94.77.46 1.43a5.1 5.1 0 0 1 3.31.18c1.24.62 1 1.58-.42 2.28a5.3 5.3 0 0 1-4.38.28m3.89-2a4.35 4.35 0 0 0-3.16 0c-.61.55-.53 1.05.15 1.39a3.3 3.3 0 0 0 2.82-.05c.89-.41.92-.96.19-1.33Zm-6.27-.42a3.77 3.77 0 0 0 2.71 0c.42-.42.47-.88-.18-1.2a2.76 2.76 0 0 0-2.4 0c-.82.42-.74.91-.13 1.22ZM399.27 234.35a6 6 0 0 0 .77-.42 1.61 1.61 0 0 0 .84-1.11c.06-.45-.22-.94-.92-1.43.08.44-.22.88-1 1.24a5.19 5.19 0 0 1-4.34 0c-1.34-.67-1.52-1.76 0-2.51a6.28 6.28 0 0 1 5.41.29c1.56.78 2.12 1.6 2.08 2.3a2.16 2.16 0 0 1-1.17 1.54 6 6 0 0 1-.86.48Zm-3.73-2.22a3.42 3.42 0 0 0 2.91.05c.66-.33.86-.75.7-1.09a.5.5 0 0 0-.26-.22 4.23 4.23 0 0 0-3.64-.32c-.84.45-.72 1.07.29 1.57ZM406.37 227.84c2.42 1.21 2.83 2.34 1.21 3.15-1.43.71-3.7.55-6.07-.62s-2.64-2.38-1.15-3.12 3.75-.54 6.01.59m-3.86 2c1.85.92 3.48 1.16 4.38.71s.35-1.32-1.47-2.23-3.36-1.22-4.38-.71c-.87.48-.47 1.3 1.47 2.27ZM412.14 225c2.42 1.21 2.83 2.34 1.21 3.15-1.43.71-3.7.55-6.07-.62s-2.64-2.38-1.15-3.12 3.74-.58 6.01.59m-3.86 2c1.85.92 3.48 1.16 4.38.71s.35-1.32-1.47-2.23-3.36-1.22-4.38-.71c-.87.43-.47 1.23 1.47 2.23M417.9 222.07c2.42 1.21 2.83 2.34 1.21 3.15-1.43.71-3.7.55-6.07-.62s-2.64-2.38-1.15-3.12 3.75-.54 6.01.59m-3.86 2c1.85.92 3.48 1.16 4.38.71s.35-1.32-1.47-2.23-3.36-1.22-4.38-.71c-.86.48-.46 1.31 1.43 2.27ZM430.82 215.62c2.42 1.21 2.83 2.34 1.21 3.15-1.43.71-3.7.55-6.07-.62s-2.64-2.38-1.15-3.12 3.75-.55 6.01.59m-3.86 2c1.85.92 3.48 1.16 4.38.71s.35-1.32-1.47-2.23-3.36-1.22-4.38-.71c-.86.47-.49 1.3 1.51 2.26ZM436.59 212.73c2.42 1.21 2.83 2.34 1.21 3.15-1.43.71-3.7.55-6.07-.62s-2.64-2.38-1.15-3.12 3.75-.54 6.01.59m-3.86 2c1.85.92 3.48 1.16 4.38.71s.35-1.32-1.47-2.23-3.36-1.22-4.38-.71c-.86.5-.46 1.3 1.47 2.27ZM442.36 209.85c2.42 1.21 2.83 2.34 1.21 3.15-1.43.71-3.7.55-6.07-.62s-2.64-2.38-1.15-3.12 3.75-.54 6.01.59m-3.86 2c1.85.92 3.48 1.16 4.38.71s.35-1.32-1.47-2.23-3.36-1.22-4.38-.71c-.86.47-.47 1.3 1.47 2.27ZM448.13 207c2.42 1.21 2.83 2.34 1.21 3.15-1.43.71-3.7.55-6.07-.62s-2.64-2.38-1.15-3.12 3.74-.58 6.01.59m-3.86 2c1.85.92 3.48 1.16 4.38.71s.35-1.32-1.47-2.23-3.36-1.22-4.38-.71c-.87.44-.47 1.23 1.47 2.23" class="cls-10"/><path d="m335.24 261-.6 1-.92-.27.77-1.21.84-.42 7.11 3.55-1 .48ZM345.06 262.25l-.59-.3v-.75c.14-1.8.07-2.68-1-3.22a3.12 3.12 0 0 0-2.84 0 1.61 1.61 0 0 0-1 1.08l-1-.18a2.24 2.24 0 0 1 1.35-1.39 5 5 0 0 1 4.31-.09c1.31.66 1.39 1.68 1.3 3.17l-.06.55 3.28-1.64.8.4ZM350 258.69a7 7 0 0 0 2.07-.59c1.27-.64.88-1.23.28-1.52a4 4 0 0 0-3.31.23l-.55.28-.72-.36.55-.27c.72-.36 1.27-1 .43-1.42a2.66 2.66 0 0 0-2.35.11 2 2 0 0 0-1 1l-1-.22a2.72 2.72 0 0 1 1.37-1.23 4.43 4.43 0 0 1 3.79-.2c.73.37.91.9.32 1.51a4.8 4.8 0 0 1 3.46.1c1.14.57 1.22 1.52-.53 2.4a7.8 7.8 0 0 1-2.38.71ZM359.66 255l-1.94-1-3.4 1.7-.63-.32-1.28-3.9 1.07-.53 4.42 2.21 1-.51.75.38-1 .51 1.94 1Zm-2.66-1.4-2.37-1.19q-.56-.28-1.08-.57c.19.32.32.56.44.83l.63 2.1ZM367.59 244.69l-2.79 1.39 1.54 1.05a5 5 0 0 1 .55-.32 6.3 6.3 0 0 1 2-.6 5 5 0 0 1 2.87.39c1.39.69 1.29 1.78-.29 2.57a7.4 7.4 0 0 1-2.26.69l-.49-.49a6.8 6.8 0 0 0 2-.59c.93-.47 1.14-1.16.19-1.64a4.12 4.12 0 0 0-3.68.26 9 9 0 0 0-.94.54l-3.01-1.94 3.5-1.75ZM373 241.84a5 5 0 0 0-.7.39c-1.3.9-1 1.86 0 2.53-.1-.4.13-.89.94-1.29a5.29 5.29 0 0 1 4.5 0c1.3.65 1.59 1.71.07 2.47a6.52 6.52 0 0 1-5.61-.22c-1.4-.7-2-1.51-2-2.22a2.33 2.33 0 0 1 1.29-1.69 6 6 0 0 1 .66-.39Zm3.82 2.19a3.59 3.59 0 0 0-3.14-.06c-.6.3-.79.75-.54 1.15a.65.65 0 0 0 .31.27 4.3 4.3 0 0 0 3.64.21c.91-.43.78-1.06-.24-1.6ZM378.7 238.33l.63.32 3.29 4.83-1 .51-3.11-4.73-3.63 1.74-.8-.4ZM384.93 240.51c-.9-.45-1-1-.45-1.68a4.5 4.5 0 0 1-2.76-.22c-1.13-.56-.91-1.43.37-2.08a4.62 4.62 0 0 1 3.87-.19c.6.3.94.77.46 1.43a5.1 5.1 0 0 1 3.31.18c1.24.62 1 1.58-.42 2.28a5.3 5.3 0 0 1-4.38.28m3.89-2a4.35 4.35 0 0 0-3.16 0c-.61.55-.53 1.05.15 1.39a3.3 3.3 0 0 0 2.82-.05c.89-.41.93-.96.19-1.33Zm-6.27-.42a3.77 3.77 0 0 0 2.71 0c.42-.42.47-.88-.18-1.2a2.76 2.76 0 0 0-2.4 0c-.82.42-.74.91-.13 1.22ZM399.64 234.28a6 6 0 0 0 .77-.42 1.61 1.61 0 0 0 .84-1.11c.06-.45-.22-.94-.92-1.43.08.44-.22.88-1 1.24a5.19 5.19 0 0 1-4.34 0c-1.34-.67-1.52-1.76 0-2.51a6.28 6.28 0 0 1 5.41.29c1.56.78 2.12 1.6 2.08 2.3a2.16 2.16 0 0 1-1.17 1.54 6 6 0 0 1-.86.48Zm-3.73-2.22a3.42 3.42 0 0 0 2.91.05c.66-.33.86-.75.7-1.09a.5.5 0 0 0-.26-.22 4.23 4.23 0 0 0-3.64-.32c-.84.42-.72 1.08.29 1.58M406.74 227.78c2.42 1.21 2.83 2.34 1.21 3.15-1.43.71-3.7.55-6.07-.62s-2.64-2.38-1.15-3.12 3.75-.54 6.01.59m-3.86 2c1.85.92 3.48 1.16 4.38.71s.35-1.32-1.47-2.23-3.36-1.22-4.38-.71c-.87.45-.47 1.3 1.47 2.27ZM412.51 224.9c2.42 1.21 2.83 2.34 1.21 3.15-1.43.71-3.7.55-6.07-.62s-2.64-2.38-1.15-3.12 3.74-.54 6.01.59m-3.86 2c1.85.92 3.48 1.16 4.38.71s.35-1.32-1.47-2.23-3.36-1.22-4.38-.71c-.87.47-.47 1.33 1.47 2.27ZM418.27 222c2.42 1.21 2.83 2.34 1.21 3.15-1.43.71-3.7.55-6.07-.62s-2.64-2.38-1.15-3.12 3.74-.53 6.01.59m-3.86 2c1.85.92 3.48 1.16 4.38.71s.35-1.32-1.47-2.23-3.36-1.22-4.38-.71c-.86.49-.46 1.31 1.47 2.28ZM431.19 215.55c2.42 1.21 2.83 2.34 1.21 3.15-1.43.71-3.7.55-6.07-.62s-2.64-2.38-1.15-3.12 3.75-.54 6.01.59m-3.86 2c1.85.92 3.48 1.16 4.38.71s.35-1.32-1.47-2.23-3.36-1.22-4.38-.71c-.86.48-.46 1.31 1.47 2.27ZM437 212.67c2.42 1.21 2.83 2.34 1.21 3.15-1.43.71-3.7.55-6.07-.62s-2.64-2.38-1.15-3.12 3.71-.54 6.01.59m-3.86 2c1.85.92 3.48 1.16 4.38.71s.35-1.32-1.47-2.23-3.36-1.22-4.38-.71c-.9.47-.5 1.3 1.43 2.27ZM442.73 209.79c2.42 1.21 2.83 2.34 1.21 3.15-1.43.71-3.7.55-6.07-.62s-2.64-2.38-1.15-3.12 3.75-.55 6.01.59m-3.86 2c1.85.92 3.48 1.16 4.38.71s.35-1.32-1.47-2.23-3.36-1.22-4.38-.71c-.86.44-.47 1.3 1.47 2.27ZM448.5 206.9c2.42 1.21 2.83 2.34 1.21 3.15-1.43.71-3.7.55-6.07-.62s-2.64-2.38-1.15-3.12 3.74-.54 6.01.59m-3.86 2c1.85.92 3.48 1.16 4.38.71s.35-1.32-1.47-2.23-3.36-1.22-4.38-.71c-.87.48-.47 1.33 1.47 2.27ZM281.17 240.6a14 14 0 0 1 2-1.2 7.9 7.9 0 0 1 3.25-.94 4.67 4.67 0 0 1 2.43.44c.9.45 1.1 1.15.47 1.82a6.2 6.2 0 0 1 4.28.21c.81.4 1.1.87 1.08 1.33-.06.63-.83 1.29-2.36 2.05-.83.42-1.53.71-2 .88Zm5 1.31 1.1-.55c1.28-.64 1.36-1.35.46-1.8a4 4 0 0 0-3.58.26 6 6 0 0 0-1 .58Zm4.48 2.24a10 10 0 0 0 1.07-.48c1.25-.63 1.94-1.43.58-2.11a4.86 4.86 0 0 0-4.22.31l-1 .5ZM301.61 239.61l-.94-.38c.15.45-.1 1-1.05 1.53a4.76 4.76 0 0 1-4 .06c-1.62-.81-1.07-2 1.54-3.27l-.14-.07a3.34 3.34 0 0 0-3.08 0 2.62 2.62 0 0 0-1.25 1.13l-1.08-.26a3.34 3.34 0 0 1 1.61-1.4 5.75 5.75 0 0 1 5.3.1l2.51 1.26a15 15 0 0 0 1.72.75ZM298 238c-1.36.65-2.64 1.53-1.33 2.18a2.66 2.66 0 0 0 2.32 0c.87-.44.88-1 .5-1.37a1.2 1.2 0 0 0-.32-.23ZM299.68 235.68c-.69-.35-1.28-.62-1.88-.88l1.08-.54 1.18.52c-.31-.49-.15-1.19 1-1.74a6 6 0 0 1 5.23.24l4 2-1.22.61-3.87-1.94a4 4 0 0 0-3.54-.22c-.8.4-.86 1-.39 1.44a1.9 1.9 0 0 0 .49.33l4 2-1.22.61ZM309.86 231.85a5 5 0 0 1-.17-.68l-.35-2.15 1.47-.74.19 2.72 6.91.5-1.49.74-5.54-.45.07.66 2.53 1.26-1.21.6-9.86-4.93 1.21-.6Z" class="cls-9"/><path d="M351.6 241.62a1.8 1.8 0 0 1-.79.16c-.62 0-1.12-.25-1.12-.56a2.34 2.34 0 0 0-1.54-2.16 11.2 11.2 0 0 0-4.21-.74c-.61 0-1.14-.22-1.17-.53s.44-.57 1.05-.59a15 15 0 0 1 5.85 1 3.3 3.3 0 0 1 2.25 3c.01.18-.11.32-.32.42" class="cls-11"/><path d="M356.26 241.31a1.8 1.8 0 0 1-.79.16c-.62 0-1.12-.25-1.12-.56a4 4 0 0 0-2.65-3.67 18.9 18.9 0 0 0-7.14-1.26c-.61 0-1.14-.22-1.17-.53s.44-.57 1.05-.59c.21 0 5.22-.12 8.78 1.56 2.23 1.06 3.37 2.57 3.37 4.48 0 .17-.13.31-.33.41" class="cls-11"/><path d="M360.92 240.71a1.8 1.8 0 0 1-.79.16c-.62 0-1.12-.25-1.12-.56 0-2.15-1.21-3.82-3.61-5-3.86-1.83-9.59-1.7-9.65-1.7-.62 0-1.14-.22-1.17-.53s.44-.57 1.05-.59c.27 0 6.72-.16 11.29 2 2.87 1.36 4.32 3.3 4.32 5.77.01.21-.12.35-.32.45" class="cls-11"/><g style="mix-blend-mode:overlay"><path d="M455.89 225.77c.22 3.13-4.68 5.76-10.95 5.87s-11.53-2.34-11.75-5.47 4.68-5.76 10.95-5.87 11.53 2.34 11.75 5.47" class="cls-13"/><path d="M463.92 221.76c.22 3.13-4.68 5.76-10.95 5.87s-11.53-2.34-11.75-5.47 4.68-5.76 10.95-5.87 11.53 2.33 11.75 5.47" class="cls-13"/><path d="M472 217.74c.22 3.13-4.68 5.76-10.95 5.87s-11.53-2.34-11.75-5.47 4.68-5.76 10.95-5.87 11.48 2.34 11.75 5.47" class="cls-13"/></g><path d="m25.36 79.4 94.56-47.29V0L25.36 47.29z" style="fill:#496aec"/><path d="M112.26 27.37V12.4L29.64 53.74v14.97z" style="fill:#415fd4"/><path d="M109.55 21s61.19 14.9 60.22 131.91l-76.51 40.92-1.83-1.65C89.94 76.63 31.21 59.85 31.21 59.85l-.06-2.14Z" style="fill:#a4b0de"/><path d="M109.16 18.19s62.37 18.07 62.37 135.09l-78.27 40.55c0-117-62.11-136.12-62.11-136.12Z" style="fill:#fcfcfc"/><path d="M112.26 19.38 34.12 58.9v2.06l-4.48 1.68v-8.9l82.62-41.34z" style="fill:#415fd4;opacity:.3"/><path d="m66.45 73.52 60-30q1.69 1.6 3.42 3.5l-60 30q-1.74-1.9-3.42-3.5M135.83 54.51l-60 30q-1.41-2-2.84-3.79l60-30a81 81 0 0 1 2.84 3.79M140.81 62.51l-60 30q-1.17-2.1-2.36-4l60-30q1.2 1.9 2.36 4M144.94 70.94 85 100.91q-1-2.19-2-4.22l60-30q1 2.05 1.94 4.25M148.32 79.74l-59.9 30c-.52-1.51-1.06-3-1.61-4.4l59.92-30q.82 2.13 1.59 4.4M104.42 180.34l58.74-29.37v-5.88l-58.74 29.38z" class="cls-19"/><path d="m383.84 229.53-219 108a24.88 24.88 0 0 1-22.26 0L28.06 281c-4.87-2.44 29.13 11.19 34 8.75l230-115a6.61 6.61 0 0 1 5.91 0l85.9 43a6.61 6.61 0 0 1-.03 11.78" class="cls-4"/><path d="M21.62 277.72c-2.83-1.73-10.44-7.69-4.49-19.1l5.27 4a14.4 14.4 0 0 1 2.3-1.44l209-102.46c7.65-3.83 20.06-3.83 27.72 0l103.7 50.77.36.19 5.82-4.41c5.26 10.09 0 15.9-3.22 18.29a12 12 0 0 1-1.14.78l-.27.16c-.4.23-.64.34-.64.34l-211.3 105.63c-7.65 3.83-20.06 3.83-27.72 0L22.6 278.26s-.27-.12-.7-.38Z" style="fill:#1c4569"/><path d="M22.45 267.55 127 319.83c7.65 3.83 20.06 3.83 27.72 0L366 214.19c7.65-3.83 7.65-10 0-13.86L261.45 148c-7.65-3.83-20.06-3.83-27.72 0L22.45 253.69c-7.65 3.82-7.65 10.03 0 13.86" style="fill:#3073aa"/><path d="M339.2 197.09c-1.51.75-1.51 2 0 2.73a6.88 6.88 0 0 0 5.46 0c1.51-.75 1.51-2 0-2.73a6.88 6.88 0 0 0-5.46 0M346.93 200.95c-1.51.75-1.51 2 0 2.73a6.88 6.88 0 0 0 5.46 0c1.51-.75 1.51-2 0-2.73a6.88 6.88 0 0 0-5.46 0M331.47 193.22c-1.51.75-1.51 2 0 2.73a6.88 6.88 0 0 0 5.46 0c1.51-.75 1.51-2 0-2.73a6.88 6.88 0 0 0-5.46 0M278.65 169.65l32.46 16.23a4.11 4.11 0 0 0 3.67 0l2.65-1.33a1.37 1.37 0 0 0 0-2.45l-32.87-16.43a3.2 3.2 0 0 0-2.86 0l-3.06 1.53a1.37 1.37 0 0 0 .01 2.45" class="cls-22"/><path d="m227.54 151.18 119.68 59.68c.86.43 1.74.84 2.64 1.19l-200.38 99.1c-3.14-2.29-7.25-3.78-10.45-5.37l-18.74-9.35-23.55-11.74L72.1 272.4l-22-11-15.75-7.85-5.77-2.88Z" style="fill:#78bcff"/><path d="M354.41 220 154.53 320c.42-.21-.93-3.82-1.06-4.11a11.5 11.5 0 0 0-4-4.67l200.38-99.1c1.43.49 4.56 2.34 4.56 7.88" style="fill:url(#linear-gradient-3)"/><path d="M30.58 275.93c0 .56-.46.79-1 .51a1.92 1.92 0 0 1-1-1.53c0-.56.46-.79 1-.51a1.92 1.92 0 0 1 1 1.53M33.92 277.6c0 .56-.46.79-1 .51a1.92 1.92 0 0 1-1-1.53c0-.56.46-.79 1-.51a1.92 1.92 0 0 1 1 1.53M37.26 279.27c0 .56-.46.79-1 .51a1.92 1.92 0 0 1-1-1.53c0-.56.46-.79 1-.51a1.92 1.92 0 0 1 1 1.53M40.6 280.94c0 .56-.46.79-1 .51a1.92 1.92 0 0 1-1-1.53c0-.56.46-.79 1-.51a1.92 1.92 0 0 1 1 1.53M43.94 282.61c0 .56-.46.79-1 .51a1.92 1.92 0 0 1-1-1.53c0-.56.46-.79 1-.51a1.92 1.92 0 0 1 1 1.53M30.58 279c0 .56-.46.79-1 .51a1.92 1.92 0 0 1-1-1.53c0-.56.46-.79 1-.51a1.92 1.92 0 0 1 1 1.53M33.92 280.66c0 .56-.46.79-1 .51a1.92 1.92 0 0 1-1-1.53c0-.56.46-.79 1-.51a1.92 1.92 0 0 1 1 1.53M37.26 282.33c0 .56-.46.79-1 .51a1.92 1.92 0 0 1-1-1.53c0-.56.46-.79 1-.51a1.92 1.92 0 0 1 1 1.53M40.6 284c0 .56-.46.79-1 .51a1.92 1.92 0 0 1-1-1.53c0-.56.46-.79 1-.51a1.92 1.92 0 0 1 1 1.53M43.94 285.68c0 .56-.46.79-1 .51a1.92 1.92 0 0 1-1-1.53c0-.56.46-.79 1-.51a1.92 1.92 0 0 1 1 1.53M76.68 302.39l-10.53-5.27a4.11 4.11 0 0 1-2.15-3.28c0-1.21 1-1.69 2.18-1.09l10.5 5.25a4.11 4.11 0 0 1 2.18 3.28c0 1.22-.97 1.72-2.18 1.11M111.85 317.28c0 1.69-1.37 2.37-3.06 1.53a5.75 5.75 0 0 1-3.06-4.59c0-1.69 1.37-2.37 3.06-1.53a5.75 5.75 0 0 1 3.06 4.59" class="cls-25"/><path d="m287.64 231.43-7.15 3.57-3.49-1.72-7.25 3.63 7 3.5-3.53 1.77-3.54-1.77-3.68 1.84h.1l-3.7-1.8 3.5-1.75-3.55-1.77-3.5 1.75-7.27-3.68-3.58 1.81-7.15-3.58v.05l3.5-1.75-3.65-1.82-3.5 1.75h.1l-7.3-3.65 3.49-1.74-3.42-1.71-7.16 3.58 3.47 1.74-3.57 1.79h.1l-10.89-5.39 3.69-1.84 3.5 1.75 7.11-3.55-3.5-1.75 3.7-1.8h-.1l3.65 1.82 18-9H248l7.1 3.55-3.5 1.75-3.34-1.67-3.54 1.77 7 3.49 3.38-1.69 10.8 5.4 3.67-1.84 3.57 1.79 3.55-1.78-3.4-1.7 3.62-1.81 7 3.5 3.53-1.77 3.61 1.81-3.4 1.7 7.23 3.61-3.7 1.85h.1l-3.5-1.75-3.65 1.82 3.5 1.75Zm-21.73-3.53-10.62-5.31-10.53 5.26 10.62 5.31Zm.09 7.1 17.84-9-3.38-1.69-17.83 8.91Zm-25.18-12.53 3.45-1.73-3.37-1.74-7 3.49 6.93 3.47 3.52-1.76ZM179.68 202.68l10.76 5.38 7.2-3.6 3.57 1.78 3.55-1.77-3.4-1.7 18-9 3.59 1.65 7-3.49 3.67 1.84-10.68 5.34-3.51-1.75-3.45 1.72 3.46 1.73 3.5-1.75 7.18 3.65v-.05l-7.24 3.62h.1l-7.08-3.54-3.69 1.84 3.34 1.67-7.22 3.61-3.38-1.69-7.15 3.57 7.12 3.56-3.58 1.79-10.84-5.42-7.2 3.6h.1l-10.85-5.42 3.59-1.8 7.1 3.55 3.45-1.73-7.05-3.53-3.5 1.75-3.59-1.85v.05l7.24-3.62Z" class="cls-9"/><path d="m151 231.48 14.44-7.22-7.25-3.62v.05l3.69-1.85-7.13-3.57 3.43-1.72 10.74 5.37-3.37 1.68 3.58 1.79 14.28-7.14h-.1l3.7 1.85 3.54-1.77 3.54 1.77-3.39 1.7 7.15 3.57 3.5-1.75 3.65 1.83-7.26 3.63-3.74-1.83-3.57 1.75-3.55-1.78 3.51-1.75-3.45-1.72-3.46 1.73 3.5 1.75-7.24 3.62-3.6-1.8-3.6 1.8-3.5-1.75-3.44 1.72 3.45 1.73 3.49-1.75 3.66 1.83-10.85 5.42-3.64-1.82 3.51-1.75-3.45-1.72-3.46 1.73 3.5 1.75-10.7 5.35-3.69-1.85 7.1-3.55-3.52-1.76ZM172.74 188.27l25-12.48 25 12.48-25 12.48Zm42.75 0-17.76-8.88-17.73 8.92 17.76 8.88ZM197.7 279.94l-25-12.49 25-12.5 25 12.49Zm17.79-12.5-17.76-8.88-17.73 8.89 17.76 8.88ZM118.53 240.35l-25-12.48 25-12.48 25 12.48Zm-17.73-12.51 17.76 8.88 17.76-8.88-17.76-8.84ZM215.75 238.66l-3.57 1.79-3.53-1.76-3.6 1.8 3.37 1.68-3.61 1.83-7.09-3.54v.05l7.31-3.65-3.52-1.76 10.74-5.37 7.12 3.56 3.58-1.79h-.1l3.68 1.84 3.69-1.85 3.57 1.78 3.55-1.77h-.1l3.65 1.82v-.05L230 238.65h.1l-3.56-1.78-7.25 3.63-3.68-1.84 3.51-1.75-3.45-1.72-3.46 1.73ZM240.88 247.62l-3.65 1.83 7.24 3.62V253l-3.58 1.79-3.51-1.75-3.55 1.78-3.68-1.82-3.71 1.85h.1l-7.08-3.54-7.12 3.56 3.5 1.75 3.48-1.74 3.58 1.79v-.05l-3.65 1.82 3.65 1.82v-.05l-3.51 1.79-14.3-7.15 7-3.5-3.54-1.77 3.62-1.81 3.4 1.7 7.14-3.57 3.61 1.81-3.32 1.63 3.69 1.84 10.68-5.34h-.1l3.65 1.82ZM230.09 202.71l3.65-1.82h-.1l3.5 1.75 3.65-1.82-3.5-1.75v.05l3.5-1.75 7.11 3.56-7.1 3.55 3.68 1.84v-.05l-3.6 1.85-3.5-1.75-7.25 3.63 7 3.52-10.73 5.37h.1l-3.66-1.89 3.48-1.74-3.55-1.78-3.36 1.68-3.62-1.81 7.09-3.55-3.51-1.76 3.58-1.79h-.1l3.5 1.75 7.24-3.62-3.5-1.75Z" class="cls-9"/><path d="m154.5 222.47 3.5 1.75-7.07 3.53-21.38-10.69 10.61-5.3 3.53 1.77 7.3-3.65h-.1l3.69 1.85-7.22 3.61 3.54 1.77-7 3.51 7.2 3.6 3.5-1.75Z" class="cls-9"/><path d="m151 209.88-10.7-5.35 10.7-5.35 3.39 1.69 3.54-1.77 3.62 1.81-3.34 1.67 7.29 3.65 3.48-1.74h-.1l3.65 1.82v-.05l-7.26 3.63-3.64-1.82-3.59 1.79-3.55-1.78 3.51-1.75-3.45-1.72-3.46 1.73 3.5 1.75-3.7 1.79ZM176.12 258.41l-3.57 1.78 3.53 1.76-3.56 1.78-10.6-5.3 7.05-3.53-3.58-1.79 7.2-3.6 3.46 1.73 7.21-3.6h-.11l3.6 1.8-14.32 7.16 3.7 1.85ZM179.78 202.68 169 197.3l3.48-1.74-3.56-1.78-3.38 1.69-3.54-1.79 6.93-3.47 10.65 5.32-3.36 1.68 3.56 1.78 3.38-1.69 10.78 5.39-3.4 1.7-7.12-3.56-3.71 1.85ZM255.27 247.62l-3.55 1.77-3.52-1.76-3.64 1.82-3.68-1.84v.05l3.5-1.75-3.65-1.82-3.5 1.75h.1l-3.64-1.84v.05l10.84-5.42 3.6 1.8-3.5 1.75 3.55 1.77 3.5-1.75 3.6 1.85V244l-3.65 1.82 3.65 1.82ZM136.61 242.25l-7.1-3.55 17.93-9 3.5 1.75v-.05l-10.88 5.44 3.6 1.8-7.16 3.58ZM244.48 206.3l7.09-3.55 10.64 5.32-7 3.52-3.5-1.75v.05l3.5-1.75-3.65-1.82-3.5 1.75h.1l-3.65-1.82ZM190.52 244l-7.37 3.63h.1l-3.52-1.83v.05l3.65-1.82-3.65-1.82v.05l3.68-1.84-3.65-1.83 3.56-1.78 7.2 3.65v-.05l-3.65 1.82 3.65 1.82ZM226.44 254.84l10.68 5.34-3.51 1.75-3.49-1.74-3.68 1.81h.1l-3.65-1.82v.05l3.65-1.82-3.65-1.82v.05l3.65-1.82ZM161.69 244l7.1 3.55-3.51 1.75-3.39-1.7-3.63 1.82-3.71-1.85v.05l7.24-3.62ZM197.7 251.15l-7.19 3.59-3.36-1.68 7.14-3.57 3.41 1.71ZM269.71 215.26l-7.08-3.54 3.45-1.73 7 3.52-3.5 1.75ZM133 244l-3.5 1.75-7-3.52 3.44-1.72 7.1 3.55Z" class="cls-9"/><path d="m176.12 258.46 7.09-3.55 3.46 1.73-7 3.52-3.51-1.75ZM154.55 247.62l-7.19 3.6-3.6-1.8v.05l7.19-3.6 3.6 1.8ZM143.76 249.42l-3.5 1.75-7.14-3.57 3.5-1.75h-.1l7.24 3.62ZM151.09 253l3.35-1.68 7 3.52-3.35 1.68ZM133 244.07l3.66-1.83h-.1l3.7 1.8-3.7 1.8h.1L133 244ZM233.74 200.88l-3.5-1.75 3.55-1.77 3.5 1.75v-.05l-3.65 1.82ZM179.73 245.82l-3.5 1.75-3.55-1.77 3.5-1.75h-.1l3.65 1.82ZM251.68 209.85l-3.68 1.82h.1l-3.7-1.8 3.7-1.8h-.1l3.65 1.82ZM197.72 240.42l-3.65 1.82h.1l-3.65-1.82v.05l3.6-1.85 3.59 1.85ZM194.07 242.25l3.5 1.75-3.57 1.77-3.5-1.75v.05l3.65-1.82ZM201.36 249.44l-3.49-1.75 3.45-1.73 3.44 1.72-3.5 1.75ZM266 217l-3.59 1.8-3.36-1.68 3.54-1.77 3.41 1.71ZM201.26 249.44l3.49 1.75-3.5 1.75-3.56-1.78v.05l3.66-1.77ZM215.78 242.36l3.34 1.67-3.43 1.72-3.34-1.67ZM176.18 244l-3.65-1.83v.05l3.6-1.8 3.6 1.8v-.05l-3.65 1.83ZM269.61 215.26l3.49 1.74-3.5 1.75L266 217l3.66-1.77ZM136.55 209.78l-3.37-1.68 3.4-1.7 3.37 1.68Z" class="cls-9"/><path d="m172.54 242.22-3.6 1.8-3.6-1.8v.05l3.6-1.8 3.6 1.8ZM230.14 242.25l-3.6-1.8 3.6-1.8H230l3.6 1.8-3.6 1.8ZM233.69 244l-3.5 1.75-3.55-1.75 3.5-1.75H230l3.65 1.82ZM165.34 242.22l-3.65 1.78h.1l-3.7-1.8 3.65-1.82 3.6 1.85ZM169 204.48l-3.5-1.75 3.46-1.73 3.45 1.72-3.51 1.75ZM158.15 220.64l-3.65 1.83h.1l-3.5-1.75 3.55-1.77 3.5 1.75ZM262.46 244l-3.65 1.82h.1l-3.64-1.82v.05l3.6-1.85 3.59 1.85ZM226.44 262l3.5 1.75-3.46 1.73-3.48-1.7 3.51-1.75ZM244.47 253.07l3.5-1.75 3.46 1.73-3.43 1.72-3.53-1.77ZM258.82 245.84l3.5 1.75-3.55 1.77-3.5-1.75v.05l3.65-1.82ZM266 242.25l3.5 1.75-3.5 1.77-3.5-1.75v.05l3.65-1.82ZM291.19 229.66l3.5 1.75-3.55 1.77-3.5-1.75v.05l3.65-1.82ZM194.12 238.68l-7.19-3.6-3.6 1.8-3.56-1.78-3.46 1.73-3.69-1.83 7.11-3.55 3.58 1.79 3.51-1.75 3.55 1.78 3.54-1.77 3.62 1.81-3.39 1.7 3.69 1.84ZM204.86 222.46l3.6-1.8-3.6-1.8 7.08-3.54 3.56 1.78-3.44 1.72 3.68 1.84-7.24 3.62Z" class="cls-9"/><path d="m208.51 224.24 3.65 1.82-3.5 1.75L205 226ZM201.43 228l3.31 1.66-3.44 1.72-3.3-1.71ZM176.08 229.66l3.65-1.82 3.65 1.82-3.65 1.82ZM205 218.87l-3.65 1.82-3.65-1.82 3.65-1.82ZM222.95 220.67l-3.65 1.82-3.65-1.82 3.65-1.82ZM255.32 240.45l-3.65 1.82-3.67-1.82 3.65-1.82Z" class="cls-9"/><path d="m258.87 242.27-3.65-1.82 3.65-1.82 3.65 1.82ZM240.88 208.05l3.65 1.82-3.5 1.75-3.65-1.82ZM251.88 227.84l3.39-1.69 3.38 1.69-3.39 1.69ZM172.49 217l-7-3.49 3.38-1.69 7 3.49ZM151 242.25l-7.24 3.62-3.65-1.87 7.24-3.62ZM165.34 235l3.65 1.82-7.24 3.62-3.65-1.82Z" class="cls-9"/><path d="m158.2 242.25-3.65 1.82-3.65-1.82 3.65-1.82ZM187.13 188.27 197.7 183l10.57 5.28-10.57 5.28ZM187.13 267.41l10.57-5.28 10.57 5.28-10.57 5.28ZM118.59 222.56l10.56 5.28-10.59 5.3-10.56-5.29Z" class="cls-9"/><g class="cls-26"><path d="m483.62 133.97 10.64 5.32v61.53l-10.64-5.32zM468.67 116.63l10.64 5.33v71.38l-10.64-5.32zM453.71 131.46l10.65 5.32v49.09l-10.65-5.33zM438.76 98.13l10.65 5.32v74.94l-10.65-5.32zM423.81 104.06l10.64 5.33v61.52l-10.64-5.32zM408.86 65.69l10.64 5.33v92.41l-10.64-5.32z" class="cls-27"/><path d="m398.84 158.24 100.87 50.44v-89c0-.42.34-.59.76-.38a1.43 1.43 0 0 1 .76 1.14v89l5.08 2.54a1.43 1.43 0 0 1 .76 1.14c0 .42-.34.59-.76.38l-5.08-2.5v5.32c0 .42-.34.59-.76.38a1.43 1.43 0 0 1-.76-1.14v-5.32l-100.87-50.48a1.43 1.43 0 0 1-.76-1.14c0-.42.34-.62.76-.38" class="cls-27"/></g><g class="cls-26"><path d="M30.15 198.59a9.7 9.7 0 0 0 1.69 3l-3.28 4.92 6.65 3.32 3.39-5.09a14.1 14.1 0 0 0 3.73-.35v4.84l9.4-4.7v-4.83a34 34 0 0 0 3.73-3.37l3.39 1.67 6.65-10-3.27-1.63a29.3 29.3 0 0 0 1.7-4.7l4.52-2.26v-9.4l-4.28 2.14a10.2 10.2 0 0 0-1.62-3.36l3-4.44-6.65-3.32-2.9 4.31a13.8 13.8 0 0 0-4.28.32v-4l-9.4 4.7v4a34.5 34.5 0 0 0-4.27 4l-2.85-1.43-6.65 10 3 1.48a28 28 0 0 0-1.62 5l-4.31 2.16v9.4ZM47 194.42c-5.19 2.59-9.39.49-9.39-4.7s4.21-11.5 9.39-14.09 9.39-.49 9.39 4.7-4.16 11.49-9.39 14.09" class="cls-27"/><path d="M3.24 229.43a7 7 0 0 0 1.2 2.14l-2.34 3.52 4.75 2.37 2.42-3.64a10 10 0 0 0 2.66-.25V237l6.72-3.36v-3.45a24.4 24.4 0 0 0 2.67-2.41l2.42 1.22 4.75-7.12-2.33-1.17a21 21 0 0 0 1.21-3.36l3.23-1.62V209l-3.06 1.53a7.3 7.3 0 0 0-1.16-2.4L28.5 205l-4.75-2.37-2 3a9.9 9.9 0 0 0-3.06.23v-2.84l-6.69 3.4v2.84a24.6 24.6 0 0 0-3.05 2.82l-2-1-4.75 7.12 2.12 1.06a20 20 0 0 0-1.16 3.54L0 224.33v6.72Zm12.07-3c-3.71 1.85-6.71.35-6.71-3.35s3-8.21 6.71-10.07 6.71-.35 6.71 3.35-3.02 8.23-6.71 10.09ZM5 198.12a6.3 6.3 0 0 0 .65 1.88l-2 2.6 3.21 2.5 2.1-2.69a6.5 6.5 0 0 0 1.95.11l-.33 2.83 5.18-2 .33-2.82a17.5 17.5 0 0 0 2.16-1.66l1.64 1.28 4.11-5.21-1.58-1.23a18 18 0 0 0 1.2-2.61l2.49-.94.63-5.49-2.36.89a6.7 6.7 0 0 0-.61-2.1l1.83-2.35-3.21-2.5-1.76 2.25a6.4 6.4 0 0 0-2.23-.17l.27-2.33-5.18 2-.27 2.33a18 18 0 0 0-2.47 1.95l-1.38-1.07-4.11 5.27 1.44 1.12a17.4 17.4 0 0 0-1.17 2.76l-2.37.9-.63 5.49Zm9-1c-2.86 1.08-4.89-.5-4.54-3.53a9.94 9.94 0 0 1 5.81-7.44c2.86-1.08 4.89.5 4.54 3.53A9.94 9.94 0 0 1 14 197.1Z" class="cls-27"/></g><g style="opacity:.56"><path d="M201.78 36.55a32 32 0 0 1 8.56-7.73l.32-.16a14.15 14.15 0 0 1 8.56-.83c3.76 1 8.22 4.7 8.57 16.45a2.72 2.72 0 0 1-1.46 2.22c-.79.4-1.43.08-1.46-.7-.4-13.9-6.78-15.51-11-15a12.9 12.9 0 0 0-6.79 3.4c-4.2 3.73-10.58 11.72-11 26.06a2.68 2.68 0 0 1-1.41 2.09c-.83.41-1.49.07-1.47-.76.36-12.12 4.8-20.27 8.58-25.04" class="cls-27"/><path d="M191.19 62.44V96.7c0 1.1.89 1.54 2 1l34.26-17.14a3.74 3.74 0 0 0 2-3V43.31c0-1.1-.89-1.54-2-1l-34.28 17.15a3.74 3.74 0 0 0-1.98 2.98m17.26 10.41c-1.75.15-3-1-3-3 0-2.67 2.16-5.92 4.83-7.25s4.83-.25 4.83 2.42a8.77 8.77 0 0 1-3 6l2.39 5.85a2.22 2.22 0 0 1-1.24 2.35l-3 1.5-3 1.5c-.9.45-1.53-.12-1.24-1.11Z" class="cls-27"/></g><path d="m304.87 252.93-20.35 10.17c-1.25.62-2.27.11-2.27-1.14a4.29 4.29 0 0 1 2.27-3.41l20.35-10.18c1.25-.62 2.27-.11 2.27 1.14a4.29 4.29 0 0 1-2.27 3.42" class="cls-25"/><path d="m305.42 253.4-20.35 10.18c-1.25.62-2.27.11-2.27-1.14a4.29 4.29 0 0 1 2.27-3.41l20.35-10.18c1.25-.62 2.27-.11 2.27 1.14a4.29 4.29 0 0 1-2.27 3.41" class="cls-29"/><path d="m333.51 238.42-20.34 10.18c-1.25.62-2.27.11-2.27-1.14a4.29 4.29 0 0 1 2.27-3.41l20.35-10.18c1.25-.62 2.27-.11 2.27 1.14a4.29 4.29 0 0 1-2.28 3.41" class="cls-25"/><path d="m334.07 238.89-20.35 10.18c-1.25.62-2.27.11-2.27-1.14a4.29 4.29 0 0 1 2.27-3.41l20.35-10.18c1.25-.62 2.27-.11 2.27 1.14a4.29 4.29 0 0 1-2.27 3.41" class="cls-29"/><path d="M58.61 320.11c12.42 6.71 13 16.51 1.2 21.89s-31.36 4.32-43.81-2.39-13-16.51-1.2-21.89 31.39-4.32 43.81 2.39" class="cls-30"/><path d="M60.12 320.68A18.4 18.4 0 0 0 54 316c-10.94-5.47-28.69-5.47-39.63 0a18.4 18.4 0 0 0-6.16 4.65h-2v5.26c0 3.59 2.74 7.17 8.21 9.91 10.94 5.47 28.69 5.47 39.63 0 5.47-2.74 8.21-6.32 8.21-9.91v-5.26Z" class="cls-2"/><g style="clip-path:url(#clip-path-2)"><path d="M8.61 295.96h1.03v45.82H8.61zM12.09 298.71h1.03v45.82h-1.03zM15.56 301.46h1.03v45.82h-1.03zM19.04 304.22h1.03v45.82h-1.03zM23.05 302.68h1.03v45.82h-1.03zM27.06 301.13h1.03v45.82h-1.03zM31.07 299.59h1.03v45.82h-1.03zM35.09 298.05h1.03v45.82h-1.03zM38.81 299.59h1.03v45.82h-1.03zM42.53 301.13h1.03v45.82h-1.03zM46.25 302.68h1.03v45.82h-1.03zM49.97 304.22H51v45.82h-1.03zM53.7 305.76h1.03v45.82H53.7zM57.42 307.3h1.03v45.82h-1.03z" class="cls-32"/></g><path d="M54 310.77c10.94 5.47 10.94 14.34 0 19.82s-28.69 5.47-39.63 0-10.94-14.34 0-19.82 28.63-5.47 39.63 0" class="cls-33"/><path d="M16.44 313.71c9.78-4.89 25.63-4.89 35.41 0 4.41 2.2 6.81 5 7.24 7.91.53-3.51-1.87-7.11-7.24-9.79-9.78-4.89-25.63-4.89-35.41 0-5.37 2.68-7.77 6.28-7.24 9.79.43-2.88 2.8-5.71 7.24-7.91" class="cls-32"/><path d="M16.44 329.53c9.78 4.89 25.63 4.89 35.41 0 4.41-2.2 6.81-5 7.24-7.91-.43-2.88-2.83-5.71-7.24-7.91-9.78-4.89-25.63-4.89-35.41 0-4.41 2.2-6.81 5-7.24 7.91.43 2.88 2.8 5.7 7.24 7.91" class="cls-2"/><path d="M60.12 313.92a18.4 18.4 0 0 0-6.12-4.64c-10.94-5.47-28.69-5.47-39.63 0a18.4 18.4 0 0 0-6.16 4.65h-2v5.26c0 3.59 2.74 7.17 8.21 9.91 10.94 5.47 28.69 5.47 39.63 0 5.47-2.74 8.21-6.32 8.21-9.91v-5.26Z" class="cls-2"/><g style="clip-path:url(#clip-path-3)"><path d="M8.61 289.2h1.03v45.82H8.61zM12.09 291.95h1.03v45.82h-1.03zM15.56 294.71h1.03v45.82h-1.03zM19.04 297.46h1.03v45.82h-1.03zM23.05 295.92h1.03v45.82h-1.03zM27.06 294.38h1.03v45.82h-1.03zM31.07 292.84h1.03v45.82h-1.03zM35.09 291.29h1.03v45.82h-1.03zM38.81 292.84h1.03v45.82h-1.03zM42.53 294.38h1.03v45.82h-1.03zM46.25 295.92h1.03v45.82h-1.03zM49.97 297.46H51v45.82h-1.03zM53.7 299h1.03v45.82H53.7zM57.42 300.54h1.03v45.82h-1.03z" class="cls-32"/></g><path d="M54 304c10.94 5.47 10.94 14.34 0 19.82s-28.69 5.47-39.63 0-10.94-14.34 0-19.82S43 298.54 54 304" class="cls-33"/><path d="M16.44 307c9.78-4.89 25.63-4.89 35.41 0 4.41 2.2 6.81 5 7.24 7.91.53-3.51-1.87-7.11-7.24-9.79-9.78-4.89-25.63-4.89-35.41 0-5.37 2.68-7.77 6.28-7.24 9.79.43-2.91 2.8-5.75 7.24-7.91" class="cls-32"/><path d="M16.44 322.77c9.78 4.89 25.63 4.89 35.41 0 4.41-2.2 6.81-5 7.24-7.91-.43-2.88-2.83-5.71-7.24-7.91-9.78-4.89-25.63-4.89-35.41 0-4.41 2.2-6.81 5-7.24 7.91.43 2.89 2.8 5.71 7.24 7.91" class="cls-2"/><path d="M60.12 307.16a18.4 18.4 0 0 0-6.12-4.64c-11-5.52-28.73-5.52-39.67 0a18.4 18.4 0 0 0-6.16 4.65h-2v5.26c0 3.59 2.74 7.17 8.21 9.91 10.94 5.47 28.69 5.47 39.63 0 5.47-2.74 8.21-6.32 8.21-9.91v-5.26Z" class="cls-2"/><g style="clip-path:url(#clip-path-4)"><path d="M8.61 282.44h1.03v45.82H8.61zM12.09 285.2h1.03v45.82h-1.03zM15.56 287.95h1.03v45.82h-1.03zM19.04 290.7h1.03v45.82h-1.03zM23.05 289.16h1.03v45.82h-1.03zM27.06 287.62h1.03v45.82h-1.03zM31.07 286.08h1.03v45.82h-1.03zM35.09 284.54h1.03v45.82h-1.03zM38.81 286.08h1.03v45.82h-1.03zM42.53 287.62h1.03v45.82h-1.03zM46.25 289.16h1.03v45.82h-1.03zM49.97 290.7H51v45.82h-1.03zM53.7 292.25h1.03v45.82H53.7zM57.42 293.79h1.03v45.82h-1.03z" class="cls-32"/></g><path d="M54 297.26c10.94 5.47 10.94 14.34 0 19.82s-28.69 5.47-39.63 0-10.94-14.34 0-19.82 28.63-5.48 39.63 0" class="cls-33"/><path d="M16.44 300.2c9.78-4.89 25.63-4.89 35.41 0 4.41 2.2 6.81 5 7.24 7.91.53-3.51-1.87-7.11-7.24-9.79-9.78-4.89-25.63-4.89-35.41 0-5.37 2.68-7.77 6.28-7.24 9.79.43-2.89 2.8-5.71 7.24-7.91" class="cls-32"/><path d="M16.44 316c9.78 4.89 25.63 4.89 35.41 0 4.41-2.2 6.81-5 7.24-7.91-.43-2.88-2.83-5.71-7.24-7.91-9.78-4.89-25.63-4.89-35.41 0-4.41 2.2-6.81 5-7.24 7.91.43 2.91 2.8 5.72 7.24 7.91" class="cls-36"/><path d="M22.22 307.56a10.8 10.8 0 0 0 4.19 3.44c2.31 1.16 4.49 1.29 5.94.56s1.12-1.62-.59-3.43c-2.41-2.49-2.77-4.72.46-6.34 3.8-1.9 9.87-1.77 15.12.86a12.6 12.6 0 0 1 4.55 3.4l-5.18 1.47a9.1 9.1 0 0 0-3.6-2.86c-2.18-1.09-4.23-1.12-5.38-.54-1.42.71-.79 1.65 1 3.63 2.48 2.69 2.28 4.64-.86 6.21-3.73 1.87-9.77 2-15.88-1a13 13 0 0 1-5-3.83Z" class="cls-37"/><path d="m22.83 315.75-3.37-1.69 27.95-13.97 3.37 1.68z" class="cls-37"/><path d="M50.78 300.79v.98l-1.74.87-1.16-.4z" class="cls-38"/><path d="M17.03 309.12v-.98l2.13.49-1.07 1.06z" class="cls-37"/><path d="M19.46 314.06v-.99l3.37 1.69v.99zM51.9 306.09v-.99l-5.19 1.47v.99z" class="cls-39"/><path d="M22.22 306.57a10.8 10.8 0 0 0 4.19 3.48c2.31 1.16 4.49 1.29 5.94.56s1.12-1.62-.59-3.43c-2.41-2.49-2.77-4.72.46-6.34 3.8-1.9 9.87-1.77 15.12.86a12.6 12.6 0 0 1 4.55 3.4l-5.18 1.47a9.1 9.1 0 0 0-3.6-2.86c-2.18-1.09-4.23-1.12-5.38-.54-1.42.71-.79 1.65 1 3.63 2.48 2.69 2.28 4.64-.86 6.21-3.73 1.87-9.77 2-15.88-1a13 13 0 0 1-5-3.83Z" class="cls-33"/><path d="m22.83 314.76-3.37-1.69 27.95-13.97 3.37 1.69z" class="cls-33"/><path d="M280.51 326.76c12.42 6.71 13 16.51 1.2 21.89s-31.36 4.31-43.79-2.39-13-16.51-1.2-21.89 31.36-4.32 43.79 2.39" class="cls-30"/><path d="M282 327.32a18.4 18.4 0 0 0-6.16-4.65c-10.94-5.47-28.69-5.47-39.63 0a18.4 18.4 0 0 0-6.16 4.65h-2v5.26c0 3.59 2.74 7.17 8.21 9.91 10.94 5.47 28.69 5.47 39.63 0 5.47-2.74 8.21-6.32 8.21-9.91v-5.26Z" class="cls-2"/><g style="clip-path:url(#clip-path-5)"><path d="M230.51 302.6h1.03v45.82h-1.03zM233.98 305.35h1.03v45.82h-1.03zM237.46 308.11h1.03v45.82h-1.03zM240.93 310.86h1.03v45.82h-1.03zM244.94 309.32h1.03v45.82h-1.03zM248.96 307.78h1.03v45.82h-1.03zM252.97 306.24H254v45.82h-1.03zM256.98 304.7h1.03v45.82h-1.03zM260.7 306.24h1.03v45.82h-1.03zM264.42 307.78h1.03v45.82h-1.03zM268.15 309.32h1.03v45.82h-1.03zM271.87 310.86h1.03v45.82h-1.03zM275.59 312.4h1.03v45.82h-1.03zM279.31 313.95h1.03v45.82h-1.03z" class="cls-32"/></g><path d="M275.85 317.41c10.94 5.47 10.94 14.34 0 19.82s-28.69 5.47-39.63 0-10.94-14.34 0-19.82 28.69-5.47 39.63 0" class="cls-33"/><path d="M238.33 320.35c9.78-4.89 25.63-4.89 35.41 0 4.41 2.2 6.81 5 7.24 7.91.53-3.51-1.87-7.11-7.24-9.79-9.78-4.89-25.63-4.89-35.41 0-5.37 2.68-7.77 6.28-7.24 9.79.43-2.88 2.84-5.7 7.24-7.91" class="cls-32"/><path d="M238.33 336.17c9.78 4.89 25.63 4.89 35.41 0 4.41-2.2 6.81-5 7.24-7.91-.43-2.88-2.83-5.71-7.24-7.91-9.78-4.89-25.63-4.89-35.41 0-4.41 2.2-6.81 5-7.24 7.91.43 2.89 2.84 5.74 7.24 7.91" class="cls-2"/><path d="M244.11 328.4a10.77 10.77 0 0 0 4.19 3.48c2.31 1.16 4.49 1.29 5.94.56s1.12-1.62-.59-3.43c-2.41-2.49-2.77-4.72.46-6.34 3.8-1.9 9.87-1.77 15.12.86a12.6 12.6 0 0 1 4.55 3.4l-5.18 1.47a9.1 9.1 0 0 0-3.6-2.86c-2.18-1.09-4.23-1.12-5.38-.54-1.42.71-.79 1.65 1 3.63 2.48 2.69 2.28 4.64-.86 6.21-3.73 1.87-9.77 2-15.88-1a13 13 0 0 1-5-3.83Z" class="cls-37"/><path d="m244.72 336.59-3.37-1.69 27.95-13.97 3.37 1.69z" class="cls-37"/><path d="M272.67 321.63v.99l-1.74.86-1.16-.4z" class="cls-38"/><path d="M238.93 329.96v-.98l2.12.49-1.06 1.06z" class="cls-37"/><path d="M241.35 334.9v-.99l3.37 1.69v.99zM273.79 326.93v-.99l-5.18 1.47v.98z" class="cls-39"/><path d="M244.11 327.41a10.77 10.77 0 0 0 4.19 3.48c2.31 1.16 4.49 1.29 5.94.56s1.12-1.62-.59-3.43c-2.41-2.49-2.77-4.72.46-6.34 3.8-1.9 9.87-1.77 15.12.86a12.6 12.6 0 0 1 4.55 3.4l-5.18 1.47a9.1 9.1 0 0 0-3.6-2.86c-2.18-1.09-4.23-1.12-5.38-.54-1.42.71-.79 1.65 1 3.63 2.48 2.69 2.28 4.64-.86 6.21-3.73 1.87-9.77 2-15.88-1a13 13 0 0 1-5-3.83Z" class="cls-33"/><path d="m244.72 335.6-3.37-1.69 27.95-13.97 3.37 1.69z" class="cls-33"/><path d="M342.65 139.08c12.42 6.71 13 16.51 1.2 21.89s-31.36 4.31-43.79-2.39-13-16.51-1.2-21.89 31.37-4.32 43.79 2.39" class="cls-30"/><path d="M344.16 139.64A18.4 18.4 0 0 0 338 135c-10.94-5.47-28.69-5.47-39.63 0a18.4 18.4 0 0 0-6.16 4.65h-2v5.26c0 3.59 2.74 7.17 8.21 9.91 10.94 5.47 28.69 5.47 39.63 0 5.47-2.74 8.21-6.32 8.21-9.91v-5.26Z" class="cls-2"/><g style="clip-path:url(#clip-path-6)"><path d="M292.65 114.92h1.03v45.82h-1.03zM296.12 117.68h1.03v45.82h-1.03zM299.6 120.43h1.03v45.82h-1.03zM303.07 123.18h1.03V169h-1.03zM307.09 121.64h1.03v45.82h-1.03zM311.1 120.1h1.03v45.82h-1.03zM315.11 118.56h1.03v45.82h-1.03zM319.12 117.02h1.03v45.82h-1.03zM322.84 118.56h1.03v45.82h-1.03zM326.57 120.1h1.03v45.82h-1.03zM330.29 121.64h1.03v45.82h-1.03zM334.01 123.18h1.03V169h-1.03zM337.73 124.73h1.03v45.82h-1.03zM341.46 126.27h1.03v45.82h-1.03z" class="cls-32"/></g><path d="M338 129.74c10.94 5.47 10.94 14.34 0 19.82s-28.69 5.47-39.63 0-10.94-14.34 0-19.82 28.68-5.48 39.63 0" class="cls-33"/><path d="M300.48 132.68c9.78-4.89 25.63-4.89 35.41 0 4.41 2.2 6.81 5 7.24 7.91.53-3.51-1.87-7.11-7.24-9.79-9.78-4.89-25.63-4.89-35.41 0-5.37 2.68-7.77 6.28-7.24 9.79.43-2.89 2.83-5.71 7.24-7.91" class="cls-32"/><path d="M300.48 148.5c9.78 4.89 25.63 4.89 35.41 0 4.41-2.2 6.81-5 7.24-7.91-.43-2.88-2.83-5.71-7.24-7.91-9.78-4.89-25.63-4.89-35.41 0-4.41 2.2-6.81 5-7.24 7.91.43 2.88 2.83 5.7 7.24 7.91" class="cls-2"/><path d="M344.16 132.89a18.4 18.4 0 0 0-6.16-4.65c-10.94-5.47-28.69-5.47-39.63 0a18.4 18.4 0 0 0-6.16 4.65h-2v5.26c0 3.59 2.74 7.17 8.21 9.91 10.94 5.47 28.69 5.47 39.63 0 5.47-2.74 8.21-6.32 8.21-9.91v-5.26Z" class="cls-2"/><g style="clip-path:url(#clip-path-7)"><path d="M292.65 108.17h1.03v45.82h-1.03zM296.12 110.92h1.03v45.82h-1.03zM299.6 113.67h1.03v45.82h-1.03zM303.07 116.43h1.03v45.82h-1.03zM307.09 114.89h1.03v45.82h-1.03zM311.1 113.34h1.03v45.82h-1.03zM315.11 111.8h1.03v45.82h-1.03zM319.12 110.26h1.03v45.82h-1.03zM322.84 111.8h1.03v45.82h-1.03zM326.57 113.34h1.03v45.82h-1.03zM330.29 114.89h1.03v45.82h-1.03zM334.01 116.43h1.03v45.82h-1.03zM337.73 117.97h1.03v45.82h-1.03zM341.46 119.51h1.03v45.82h-1.03z" class="cls-32"/></g><path d="M338 123c10.94 5.47 10.94 14.34 0 19.82s-28.69 5.47-39.63 0-10.94-14.34 0-19.82 28.68-5.49 39.63 0" class="cls-33"/><path d="M300.48 125.92c9.78-4.89 25.63-4.89 35.41 0 4.41 2.2 6.81 5 7.24 7.91.53-3.51-1.87-7.11-7.24-9.79-9.78-4.89-25.63-4.89-35.41 0-5.37 2.68-7.77 6.28-7.24 9.79.43-2.88 2.83-5.71 7.24-7.91" class="cls-32"/><path d="M300.48 141.74c9.78 4.89 25.63 4.89 35.41 0 4.41-2.2 6.81-5 7.24-7.91-.43-2.88-2.83-5.71-7.24-7.91-9.78-4.89-25.63-4.89-35.41 0-4.41 2.2-6.81 5-7.24 7.91.43 2.88 2.83 5.7 7.24 7.91" class="cls-2"/><path d="M344.16 126.13a18.4 18.4 0 0 0-6.16-4.65c-10.94-5.47-28.69-5.47-39.63 0a18.4 18.4 0 0 0-6.16 4.65h-2v5.26c0 3.59 2.74 7.17 8.21 9.91 10.94 5.47 28.69 5.47 39.63 0 5.47-2.74 8.21-6.32 8.21-9.91v-5.26Z" class="cls-2"/><g style="clip-path:url(#clip-path-8)"><path d="M292.65 101.41h1.03v45.82h-1.03zM296.12 104.16h1.03v45.82h-1.03zM299.6 106.92h1.03v45.82h-1.03zM303.07 109.67h1.03v45.82h-1.03zM307.09 108.13h1.03v45.82h-1.03zM311.1 106.59h1.03v45.82h-1.03zM315.11 105.05h1.03v45.82h-1.03zM319.12 103.51h1.03v45.82h-1.03zM322.84 105.05h1.03v45.82h-1.03zM326.57 106.59h1.03v45.82h-1.03zM330.29 108.13h1.03v45.82h-1.03zM334.01 109.67h1.03v45.82h-1.03zM337.73 111.21h1.03v45.82h-1.03zM341.46 112.75h1.03v45.82h-1.03z" class="cls-32"/></g><path d="M338 116.22c10.94 5.47 10.94 14.34 0 19.82s-28.69 5.47-39.63 0-10.94-14.34 0-19.82 28.68-5.47 39.63 0" class="cls-33"/><path d="M300.48 119.16c9.78-4.89 25.63-4.89 35.41 0 4.41 2.2 6.81 5 7.24 7.91.53-3.51-1.87-7.11-7.24-9.79-9.78-4.89-25.63-4.89-35.41 0-5.37 2.68-7.77 6.28-7.24 9.79.43-2.88 2.83-5.7 7.24-7.91" class="cls-32"/><path d="M300.48 135c9.78 4.89 25.63 4.89 35.41 0 4.41-2.2 6.81-5 7.24-7.91-.43-2.88-2.83-5.71-7.24-7.91-9.78-4.89-25.63-4.89-35.41 0-4.41 2.2-6.81 5-7.24 7.91.43 2.91 2.83 5.69 7.24 7.91" class="cls-36"/><path d="M344.16 119.62A18.4 18.4 0 0 0 338 115c-10.94-5.47-28.69-5.47-39.63 0a18.4 18.4 0 0 0-6.16 4.65h-2v5.26c0 3.59 2.74 7.17 8.21 9.91 10.94 5.47 28.69 5.47 39.63 0 5.47-2.74 8.21-6.32 8.21-9.91v-5.26Z" class="cls-2"/><g style="clip-path:url(#clip-path-9)"><path d="M292.65 94.9h1.03v45.82h-1.03zM296.12 97.65h1.03v45.82h-1.03zM299.6 100.41h1.03v45.82h-1.03zM303.07 103.16h1.03v45.82h-1.03zM307.09 101.62h1.03v45.82h-1.03zM311.1 100.08h1.03v45.82h-1.03zM315.11 98.54h1.03v45.82h-1.03zM319.12 97h1.03v45.82h-1.03zM322.84 98.54h1.03v45.82h-1.03zM326.57 100.08h1.03v45.82h-1.03zM330.29 101.62h1.03v45.82h-1.03zM334.01 103.16h1.03v45.82h-1.03zM337.73 104.7h1.03v45.82h-1.03zM341.46 106.24h1.03v45.82h-1.03z" class="cls-32"/></g><path d="M338 109.71c10.94 5.47 10.94 14.34 0 19.82s-28.69 5.47-39.63 0-10.94-14.34 0-19.82 28.68-5.47 39.63 0" class="cls-33"/><path d="M300.48 112.65c9.78-4.89 25.63-4.89 35.41 0 4.41 2.2 6.81 5 7.24 7.91.53-3.51-1.87-7.11-7.24-9.79-9.78-4.89-25.63-4.89-35.41 0-5.37 2.68-7.77 6.28-7.24 9.79.43-2.88 2.83-5.7 7.24-7.91" class="cls-32"/><path d="M300.48 128.47c9.78 4.89 25.63 4.89 35.41 0 4.41-2.2 6.81-5 7.24-7.91-.43-2.88-2.83-5.71-7.24-7.91-9.78-4.89-25.63-4.89-35.41 0-4.41 2.2-6.81 5-7.24 7.91.43 2.89 2.83 5.71 7.24 7.91" class="cls-2"/><path d="M344.16 112.87a18.4 18.4 0 0 0-6.16-4.65c-10.94-5.47-28.69-5.47-39.63 0a18.4 18.4 0 0 0-6.16 4.65h-2v5.26c0 3.59 2.74 7.17 8.21 9.91 10.94 5.47 28.69 5.47 39.63 0 5.47-2.74 8.21-6.32 8.21-9.91v-5.26Z" class="cls-2"/><g style="clip-path:url(#clip-path-10)"><path d="M292.65 88.15h1.03v45.82h-1.03zM296.12 90.9h1.03v45.82h-1.03zM299.6 93.65h1.03v45.82h-1.03zM303.07 96.41h1.03v45.82h-1.03zM307.09 94.86h1.03v45.82h-1.03zM311.1 93.32h1.03v45.82h-1.03zM315.11 91.78h1.03v45.82h-1.03zM319.12 90.24h1.03v45.82h-1.03zM322.84 91.78h1.03v45.82h-1.03zM326.57 93.32h1.03v45.82h-1.03zM330.29 94.86h1.03v45.82h-1.03zM334.01 96.41h1.03v45.82h-1.03zM337.73 97.95h1.03v45.82h-1.03zM341.46 99.49h1.03v45.82h-1.03z" class="cls-32"/></g><path d="M338 103c10.94 5.47 10.94 14.34 0 19.82s-28.69 5.47-39.63 0-10.94-14.34 0-19.82 28.68-5.51 39.63 0" class="cls-33"/><path d="M300.48 105.9c9.78-4.89 25.63-4.89 35.41 0 4.41 2.2 6.81 5 7.24 7.91.53-3.51-1.87-7.11-7.24-9.79-9.78-4.89-25.63-4.89-35.41 0-5.37 2.68-7.77 6.28-7.24 9.79.43-2.89 2.83-5.71 7.24-7.91" class="cls-32"/><path d="M300.48 121.72c9.78 4.89 25.63 4.89 35.41 0 4.41-2.2 6.81-5 7.24-7.91-.43-2.88-2.83-5.71-7.24-7.91-9.78-4.89-25.63-4.89-35.41 0-4.41 2.2-6.81 5-7.24 7.91.43 2.88 2.83 5.7 7.24 7.91" class="cls-2"/><path d="M344.16 106.11a18.4 18.4 0 0 0-6.16-4.65c-10.94-5.47-28.69-5.47-39.63 0a18.4 18.4 0 0 0-6.16 4.65h-2v5.26c0 3.59 2.74 7.17 8.21 9.91 10.94 5.47 28.69 5.47 39.63 0 5.47-2.74 8.21-6.32 8.21-9.91v-5.26Z" class="cls-2"/><g style="clip-path:url(#clip-path-11)"><path d="M292.65 81.39h1.03v45.82h-1.03zM296.12 84.14h1.03v45.82h-1.03zM299.6 86.9h1.03v45.82h-1.03zM303.07 89.65h1.03v45.82h-1.03zM307.09 88.11h1.03v45.82h-1.03zM311.1 86.57h1.03v45.82h-1.03zM315.11 85.03h1.03v45.82h-1.03zM319.12 83.48h1.03v45.82h-1.03zM322.84 85.03h1.03v45.82h-1.03zM326.57 86.57h1.03v45.82h-1.03zM330.29 88.11h1.03v45.82h-1.03zM334.01 89.65h1.03v45.82h-1.03zM337.73 91.19h1.03v45.82h-1.03zM341.46 92.73h1.03v45.82h-1.03z" class="cls-32"/></g><path d="M338 96.2c10.94 5.47 10.94 14.34 0 19.82s-28.69 5.47-39.63 0-10.94-14.34 0-19.82 28.68-5.47 39.63 0" class="cls-33"/><path d="M300.48 99.14c9.78-4.89 25.63-4.89 35.41 0 4.41 2.2 6.81 5 7.24 7.91.53-3.51-1.87-7.11-7.24-9.79-9.78-4.89-25.63-4.89-35.41 0-5.37 2.68-7.77 6.28-7.24 9.79.43-2.88 2.83-5.7 7.24-7.91" class="cls-32"/><path d="M300.48 115c9.78 4.89 25.63 4.89 35.41 0 4.41-2.2 6.81-5 7.24-7.91-.43-2.88-2.83-5.71-7.24-7.91-9.78-4.89-25.63-4.89-35.41 0-4.41 2.2-6.81 5-7.24 7.91.43 2.84 2.83 5.67 7.24 7.91" class="cls-36"/><path d="M306.25 106.24a10.77 10.77 0 0 0 4.19 3.48c2.31 1.16 4.49 1.29 5.94.56s1.12-1.62-.59-3.43c-2.41-2.49-2.77-4.72.46-6.34 3.8-1.9 9.87-1.77 15.12.86a12.6 12.6 0 0 1 4.56 3.4l-5.18 1.47a9.1 9.1 0 0 0-3.6-2.86c-2.18-1.09-4.23-1.12-5.38-.54-1.42.71-.79 1.65 1 3.63 2.48 2.69 2.28 4.64-.86 6.21-3.73 1.87-9.77 2-15.88-1a13 13 0 0 1-5-3.83Z" class="cls-37"/><path d="m306.87 114.43-3.37-1.68 27.94-13.98 3.37 1.69z" class="cls-37"/><path d="M334.81 99.47v.99l-1.73.87-1.16-.41z" class="cls-38"/><path d="M301.07 107.81v-.99l2.12.49-1.06 1.07z" class="cls-37"/><path d="M303.5 112.75v-.99l3.37 1.68v.99zM335.93 104.77v-.99l-5.18 1.47v.99z" class="cls-39"/><path d="M306.25 105.25a10.8 10.8 0 0 0 4.19 3.48c2.31 1.16 4.49 1.29 5.94.56s1.12-1.62-.59-3.43c-2.41-2.49-2.77-4.72.46-6.34 3.8-1.9 9.87-1.77 15.12.86a12.6 12.6 0 0 1 4.56 3.4l-5.18 1.47a9.1 9.1 0 0 0-3.6-2.86c-2.18-1.09-4.23-1.12-5.38-.54-1.42.71-.79 1.65 1 3.63 2.48 2.69 2.28 4.64-.86 6.21-3.73 1.87-9.77 2-15.88-1a13 13 0 0 1-5-3.83Z" class="cls-33"/><path d="m306.87 113.44-3.37-1.68 27.94-13.97 3.37 1.68z" class="cls-33"/></g></g></g></svg>