<svg xmlns="http://www.w3.org/2000/svg" viewBox="0 0 437.65 297.25"><defs><clipPath id="clip-path"><path d="M224.85 227.58V226c0 1.89 1.24 3.79 3.74 5.23v1.63c-2.49-1.49-3.74-3.39-3.74-5.28" class="cls-1"/></clipPath><clipPath id="clip-path-2"><path d="M420.61 252v1.63c0 1.87-1.23 3.73-3.68 5.15v-1.63c2.45-1.44 3.68-3.31 3.68-5.15" class="cls-1"/></clipPath><clipPath id="clip-path-3"><path d="M354.41 293.47v1.63c-4.94 2.87-13 2.86-17.92 0v-1.63c4.96 2.87 12.98 2.87 17.92 0" class="cls-1"/></clipPath><clipPath id="clip-path-4"><path d="M214.85 207.58V206c0 1.89 1.24 3.79 3.74 5.23v1.63c-2.49-1.49-3.74-3.39-3.74-5.28" class="cls-1"/></clipPath><clipPath id="clip-path-5"><path d="M410.61 232v1.63c0 1.87-1.23 3.73-3.68 5.15v-1.63c2.45-1.44 3.68-3.31 3.68-5.15" class="cls-1"/></clipPath><clipPath id="clip-path-6"><path d="M344.41 273.47v1.63c-4.94 2.87-13 2.86-17.92 0v-1.63c4.96 2.87 12.98 2.87 17.92 0" class="cls-1"/></clipPath><style>.cls-1{fill:none}.cls-2{isolation:isolate}.cls-3,.cls-5{mix-blend-mode:multiply}.cls-4{fill:#ffe6c1}.cls-5{opacity:.1}.cls-6{fill:#455a64}.cls-7{fill:#263238}.cls-8{fill:#37474f}.cls-9{fill:#cfd8dc}.cls-14{fill:#006370}.cls-15{fill:#005f6b}.cls-20{fill:#00626e}.cls-23{fill:#00b8d0}.cls-24{fill:#243035}.cls-30{fill:#ff9800}.cls-31{fill:#fff}.cls-32{fill:#f57c00}.cls-33{fill:#f7f9f9}.cls-34{fill:#00bcd4}.cls-35{fill:#f4f5f7}.cls-36{fill:#eceff1}</style></defs><g class="cls-2"><g id="Capa_2" data-name="Capa 2"><g id="OBJECTS"><g class="cls-3"><path d="m437.65 173.22-47.93 27.85-190.9-110.22L246.75 63z" class="cls-4"/></g><g class="cls-3"><path d="M281.64 120.57 159.25 191.7 0 99.75l122.39-71.13z" class="cls-4"/></g><g class="cls-5"><path d="M400.73 94.62c10.14 5.86 10.2 15.35.12 21.21L180.25 244c-10.08 5.86-26.48 5.86-36.62 0l-86.09-49.7c-10.14-5.86-10.2-15.36-.12-21.21L278 44.92c10.08-5.86 26.48-5.86 36.63 0Z"/><path d="M410.86 107.77a17 17 0 0 0-.49-2.44 16.3 16.3 0 0 0-.93-2.53 16.6 16.6 0 0 0-1.11-2 13.5 13.5 0 0 0-1.2-1.61 25 25 0 0 0-1.83-1.87 29 29 0 0 0-2.43-1.87c-.4-.28-1-.6-1.38-.86a.72.72 0 0 0-.76 0c10.14 5.86 10.2 15.35.12 21.21L180.25 244c-10.08 5.86-26.48 5.86-36.62 0l-86.09-49.7c-10.14-5.86-10.2-15.36-.12-21.21a.73.73 0 0 0-.78 0c-.78.48-1.8 1.16-2.54 1.7a13 13 0 0 0-1.15 1 22 22 0 0 0-1.62 1.63 17 17 0 0 0-1.59 2.13 16.2 16.2 0 0 0-1.89 4.33 18 18 0 0 0-.47 2.42 19 19 0 0 0-.14 2.19v1.2a9.8 9.8 0 0 0 .29 2.39 9.8 9.8 0 0 1-.29-2.39 17.6 17.6 0 0 0 .67 4.93 16.1 16.1 0 0 0 3.14 5.91 27 27 0 0 0 2 2 27 27 0 0 0 2.39 1.83c.39.28.95.59 1.35.84l86.09 49.7a28 28 0 0 0 3.49 1.71c1.07.41 2.52.91 3.61 1.26.57.18 1.35.36 1.93.51a45 45 0 0 0 10.06 1.13A44.2 44.2 0 0 0 172 258.3c.6-.14 1.39-.33 2-.52 1.09-.35 2.53-.85 3.59-1.27.56-.22 1.29-.57 1.82-.83s1.11-.6 1.58-.85a1.85 1.85 0 0 0 .69-1 1.85 1.85 0 0 1-.69 1l88.24-51.28 132.36-76.92c.75-.46 1.75-1.09 2.45-1.62s1.55-1.31 2.18-1.91a14.4 14.4 0 0 0 1.31-1.49c.39-.51.87-1.23 1.21-1.78a16.2 16.2 0 0 0 1.59-3.72 18 18 0 0 0 .5-2.4 19 19 0 0 0 .17-2.42v-1.2a19 19 0 0 0-.14-2.32M348.74 81.71a1.15 1.15 0 0 1 0 2.17 4.12 4.12 0 0 1-3.74 0l-18.74-10.83a1.14 1.14 0 0 1 0-2.17 4.12 4.12 0 0 1 3.74 0ZM319.16 64.63a1.14 1.14 0 0 1 0 2.17 4.12 4.12 0 0 1-3.73 0 1.14 1.14 0 0 1 0-2.17 4.12 4.12 0 0 1 3.73 0"/><path d="M117.5 201.08c5.18 3 5.21 7.83.06 10.83s-13.51 3-18.69 0-5.2-7.84-.06-10.83 13.51-2.99 18.69 0"/><path d="M100.12 202.4c5.15-3 13.51-3 18.69 0a11 11 0 0 1 1.39 1 9.3 9.3 0 0 0-2.72-2.28c-5.18-3-13.54-3-18.69 0-4.63 2.69-5.05 6.87-1.33 9.87-2.18-2.86-1.31-6.28 2.66-8.59M377.44 118.16c1.73 1 1.74 2.62 0 3.62l-190 110.44a6.91 6.91 0 0 1-6.26 0L74.29 170.51c-1.73-1-1.74-2.63 0-3.63l190-110.44a6.9 6.9 0 0 1 6.26 0Z"/><path d="m74.27 168.71 190-110.44a6.91 6.91 0 0 1 6.26 0L377.45 120a2.9 2.9 0 0 1 1 .91c.61-.92.27-2-1-2.74L270.56 56.45a6.91 6.91 0 0 0-6.26 0l-190 110.44c-1.26.73-1.59 1.81-1 2.72a2.9 2.9 0 0 1 .97-.9" class="cls-3"/></g><path d="M390.73 74.62c10.14 5.86 10.2 15.35.12 21.21L170.25 224c-10.08 5.86-26.48 5.86-36.62 0l-86.09-49.7c-10.14-5.86-10.2-15.36-.12-21.21L268 24.92c10.08-5.86 26.48-5.86 36.63 0Z" class="cls-6"/><path d="M400.86 87.77a17 17 0 0 0-.49-2.44 16.3 16.3 0 0 0-.93-2.53 16.6 16.6 0 0 0-1.11-2 13.5 13.5 0 0 0-1.2-1.61 25 25 0 0 0-1.83-1.87 29 29 0 0 0-2.43-1.87c-.4-.28-1-.6-1.38-.86a.72.72 0 0 0-.76 0c10.14 5.86 10.2 15.35.12 21.21L170.25 224c-10.08 5.86-26.48 5.86-36.62 0l-86.09-49.7c-10.14-5.86-10.2-15.36-.12-21.21a.73.73 0 0 0-.78 0c-.78.48-1.8 1.16-2.54 1.7a13 13 0 0 0-1.15 1 22 22 0 0 0-1.62 1.63 17 17 0 0 0-1.59 2.13 16.2 16.2 0 0 0-1.89 4.33 18 18 0 0 0-.47 2.42 19 19 0 0 0-.14 2.19v1.2a9.8 9.8 0 0 0 .29 2.39 9.8 9.8 0 0 1-.29-2.39 17.6 17.6 0 0 0 .67 4.93 16.1 16.1 0 0 0 3.14 5.91 27 27 0 0 0 2 2 27 27 0 0 0 2.39 1.83c.39.28.95.59 1.35.84l86.09 49.7a28 28 0 0 0 3.49 1.71c1.07.41 2.52.91 3.61 1.26.57.18 1.35.36 1.93.51a45 45 0 0 0 10.06 1.13A44.2 44.2 0 0 0 162 238.3c.6-.14 1.39-.33 2-.52 1.09-.35 2.53-.85 3.59-1.27.56-.22 1.29-.57 1.82-.83s1.11-.6 1.58-.85a1.85 1.85 0 0 0 .69-1 1.85 1.85 0 0 1-.69 1l88.24-51.28 132.36-76.92c.75-.46 1.75-1.09 2.45-1.62s1.55-1.31 2.18-1.91a14.4 14.4 0 0 0 1.31-1.49c.39-.51.87-1.23 1.21-1.78a16.2 16.2 0 0 0 1.59-3.72 18 18 0 0 0 .5-2.4 19 19 0 0 0 .17-2.41v-1.2a19 19 0 0 0-.14-2.33" class="cls-7"/><path d="M338.74 61.71a1.15 1.15 0 0 1 0 2.17 4.12 4.12 0 0 1-3.74 0l-18.74-10.83a1.14 1.14 0 0 1 0-2.17 4.12 4.12 0 0 1 3.74 0ZM309.16 44.63a1.14 1.14 0 0 1 0 2.17 4.12 4.12 0 0 1-3.73 0 1.14 1.14 0 0 1 0-2.17 4.12 4.12 0 0 1 3.73 0M107.5 181.08c5.18 3 5.21 7.83.06 10.83s-13.51 3-18.69 0-5.2-7.84-.06-10.83 13.51-2.99 18.69 0" class="cls-8"/><path d="M90.12 182.4c5.15-3 13.51-3 18.69 0a11 11 0 0 1 1.39 1 9.3 9.3 0 0 0-2.72-2.28c-5.18-3-13.54-3-18.69 0-4.63 2.69-5.05 6.87-1.33 9.87-2.18-2.86-1.31-6.28 2.66-8.59" class="cls-7"/><path d="M367.44 98.16c1.73 1 1.74 2.62 0 3.62l-190 110.44a6.91 6.91 0 0 1-6.26 0L64.29 150.51c-1.73-1-1.74-2.63 0-3.63l190-110.44a6.9 6.9 0 0 1 6.26 0Z" class="cls-9"/><path d="m64.27 148.71 190-110.44a6.91 6.91 0 0 1 6.26 0L367.45 100a2.9 2.9 0 0 1 1 .91c.61-.92.27-2-1-2.74L260.56 36.45a6.91 6.91 0 0 0-6.26 0l-190 110.44c-1.26.73-1.59 1.81-1 2.72a2.9 2.9 0 0 1 .97-.9" style="mix-blend-mode:multiply;fill:#cfd8dc"/><g class="cls-5"><path d="M270.21 206.99v1.63l-13.39 7.79v-1.63zM297.19 222.56l-.01 1.63-26.97-15.57v-1.63z"/><path d="m297.19 222.56-13.4 7.79-26.97-15.57 13.39-7.79z"/><path d="m297.19 222.56-.01 1.63-13.39 7.79v-1.63zM283.79 230.35v1.63l-26.97-15.57v-1.63z"/><path d="M228.6 231.18v1.63c-2.5-1.44-3.75-3.34-3.74-5.23V226c0 1.89 1.24 3.79 3.74 5.23" style="clip-path:url(#clip-path)"/><path d="m306.18 227.75-.01 1.63-13.4 7.79.01-1.63z"/><path d="M420.61 252v1.63c0 1.87-1.23 3.73-3.68 5.15v-1.63c2.45-1.42 3.68-3.29 3.68-5.15" style="clip-path:url(#clip-path-2)"/><path d="M414.69 258.43v1.63l-125.87-72.67.01-1.63z"/><path d="m414.69 258.43-.61.35-12.78 7.44-125.88-72.68 13.41-7.78z"/><path d="m414.09 258.78.61-.35-125.87-72.67 2.23-1.3c4.93-2.86 13-2.86 17.92 0l107.89 62.29c5 2.87 5 7.51.06 10.38Z"/><path d="M414.69 258.43v1.63l-.61.35v-1.63z"/><path d="m416.93 257.13-.01 1.63-2.84 1.65v-1.63zM401.3 266.22v1.63l-125.88-72.67v-1.64zM414.08 258.78v1.63l-12.78 7.44v-1.63zM378.1 269.28l-.01 1.63-71.92-41.53.01-1.63z"/><path d="m378.1 269.28-.01 1.63-13.39 7.79v-1.63zM364.7 277.07v1.63l-71.93-41.53.01-1.63z"/><path d="m401.3 266.22-46.89 27.26c-4.94 2.87-13 2.86-17.92 0l-107.89-62.3c-5-2.87-5-7.51-.06-10.38l46.89-27.25Zm-36.6 10.85 13.4-7.79-71.92-41.53-13.4 7.79zm-80.91-46.72 13.4-7.79-27-15.58-13.39 7.79 27 15.57"/><path d="m378.1 269.28-13.4 7.79-71.92-41.53 13.4-7.79zM401.3 266.22l-.01 1.63-46.89 27.25.01-1.63zM336.49 293.47l-.01 1.63-107.89-62.29.01-1.63z"/><path d="M354.41 293.47v1.63c-4.94 2.87-13 2.86-17.92 0v-1.63c5 2.86 13 2.87 17.92 0" style="clip-path:url(#clip-path-3)"/></g><g class="cls-2"><path d="M260.21 186.99v1.63l-13.39 7.79v-1.63z" class="cls-14"/><path d="m287.19 202.56-.01 1.63-26.97-15.57v-1.63z" class="cls-15"/><path d="m287.19 202.56-13.4 7.79-26.97-15.57 13.39-7.79z" style="fill:#0094a4"/><path d="m287.19 202.56-.01 1.63-13.39 7.79v-1.63z" style="fill:#005058"/><path d="M273.79 210.35v1.63l-26.97-15.57v-1.63z" style="fill:#004c54"/><g class="cls-2"><g class="cls-2" style="clip-path:url(#clip-path-4)"><path d="M218.6 211.18v1.63c-2.5-1.44-3.75-3.34-3.74-5.23V206c0 1.89 1.24 3.79 3.74 5.23" class="cls-20"/></g></g><path d="m296.18 207.75-.01 1.63-13.4 7.79.01-1.63z" class="cls-14"/><g class="cls-2"><g class="cls-2" style="clip-path:url(#clip-path-5)"><path d="M410.61 232v1.63c0 1.87-1.23 3.73-3.68 5.15v-1.63c2.45-1.42 3.68-3.29 3.68-5.15" class="cls-20"/></g></g><path d="M404.69 238.43v1.63l-125.87-72.67.01-1.63z" class="cls-15"/><path d="m404.69 238.43-.61.35-12.78 7.44-125.88-72.68 13.41-7.78z" style="fill:#445862"/><path d="m404.09 238.78.61-.35-125.87-72.67 2.23-1.3c4.93-2.86 13-2.86 17.92 0l107.89 62.29c5 2.87 5 7.51.06 10.38Z" class="cls-23"/><path d="M404.69 238.43v1.63l-.61.35v-1.63z" class="cls-24"/><path d="m406.93 237.13-.01 1.63-2.84 1.65v-1.63z" class="cls-14"/><path d="M391.3 246.22v1.63l-125.88-72.67v-1.64z" style="fill:#232d32"/><path d="M404.08 238.78v1.63l-12.78 7.44v-1.63z" class="cls-24"/><path d="m368.1 249.28-.01 1.63-71.92-41.53.01-1.63z" class="cls-15"/><path d="m368.1 249.28-.01 1.63-13.39 7.79v-1.63z" style="fill:#6d7274"/><path d="M354.7 257.07v1.63l-71.93-41.53.01-1.63z" style="fill:#686d6f"/><path d="m391.3 246.22-46.89 27.26c-4.94 2.87-13 2.86-17.92 0l-107.89-62.3c-5-2.87-5-7.51-.06-10.38l46.89-27.25Zm-36.6 10.85 13.4-7.79-71.92-41.53-13.4 7.79zm-80.91-46.72 13.4-7.79-27-15.58-13.39 7.79 27 15.57" class="cls-23"/><path d="m368.1 249.28-13.4 7.79-71.92-41.53 13.4-7.79z" style="fill:#cbd4d8"/><path d="m391.3 246.22-.01 1.63-46.89 27.25.01-1.63z" class="cls-14"/><path d="m326.49 273.47-.01 1.63-107.89-62.29.01-1.63z" class="cls-15"/><g class="cls-2"><g class="cls-2" style="clip-path:url(#clip-path-6)"><path d="M344.41 273.47v1.63c-4.94 2.87-13 2.86-17.92 0v-1.63c5 2.86 13 2.87 17.92 0" class="cls-20"/></g></g></g><g class="cls-5"><path d="M388.25 122.72c.44.25.59.65.33 1a2.11 2.11 0 0 1-2 .45 1.9 1.9 0 0 1-.45-.18c-.44-.25-.59-.65-.33-1a2.11 2.11 0 0 1 2-.45 1.9 1.9 0 0 1 .45.18M291.89 65.49l-.09.58-4.56-.24.25 2.53-1 .03-.32-3.2z"/><path d="M389.1 125.15c.09.17.14.27-.07.31l-.4.08-.41.09a.3.3 0 0 1-.23 0 .9.9 0 0 1-.19-.18.78.78 0 0 0-.63-.3H387a.84.84 0 0 0-.65.28c-.15.15-.23.24-.43.19l-.39-.1-.4-.11h-.09c-.1-.06 0-.14 0-.28s.14-.34-.07-.47l-.13-.08a1.22 1.22 0 0 0-.8-.07c-.24 0-.39.07-.48 0l-.06-.05c-.08-.12 0 0-.15-.23s-.08-.12-.15-.24.07-.16.35-.24.51-.18.52-.36v-.11a.31.31 0 0 0-.19-.26 1.5 1.5 0 0 0-.29-.12 2 2 0 0 1-.29-.11c-.07 0-.08-.08 0-.14l.18-.23.18-.23c.09-.12.25-.08.54 0a1.2 1.2 0 0 0 .81 0l.13-.07c.22-.13.2-.29.11-.46s-.14-.27.07-.31l.4-.08.41-.09a.3.3 0 0 1 .22 0 .8.8 0 0 1 .18.19.9.9 0 0 0 .23.2.8.8 0 0 0 .39.1h.18a.83.83 0 0 0 .65-.28c.15-.15.23-.25.43-.19l.39.1.4.11h.09c.1.06 0 .14 0 .28s-.13.34.07.47l.12.08a1.22 1.22 0 0 0 .81.07c.24 0 .39-.07.48 0l.06.05.15.23a2 2 0 0 1 .15.24c.08.12-.07.16-.35.24s-.51.18-.52.36v.1a.32.32 0 0 0 .19.26 1.5 1.5 0 0 0 .3.12 2 2 0 0 1 .29.11c.07 0 .08.08 0 .14l-.17.22-.18.23c-.09.12-.25.08-.54 0a1.2 1.2 0 0 0-.81 0l-.13.07a.31.31 0 0 0-.11.47m-2.54-1a2.11 2.11 0 0 0 2-.45c.26-.35.11-.74-.33-1a1.9 1.9 0 0 0-.45-.18 2.11 2.11 0 0 0-2 .45c-.26.35-.11.74.33 1a1.9 1.9 0 0 0 .45.18M328.87 92.23c0 .21-.3.38-.66.38a1 1 0 0 1-.47-.11.34.34 0 0 1-.2-.27v-1.06a4.3 4.3 0 0 1-1.68-.52 1.67 1.67 0 0 1-1-1.35 1.65 1.65 0 0 1 1-1.36 5.15 5.15 0 0 1 4.68 0 1.66 1.66 0 0 1 1 1.35 1.63 1.63 0 0 1-1 1.36 4.4 4.4 0 0 1-1.67.52Zm-.68-1.79a2.83 2.83 0 0 0 1.4-.34 1 1 0 0 0 .57-.81 1 1 0 0 0-.58-.81 2.86 2.86 0 0 0-1.4-.34 2.83 2.83 0 0 0-1.4.34 1 1 0 0 0-.57.81 1 1 0 0 0 .6.8 2.83 2.83 0 0 0 1.39.34"/><path d="M329.58 88.48a1 1 0 0 1 .58.81 1 1 0 0 1-.57.81 3 3 0 0 1-2.79 0 1 1 0 0 1-.6-.8 1 1 0 0 1 .57-.81 2.83 2.83 0 0 1 1.4-.34 2.86 2.86 0 0 1 1.41.33M351.23 101.78a.43.43 0 0 1 0 .82 1.55 1.55 0 0 1-1.41 0l-14.07-8.12a.43.43 0 0 1 0-.82 1.56 1.56 0 0 1 1.41 0Z"/><path d="M382.57 115.83a.79.79 0 0 1 0 1.5l-5.8 3.37a2.85 2.85 0 0 1-2.59 0l-79.91-46.13a.79.79 0 0 1 0-1.5l5.8-3.37a2.85 2.85 0 0 1 2.6 0Zm-54.36-23.22c.36 0 .65-.17.66-.38v-1.06a4.4 4.4 0 0 0 1.67-.52 1.63 1.63 0 0 0 1-1.36 1.66 1.66 0 0 0-1-1.35 5.15 5.15 0 0 0-4.68 0 1.65 1.65 0 0 0-1 1.36 1.67 1.67 0 0 0 1 1.35 4.3 4.3 0 0 0 1.68.52v1.06a.34.34 0 0 0 .2.27 1 1 0 0 0 .47.11m21.62 10a1.55 1.55 0 0 0 1.41 0 .43.43 0 0 0 0-.82l-14.07-8.12a1.56 1.56 0 0 0-1.41 0 .43.43 0 0 0 0 .82z"/><path d="M401.39 120.76c1.44.83 1.44 2.18 0 3l-16 9.33-112.52-65 16-9.33a5.73 5.73 0 0 1 5.19 0Zm-24.62-.06 5.8-3.37a.79.79 0 0 0 0-1.5L302.66 69.7a2.85 2.85 0 0 0-2.6 0l-5.8 3.37a.79.79 0 0 0 0 1.5l79.91 46.14a2.85 2.85 0 0 0 2.59 0m12.33 4.44a.31.31 0 0 1 .12-.47l.11-.07a1.23 1.23 0 0 1 .83 0c.29.06.45.09.54 0l.18-.23.18-.23v-.14a2 2 0 0 0-.29-.11 1.5 1.5 0 0 1-.3-.12.32.32 0 0 1-.19-.26v-.1c0-.18.23-.29.52-.37s.43-.12.35-.24a2 2 0 0 0-.15-.23l-.15-.24-.06-.05c-.09-.05-.25 0-.48 0a1.22 1.22 0 0 1-.81-.07l-.11-.07a.31.31 0 0 1-.08-.48c.08-.14.14-.23 0-.28h-.09l-.4-.11-.39-.1c-.2-.06-.28 0-.43.19a.83.83 0 0 1-.65.28h-.17a.8.8 0 0 1-.4-.1.9.9 0 0 1-.23-.2.8.8 0 0 0-.18-.19.3.3 0 0 0-.22 0l-.41.09-.41.09c-.2 0-.15.14-.07.31s.1.34-.11.46l-.12.07a1.23 1.23 0 0 1-.83 0c-.29-.06-.45-.09-.54 0a2 2 0 0 0-.17.22l-.18.23v.14a2 2 0 0 0 .29.11 1.5 1.5 0 0 1 .29.12.31.31 0 0 1 .19.26v.1c0 .18-.23.29-.52.37s-.43.12-.35.24 0 0 .15.23.08.12.15.24l.06.05c.09.05.24 0 .48 0a1.22 1.22 0 0 1 .8.07l.12.07c.22.14.19.31.08.48s-.14.23 0 .28h.09l.4.1.4.1c.2.05.28 0 .43-.19a.84.84 0 0 1 .65-.28h.17a.83.83 0 0 1 .41.1.8.8 0 0 1 .23.2.9.9 0 0 0 .19.18.3.3 0 0 0 .23 0l.4-.08.41-.09c.21 0 .16-.14.07-.31M287.49 68.36l-.25-2.53 4.56.24.09-.58-5.72-.3.32 3.2h1"/></g><path d="M378.25 102.72c.44.25.59.65.33 1a2.11 2.11 0 0 1-2 .45 1.9 1.9 0 0 1-.45-.18c-.44-.25-.59-.65-.33-1a2.11 2.11 0 0 1 2-.45 1.9 1.9 0 0 1 .45.18" class="cls-30"/><path d="m281.89 45.49-.09.58-4.56-.24.25 2.53-1 .03-.32-3.19zM379.1 105.15c.09.17.14.27-.07.31l-.4.08-.41.09a.3.3 0 0 1-.23 0 .9.9 0 0 1-.19-.18.78.78 0 0 0-.63-.3H377a.84.84 0 0 0-.65.28c-.15.15-.23.24-.43.19l-.39-.1-.4-.11h-.09c-.1-.06 0-.14 0-.28s.14-.34-.07-.47l-.13-.08a1.22 1.22 0 0 0-.8-.07c-.24 0-.39.07-.48 0l-.06-.05c-.08-.12 0 0-.15-.23s-.08-.12-.15-.24.07-.16.35-.24.51-.18.52-.36v-.11a.31.31 0 0 0-.19-.26 1.5 1.5 0 0 0-.29-.12 2 2 0 0 1-.29-.11c-.07 0-.08-.08 0-.14l.18-.23.18-.23c.09-.12.25-.08.54 0a1.2 1.2 0 0 0 .81 0l.13-.07c.22-.13.2-.29.11-.46s-.14-.27.07-.31l.4-.08.41-.09a.3.3 0 0 1 .22 0 .8.8 0 0 1 .18.19.9.9 0 0 0 .23.2.8.8 0 0 0 .39.1h.18a.83.83 0 0 0 .65-.28c.15-.15.23-.25.43-.19l.39.1.4.11h.09c.1.06 0 .14 0 .28s-.13.34.07.47l.12.08a1.22 1.22 0 0 0 .81.07c.24 0 .39-.07.48 0l.06.05.15.23a2 2 0 0 1 .15.24c.08.12-.07.16-.35.24s-.51.18-.52.36v.1a.32.32 0 0 0 .19.26 1.5 1.5 0 0 0 .3.12 2 2 0 0 1 .29.11c.07 0 .08.08 0 .14l-.17.22-.18.23c-.09.12-.25.08-.54 0a1.2 1.2 0 0 0-.81 0l-.13.07a.31.31 0 0 0-.11.47m-2.54-1a2.11 2.11 0 0 0 2-.45c.26-.35.11-.74-.33-1a1.9 1.9 0 0 0-.45-.18 2.11 2.11 0 0 0-2 .45c-.26.35-.11.74.33 1a1.9 1.9 0 0 0 .45.18" class="cls-31"/><path d="M318.87 72.23c0 .21-.3.38-.66.38a1 1 0 0 1-.47-.11.34.34 0 0 1-.2-.27v-1.06a4.3 4.3 0 0 1-1.68-.52 1.67 1.67 0 0 1-1-1.35 1.65 1.65 0 0 1 1-1.36 5.15 5.15 0 0 1 4.68 0 1.66 1.66 0 0 1 1 1.35 1.63 1.63 0 0 1-1 1.36 4.4 4.4 0 0 1-1.67.52Zm-.68-1.79a2.83 2.83 0 0 0 1.4-.34 1 1 0 0 0 .57-.81 1 1 0 0 0-.58-.81 2.86 2.86 0 0 0-1.4-.34 2.83 2.83 0 0 0-1.4.34 1 1 0 0 0-.57.81 1 1 0 0 0 .6.8 2.83 2.83 0 0 0 1.39.34" class="cls-9"/><path d="M319.58 68.48a1 1 0 0 1 .58.81 1 1 0 0 1-.57.81 3 3 0 0 1-2.79 0 1 1 0 0 1-.6-.8 1 1 0 0 1 .57-.81 2.83 2.83 0 0 1 1.4-.34 2.86 2.86 0 0 1 1.41.33" class="cls-31"/><path d="M341.23 81.78a.43.43 0 0 1 0 .82 1.55 1.55 0 0 1-1.41 0l-14.07-8.12a.43.43 0 0 1 0-.82 1.56 1.56 0 0 1 1.41 0Z" class="cls-9"/><path d="M372.57 95.83a.79.79 0 0 1 0 1.5l-5.8 3.37a2.85 2.85 0 0 1-2.59 0l-79.91-46.13a.79.79 0 0 1 0-1.5l5.8-3.37a2.85 2.85 0 0 1 2.6 0Zm-54.36-23.22c.36 0 .65-.17.66-.38v-1.06a4.4 4.4 0 0 0 1.67-.52 1.63 1.63 0 0 0 1-1.36 1.66 1.66 0 0 0-1-1.35 5.15 5.15 0 0 0-4.68 0 1.65 1.65 0 0 0-1 1.36 1.67 1.67 0 0 0 1 1.35 4.3 4.3 0 0 0 1.68.52v1.06a.34.34 0 0 0 .2.27 1 1 0 0 0 .47.11m21.62 10a1.55 1.55 0 0 0 1.41 0 .43.43 0 0 0 0-.82l-14.07-8.12a1.56 1.56 0 0 0-1.41 0 .43.43 0 0 0 0 .82z" class="cls-31"/><path d="M391.39 100.76c1.44.83 1.44 2.18 0 3l-16 9.33-112.52-65 16-9.33a5.73 5.73 0 0 1 5.19 0Zm-24.62-.06 5.8-3.37a.79.79 0 0 0 0-1.5L292.66 49.7a2.85 2.85 0 0 0-2.6 0l-5.8 3.37a.79.79 0 0 0 0 1.5l79.91 46.14a2.85 2.85 0 0 0 2.59 0m12.33 4.44a.31.31 0 0 1 .12-.47l.11-.07a1.23 1.23 0 0 1 .83 0c.29.06.45.09.54 0l.18-.23.18-.23v-.14a2 2 0 0 0-.29-.11 1.5 1.5 0 0 1-.3-.12.32.32 0 0 1-.19-.26v-.1c0-.18.23-.29.52-.37s.43-.12.35-.24a2 2 0 0 0-.15-.23l-.15-.24-.06-.05c-.09-.05-.25 0-.48 0a1.22 1.22 0 0 1-.81-.07l-.11-.07a.31.31 0 0 1-.08-.48c.08-.14.14-.23 0-.28h-.09l-.4-.11-.39-.1c-.2-.06-.28 0-.43.19a.83.83 0 0 1-.65.28h-.17a.8.8 0 0 1-.4-.1.9.9 0 0 1-.23-.2.8.8 0 0 0-.18-.19.3.3 0 0 0-.22 0l-.41.09-.41.09c-.2 0-.15.14-.07.31s.1.34-.11.46l-.12.07a1.23 1.23 0 0 1-.83 0c-.29-.06-.45-.09-.54 0a2 2 0 0 0-.17.22l-.18.23v.14a2 2 0 0 0 .29.11 1.5 1.5 0 0 1 .29.12.31.31 0 0 1 .19.26v.1c0 .18-.23.29-.52.37s-.43.12-.35.24 0 0 .15.23.08.12.15.24l.06.05c.09.05.24 0 .48 0a1.22 1.22 0 0 1 .8.07l.12.07c.22.14.19.31.08.48s-.14.23 0 .28h.09l.4.1.4.1c.2.05.28 0 .43-.19a.84.84 0 0 1 .65-.28h.17a.83.83 0 0 1 .41.1.8.8 0 0 1 .23.2.9.9 0 0 0 .19.18.3.3 0 0 0 .23 0l.4-.08.41-.09c.21 0 .16-.14.07-.31M277.49 48.36l-.25-2.53 4.56.24.09-.58-5.72-.3.32 3.2h1" class="cls-30"/><g class="cls-5"><path d="M141.14 184.54a.8.8 0 0 1 0 1.5l-3 1.74a2.86 2.86 0 0 1-2.6 0l-3-1.75a.79.79 0 0 1 0-1.5l3-1.74a2.85 2.85 0 0 1 2.59 0Zm-3.8 2.25v-1.21h2.09c.28 0 .5-.13.5-.29a.26.26 0 0 0-.15-.2.7.7 0 0 0-.35-.08h-2.1v-1.21a.27.27 0 0 0-.15-.2.74.74 0 0 0-.35-.09c-.28 0-.5.13-.5.29v1.2h-2.1c-.28 0-.5.13-.49.29a.25.25 0 0 0 .15.21.73.73 0 0 0 .36.08h2.09v1.21a.24.24 0 0 0 .14.2.73.73 0 0 0 .36.08c.27 0 .5-.13.49-.29M118 172.62v1.21h-1v-1.21c0-.16.22-.29.5-.29a.7.7 0 0 1 .35.08.26.26 0 0 1 .15.21M118 175.63c0 .16-.23.29-.49.29a.73.73 0 0 1-.36-.08.25.25 0 0 1-.15-.21v-1.21h1ZM120.43 173.92a.27.27 0 0 1 .15.2c0 .16-.23.29-.5.29h-5.18a.73.73 0 0 1-.36-.08.24.24 0 0 1-.14-.2c0-.16.21-.29.49-.29h5.19a.74.74 0 0 1 .35.08"/><path d="M137.34 186.8c0 .16-.22.29-.49.29a.73.73 0 0 1-.36-.08.24.24 0 0 1-.14-.2v-1.21h1ZM137 190.47a.22.22 0 0 1 0 .41.78.78 0 0 1-.71 0l-9.1-5.26c-.2-.11-.2-.3 0-.41a.78.78 0 0 1 .71 0Z"/><path d="m105 161 112.52 65-10.41 6a5.73 5.73 0 0 1-5.19 0L94.61 170c-1.44-.83-1.44-2.18 0-3Zm69.17 44.13-3 1.74a.8.8 0 0 0 0 1.5l3 1.75a2.86 2.86 0 0 0 2.6 0l3-1.74a.8.8 0 0 0 0-1.5l-3-1.75a2.86 2.86 0 0 0-2.6 0M154.87 194l-3 1.74a.79.79 0 0 0 0 1.5l3 1.74a2.85 2.85 0 0 0 2.6 0l3-1.74a.79.79 0 0 0 0-1.5l-3-1.74a2.85 2.85 0 0 0-2.6 0m-19.35-11.2-3 1.74a.79.79 0 0 0 0 1.5l3 1.75a2.86 2.86 0 0 0 2.6 0l3-1.74a.8.8 0 0 0 0-1.5l-3-1.75a2.85 2.85 0 0 0-2.59 0m58 33.51-3 1.74a.79.79 0 0 0 0 1.5l3 1.74a2.85 2.85 0 0 0 2.6 0l3-1.74a.79.79 0 0 0 0-1.5l-3-1.74a2.85 2.85 0 0 0-2.6 0m-77.39-44.69-3 1.74a.79.79 0 0 0 0 1.5l3 1.74a2.85 2.85 0 0 0 2.6 0l3-1.74a.79.79 0 0 0 0-1.5l-3-1.74a2.85 2.85 0 0 0-2.6 0m20.13 19.25a.78.78 0 0 0 .71 0 .22.22 0 0 0 0-.41l-9.1-5.26a.78.78 0 0 0-.71 0c-.19.11-.19.29 0 .41zM175 213.22a.78.78 0 0 0 .71 0 .22.22 0 0 0 0-.41l-9.1-5.26a.78.78 0 0 0-.71 0c-.19.11-.19.29 0 .41zm19.35 11.17a.78.78 0 0 0 .71 0 .22.22 0 0 0 0-.41l-9.1-5.26a.78.78 0 0 0-.71 0 .22.22 0 0 0 0 .41zM117 179.71a.78.78 0 0 0 .7 0 .22.22 0 0 0 0-.41l-9.1-5.26a.78.78 0 0 0-.71 0c-.19.11-.19.29 0 .41l9.1 5.26M155.65 202a.78.78 0 0 0 .7 0 .22.22 0 0 0 0-.41l-9.11-5.26a.78.78 0 0 0-.71 0 .22.22 0 0 0 0 .41l9.11 5.26"/><path d="M121.79 173.37a.79.79 0 0 1 0 1.5l-3 1.74a2.85 2.85 0 0 1-2.6 0l-3-1.74a.79.79 0 0 1 0-1.5l3-1.74a2.85 2.85 0 0 1 2.6 0Zm-3.79 2.26v-1.21h2.09c.27 0 .5-.13.5-.29a.27.27 0 0 0-.15-.2.74.74 0 0 0-.35-.09H118v-1.21a.26.26 0 0 0-.15-.2.7.7 0 0 0-.35-.08c-.28 0-.5.13-.5.29v1.21h-2.09c-.28 0-.5.13-.49.29a.24.24 0 0 0 .14.2.73.73 0 0 0 .36.08H117v1.21a.25.25 0 0 0 .15.21.73.73 0 0 0 .36.08c.27 0 .49-.13.49-.29M117.66 179.3a.22.22 0 0 1 0 .41.78.78 0 0 1-.7 0l-9.1-5.26c-.2-.11-.2-.3 0-.41a.78.78 0 0 1 .71 0ZM139.78 185.09a.26.26 0 0 1 .15.2c0 .16-.22.29-.5.29h-5.18a.73.73 0 0 1-.36-.08.25.25 0 0 1-.15-.21c0-.16.21-.29.49-.29h5.19a.7.7 0 0 1 .36.09"/><path d="M137.33 183.79V185h-1v-1.21c0-.16.22-.29.5-.29a.74.74 0 0 1 .35.09.27.27 0 0 1 .15.2M156.69 198c0 .16-.23.29-.49.29a.73.73 0 0 1-.36-.08.25.25 0 0 1-.15-.21v-1.21h1ZM156.68 195v1.21h-1V195c0-.16.22-.29.5-.29a.7.7 0 0 1 .35.08.26.26 0 0 1 .15.21"/><path d="M159.13 196.26a.27.27 0 0 1 .15.2c0 .16-.23.29-.5.29h-5.19a.73.73 0 0 1-.36-.08.24.24 0 0 1-.14-.2c0-.16.21-.29.49-.29h5.19a.74.74 0 0 1 .36.08M156.36 201.64a.22.22 0 0 1 0 .41.78.78 0 0 1-.7 0l-9.11-5.26a.22.22 0 0 1 0-.41.78.78 0 0 1 .71 0Z"/><path d="M160.49 195.71a.79.79 0 0 1 0 1.5l-3 1.74a2.85 2.85 0 0 1-2.6 0l-3-1.74a.79.79 0 0 1 0-1.5l3-1.74a2.85 2.85 0 0 1 2.6 0Zm-3.8 2.29v-1.21h2.09c.27 0 .5-.13.5-.29a.27.27 0 0 0-.15-.2.74.74 0 0 0-.35-.09h-2.09V195a.26.26 0 0 0-.15-.2.7.7 0 0 0-.35-.08c-.28 0-.5.13-.5.29v1.21h-2.09c-.28 0-.5.13-.49.29a.24.24 0 0 0 .14.2.73.73 0 0 0 .36.08h2.09V198a.25.25 0 0 0 .15.21.73.73 0 0 0 .36.08c.27 0 .49-.13.49-.29M178.47 207.43a.27.27 0 0 1 .15.2c0 .16-.22.29-.5.29h-5.18a.73.73 0 0 1-.36-.08.25.25 0 0 1-.15-.21c0-.16.21-.29.49-.29h5.19a.74.74 0 0 1 .36.09M176 209.14c0 .16-.22.29-.49.29a.73.73 0 0 1-.36-.08.25.25 0 0 1-.15-.21v-1.21h1ZM175.7 212.81a.22.22 0 0 1 0 .41.78.78 0 0 1-.71 0l-9.1-5.26c-.2-.11-.2-.3 0-.41a.78.78 0 0 1 .71 0Z"/><path d="M176 206.13v1.21h-1v-1.21c0-.16.22-.29.5-.29a.74.74 0 0 1 .35.09.27.27 0 0 1 .15.2"/><path d="M179.84 206.89a.8.8 0 0 1 0 1.5l-3 1.74a2.86 2.86 0 0 1-2.6 0l-3-1.75a.8.8 0 0 1 0-1.5l3-1.74a2.86 2.86 0 0 1 2.6 0Zm-3.8 2.25v-1.21h2.09c.28 0 .5-.13.5-.29a.27.27 0 0 0-.15-.2.74.74 0 0 0-.35-.09H176v-1.21a.27.27 0 0 0-.15-.2.74.74 0 0 0-.35-.09c-.28 0-.5.13-.5.29v1.21h-2.09c-.28 0-.5.13-.49.29a.25.25 0 0 0 .15.21.73.73 0 0 0 .36.08H175v1.21a.25.25 0 0 0 .15.21.73.73 0 0 0 .36.08c.27 0 .5-.13.49-.29M197.82 218.6a.25.25 0 0 1 .15.2c0 .16-.22.29-.5.29h-5.18a.73.73 0 0 1-.36-.08.25.25 0 0 1-.15-.21c0-.15.22-.28.49-.29h5.19a.74.74 0 0 1 .36.09M195.38 220.31c0 .16-.22.29-.49.29a.7.7 0 0 1-.35-.08.25.25 0 0 1-.15-.21v-1.21h1ZM195 224a.22.22 0 0 1 0 .41.78.78 0 0 1-.71 0l-9.1-5.26a.22.22 0 0 1 0-.41.78.78 0 0 1 .71 0Z"/><path d="M195.37 217.3v1.21h-1v-1.21c0-.16.23-.29.5-.29a.74.74 0 0 1 .35.09.27.27 0 0 1 .15.2"/><path d="M199.18 218.06a.79.79 0 0 1 0 1.5l-3 1.74a2.85 2.85 0 0 1-2.6 0l-3-1.74a.79.79 0 0 1 0-1.5l3-1.74a2.85 2.85 0 0 1 2.6 0Zm-3.8 2.25v-1.21h2.09c.28 0 .5-.13.5-.29a.25.25 0 0 0-.15-.2.74.74 0 0 0-.35-.09h-2.1v-1.22a.27.27 0 0 0-.15-.2.74.74 0 0 0-.35-.09c-.27 0-.5.13-.5.29v1.21h-2.1c-.27 0-.5.13-.49.29a.25.25 0 0 0 .15.21.73.73 0 0 0 .36.08h2.09v1.21a.25.25 0 0 0 .15.21.7.7 0 0 0 .35.08c.27 0 .5-.13.49-.29"/></g><path d="M131.14 164.54a.8.8 0 0 1 0 1.5l-3 1.74a2.86 2.86 0 0 1-2.6 0l-3-1.75a.79.79 0 0 1 0-1.5l3-1.74a2.85 2.85 0 0 1 2.59 0Zm-3.8 2.25v-1.21h2.09c.28 0 .5-.13.5-.29a.26.26 0 0 0-.15-.2.7.7 0 0 0-.35-.08h-2.1v-1.21a.27.27 0 0 0-.15-.2.74.74 0 0 0-.35-.09c-.28 0-.5.13-.5.29v1.2h-2.1c-.28 0-.5.13-.49.29a.25.25 0 0 0 .15.21.73.73 0 0 0 .36.08h2.09v1.21a.24.24 0 0 0 .14.2.73.73 0 0 0 .36.08c.27 0 .5-.13.49-.29" class="cls-32"/><g class="cls-2"><path d="M108 152.62v1.21h-1v-1.21c0-.16.22-.29.5-.29a.7.7 0 0 1 .35.08.26.26 0 0 1 .15.21M108 155.63c0 .16-.23.29-.49.29a.73.73 0 0 1-.36-.08.25.25 0 0 1-.15-.21v-1.21h1ZM110.43 153.92a.27.27 0 0 1 .15.2c0 .16-.23.29-.5.29h-5.18a.73.73 0 0 1-.36-.08.24.24 0 0 1-.14-.2c0-.16.21-.29.49-.29h5.19a.74.74 0 0 1 .35.08M127.34 166.8c0 .16-.22.29-.49.29a.73.73 0 0 1-.36-.08.24.24 0 0 1-.14-.2v-1.21h1ZM127 170.47a.22.22 0 0 1 0 .41.78.78 0 0 1-.71 0l-9.1-5.26c-.2-.11-.2-.3 0-.41a.78.78 0 0 1 .71 0Z" class="cls-31"/><path d="m95 141 112.52 65-10.41 6a5.73 5.73 0 0 1-5.19 0L84.61 150c-1.44-.83-1.44-2.18 0-3Zm69.17 44.13-3 1.74a.8.8 0 0 0 0 1.5l3 1.75a2.86 2.86 0 0 0 2.6 0l3-1.74a.8.8 0 0 0 0-1.5l-3-1.75a2.86 2.86 0 0 0-2.6 0M144.87 174l-3 1.74a.79.79 0 0 0 0 1.5l3 1.74a2.85 2.85 0 0 0 2.6 0l3-1.74a.79.79 0 0 0 0-1.5l-3-1.74a2.85 2.85 0 0 0-2.6 0m-19.35-11.2-3 1.74a.79.79 0 0 0 0 1.5l3 1.75a2.86 2.86 0 0 0 2.6 0l3-1.74a.8.8 0 0 0 0-1.5l-3-1.75a2.85 2.85 0 0 0-2.59 0m58 33.51-3 1.74a.79.79 0 0 0 0 1.5l3 1.74a2.85 2.85 0 0 0 2.6 0l3-1.74a.79.79 0 0 0 0-1.5l-3-1.74a2.85 2.85 0 0 0-2.6 0m-77.39-44.69-3 1.74a.79.79 0 0 0 0 1.5l3 1.74a2.85 2.85 0 0 0 2.6 0l3-1.74a.79.79 0 0 0 0-1.5l-3-1.74a2.85 2.85 0 0 0-2.6 0m20.13 19.25a.78.78 0 0 0 .71 0 .22.22 0 0 0 0-.41l-9.1-5.26a.78.78 0 0 0-.71 0c-.19.11-.19.29 0 .41zM165 193.22a.78.78 0 0 0 .71 0 .22.22 0 0 0 0-.41l-9.1-5.26a.78.78 0 0 0-.71 0c-.19.11-.19.29 0 .41zm19.35 11.17a.78.78 0 0 0 .71 0 .22.22 0 0 0 0-.41l-9.1-5.26a.78.78 0 0 0-.71 0 .22.22 0 0 0 0 .41zM107 159.71a.78.78 0 0 0 .7 0 .22.22 0 0 0 0-.41l-9.14-5.3a.78.78 0 0 0-.71 0c-.19.11-.19.29 0 .41l9.1 5.26m38.7 22.33a.78.78 0 0 0 .7 0 .22.22 0 0 0 0-.41l-9.11-5.26a.78.78 0 0 0-.71 0 .22.22 0 0 0 0 .41l9.11 5.26" class="cls-30"/><path d="M111.79 153.37a.79.79 0 0 1 0 1.5l-3 1.74a2.85 2.85 0 0 1-2.6 0l-3-1.74a.79.79 0 0 1 0-1.5l3-1.74a2.85 2.85 0 0 1 2.6 0Zm-3.79 2.26v-1.21h2.09c.27 0 .5-.13.5-.29a.27.27 0 0 0-.15-.2.74.74 0 0 0-.35-.09H108v-1.21a.26.26 0 0 0-.15-.2.7.7 0 0 0-.35-.08c-.28 0-.5.13-.5.29v1.21h-2.09c-.28 0-.5.13-.49.29a.24.24 0 0 0 .14.2.73.73 0 0 0 .36.08H107v1.21a.25.25 0 0 0 .15.21.73.73 0 0 0 .36.08c.27 0 .49-.13.49-.29" class="cls-32"/><path d="M107.66 159.3a.22.22 0 0 1 0 .41.78.78 0 0 1-.7 0l-9.1-5.26c-.2-.11-.2-.3 0-.41a.78.78 0 0 1 .71 0ZM129.78 165.09a.26.26 0 0 1 .15.2c0 .16-.22.29-.5.29h-5.18a.73.73 0 0 1-.36-.08.25.25 0 0 1-.15-.21c0-.16.21-.29.49-.29h5.19a.7.7 0 0 1 .36.09" class="cls-31"/></g><path d="M127.33 163.79V165h-1v-1.21c0-.16.22-.29.5-.29a.74.74 0 0 1 .35.09.27.27 0 0 1 .15.2M146.69 178c0 .16-.23.29-.49.29a.73.73 0 0 1-.36-.08.25.25 0 0 1-.15-.21v-1.21h1Z" class="cls-31"/><g class="cls-2"><path d="M146.68 175v1.21h-1V175c0-.16.22-.29.5-.29a.7.7 0 0 1 .35.08.26.26 0 0 1 .15.21" class="cls-31"/><path d="M149.13 176.26a.27.27 0 0 1 .15.2c0 .16-.23.29-.5.29h-5.19a.73.73 0 0 1-.36-.08.24.24 0 0 1-.14-.2c0-.16.21-.29.49-.29h5.19a.74.74 0 0 1 .36.08M146.36 181.64a.22.22 0 0 1 0 .41.78.78 0 0 1-.7 0l-9.11-5.26a.22.22 0 0 1 0-.41.78.78 0 0 1 .71 0Z" class="cls-31"/></g><path d="M150.49 175.71a.79.79 0 0 1 0 1.5l-3 1.74a2.85 2.85 0 0 1-2.6 0l-3-1.74a.79.79 0 0 1 0-1.5l3-1.74a2.85 2.85 0 0 1 2.6 0Zm-3.8 2.29v-1.21h2.09c.27 0 .5-.13.5-.29a.27.27 0 0 0-.15-.2.74.74 0 0 0-.35-.09h-2.09V175a.26.26 0 0 0-.15-.2.7.7 0 0 0-.35-.08c-.28 0-.5.13-.5.29v1.21h-2.09c-.28 0-.5.13-.49.29a.24.24 0 0 0 .14.2.73.73 0 0 0 .36.08h2.09V178a.25.25 0 0 0 .15.21.73.73 0 0 0 .36.08c.27 0 .49-.13.49-.29" class="cls-32"/><path d="M168.47 187.43a.27.27 0 0 1 .15.2c0 .16-.22.29-.5.29h-5.18a.73.73 0 0 1-.36-.08.25.25 0 0 1-.15-.21c0-.16.21-.29.49-.29h5.19a.74.74 0 0 1 .36.09M166 189.14c0 .16-.22.29-.49.29a.73.73 0 0 1-.36-.08.25.25 0 0 1-.15-.21v-1.21h1ZM165.7 192.81a.22.22 0 0 1 0 .41.78.78 0 0 1-.71 0l-9.1-5.26c-.2-.11-.2-.3 0-.41a.78.78 0 0 1 .71 0Z" class="cls-31"/><path d="M166 186.13v1.21h-1v-1.21c0-.16.22-.29.5-.29a.74.74 0 0 1 .35.09.27.27 0 0 1 .15.2" class="cls-31"/><path d="M169.84 186.89a.8.8 0 0 1 0 1.5l-3 1.74a2.86 2.86 0 0 1-2.6 0l-3-1.75a.8.8 0 0 1 0-1.5l3-1.74a2.86 2.86 0 0 1 2.6 0Zm-3.8 2.25v-1.21h2.09c.28 0 .5-.13.5-.29a.27.27 0 0 0-.15-.2.74.74 0 0 0-.35-.09H166v-1.21a.27.27 0 0 0-.15-.2.74.74 0 0 0-.35-.09c-.28 0-.5.13-.5.29v1.21h-2.09c-.28 0-.5.13-.49.29a.25.25 0 0 0 .15.21.73.73 0 0 0 .36.08H165v1.21a.25.25 0 0 0 .15.21.73.73 0 0 0 .36.08c.27 0 .5-.13.49-.29" class="cls-32"/><g class="cls-2"><path d="M187.82 198.6a.25.25 0 0 1 .15.2c0 .16-.22.29-.5.29h-5.18a.73.73 0 0 1-.36-.08.25.25 0 0 1-.15-.21c0-.15.22-.28.49-.29h5.19a.74.74 0 0 1 .36.09M185.38 200.31c0 .16-.22.29-.49.29a.7.7 0 0 1-.35-.08.25.25 0 0 1-.15-.21v-1.21h1ZM185 204a.22.22 0 0 1 0 .41.78.78 0 0 1-.71 0l-9.1-5.26a.22.22 0 0 1 0-.41.78.78 0 0 1 .71 0Z" class="cls-31"/></g><path d="M185.37 197.3v1.21h-1v-1.21c0-.16.23-.29.5-.29a.74.74 0 0 1 .35.09.27.27 0 0 1 .15.2" class="cls-31"/><path d="M189.18 198.06a.79.79 0 0 1 0 1.5l-3 1.74a2.85 2.85 0 0 1-2.6 0l-3-1.74a.79.79 0 0 1 0-1.5l3-1.74a2.85 2.85 0 0 1 2.6 0Zm-3.8 2.25v-1.21h2.09c.28 0 .5-.13.5-.29a.25.25 0 0 0-.15-.2.74.74 0 0 0-.35-.09h-2.1v-1.22a.27.27 0 0 0-.15-.2.74.74 0 0 0-.35-.09c-.27 0-.5.13-.5.29v1.21h-2.1c-.27 0-.5.13-.49.29a.25.25 0 0 0 .15.21.73.73 0 0 0 .36.08h2.09v1.21a.25.25 0 0 0 .15.21.7.7 0 0 0 .35.08c.27 0 .5-.13.49-.29" class="cls-32"/><g class="cls-5"><path d="M275.3 172.5a.87.87 0 0 1 0 1.64 3.12 3.12 0 0 1-2.83 0l-65-37.55a.86.86 0 0 1 0-1.64 3.1 3.1 0 0 1 2.83 0ZM253.87 166.12a.86.86 0 0 1 0 1.64 3.1 3.1 0 0 1-2.83 0l-48.76-28.16a.86.86 0 0 1 0-1.64 3.1 3.1 0 0 1 2.83 0ZM249.56 179.93a.43.43 0 0 1 0 .82 1.57 1.57 0 0 1-1.42 0L189.62 147c-.4-.23-.39-.59 0-.82a1.55 1.55 0 0 1 1.41 0ZM256.46 175.92a.43.43 0 0 1 0 .82 1.56 1.56 0 0 1-1.41 0l-58.53-33.79a.43.43 0 0 1 0-.82 1.54 1.54 0 0 1 1.41 0ZM272.52 189.19a.43.43 0 0 1 0 .82 1.57 1.57 0 0 1-1.42 0l-78-45.06c-.4-.23-.39-.59 0-.82a1.55 1.55 0 0 1 1.41 0Z"/><path d="m204.33 118.43 112.52 65L253 220.49l-112.52-65Zm5.94 16.57a3.1 3.1 0 0 0-2.83 0 .86.86 0 0 0 0 1.64l65 37.55a3.12 3.12 0 0 0 2.83 0 .87.87 0 0 0 0-1.64zm-8 3a.86.86 0 0 0 0 1.64l48.77 28.16a3.1 3.1 0 0 0 2.83 0 .86.86 0 0 0 0-1.64L205.1 138a3.1 3.1 0 0 0-2.83 0m68.84 52a1.57 1.57 0 0 0 1.42 0 .43.43 0 0 0 0-.82l-78-45.06a1.55 1.55 0 0 0-1.41 0c-.39.23-.4.59 0 .82l78 45.06m-23-9.26a1.57 1.57 0 0 0 1.42 0 .43.43 0 0 0 0-.82L191 146.13a1.55 1.55 0 0 0-1.41 0c-.39.23-.4.59 0 .82zm8.31-4a.43.43 0 0 0 0-.82l-58.53-33.79a1.54 1.54 0 0 0-1.41 0 .43.43 0 0 0 0 .82L255 176.74a1.56 1.56 0 0 0 1.41 0"/></g><path d="M265.3 152.5a.87.87 0 0 1 0 1.64 3.12 3.12 0 0 1-2.83 0l-65-37.55a.86.86 0 0 1 0-1.64 3.1 3.1 0 0 1 2.83 0ZM243.87 146.12a.86.86 0 0 1 0 1.64 3.1 3.1 0 0 1-2.83 0l-48.76-28.16a.86.86 0 0 1 0-1.64 3.1 3.1 0 0 1 2.83 0Z" class="cls-30"/><path d="M239.56 159.93a.43.43 0 0 1 0 .82 1.57 1.57 0 0 1-1.42 0L179.62 127c-.4-.23-.39-.59 0-.82a1.55 1.55 0 0 1 1.41 0ZM246.46 155.92a.43.43 0 0 1 0 .82 1.56 1.56 0 0 1-1.41 0l-58.53-33.79a.43.43 0 0 1 0-.82 1.54 1.54 0 0 1 1.41 0ZM262.52 169.19a.43.43 0 0 1 0 .82 1.57 1.57 0 0 1-1.42 0l-78-45.06c-.4-.23-.39-.59 0-.82a1.55 1.55 0 0 1 1.41 0Z" class="cls-9"/><path d="m194.33 98.43 112.52 65L243 200.49l-112.52-65Zm5.94 16.57a3.1 3.1 0 0 0-2.83 0 .86.86 0 0 0 0 1.64l65 37.55a3.12 3.12 0 0 0 2.83 0 .87.87 0 0 0 0-1.64zm-8 3a.86.86 0 0 0 0 1.64l48.77 28.16a3.1 3.1 0 0 0 2.83 0 .86.86 0 0 0 0-1.64L195.1 118a3.1 3.1 0 0 0-2.83 0m68.84 52a1.57 1.57 0 0 0 1.42 0 .43.43 0 0 0 0-.82l-78-45.06a1.55 1.55 0 0 0-1.41 0c-.39.23-.4.59 0 .82l78 45.06m-23-9.26a1.57 1.57 0 0 0 1.42 0 .43.43 0 0 0 0-.82L181 126.13a1.55 1.55 0 0 0-1.41 0c-.39.23-.4.59 0 .82zm8.31-4a.43.43 0 0 0 0-.82l-58.53-33.79a1.54 1.54 0 0 0-1.41 0 .43.43 0 0 0 0 .82L245 156.74a1.56 1.56 0 0 0 1.41 0" class="cls-33"/><g class="cls-5"><path d="M154.42 146.07c-.25.24-.51.5-.77.79l-1.09 1.3-1.76-1 2.26-.65c.47-.14.91-.29 1.35-.44Z"/><path d="m155.55 146-3.81 4.52-.8-.46 1.2-1.42-2.07-1.19-2.43.71-.79-.45 7.79-2.23Zm-4.75 1.19 1.76 1 1.09-1.3c.25-.29.51-.55.77-.79-.44.15-.88.3-1.35.44l-2.26.65M147.53 141.83c0 .35-.19.7-.71 1a3.4 3.4 0 0 1-1.69.46 4.76 4.76 0 0 1-2.43-.66 3.5 3.5 0 0 1-.56-.38l-2.32 1.35-.75-.44 5.73-3.33a13 13 0 0 1 1.56.77c.75.4 1.13.84 1.17 1.23m-4.2.46a2.67 2.67 0 0 0 2.71.13c.77-.45.59-1-.24-1.46a5 5 0 0 0-.77-.38l-2.26 1.31a2.8 2.8 0 0 0 .56.4M166.08 152l-5.29.8-2.47 1.44-.77-.44 2.45-1.4 1.5-3 .86.5-.77 1.4c-.22.39-.4.69-.62 1 .56-.12 1.13-.22 1.81-.35l2.43-.45Z"/><path d="M195.49 164.18c1.58.91 1.58 2.38 0 3.29l-7.26 4.22a6.25 6.25 0 0 1-5.68 0l-72.34-41.77c-1.58-.91-1.59-2.39 0-3.29l7.26-4.22a6.26 6.26 0 0 1 5.68 0ZM150.93 150l.8.46 3.81-4.52-.91-.53-7.79 2.23.79.45 2.43-.71 2.07 1.19-1.2 1.42m9.85 2.82 5.29-.8-.86-.5-2.43.45c-.67.13-1.25.23-1.79.35l.61-1 .77-1.4-.86-.5-1.5 3-2.46 1.43.77.44 2.47-1.44m-15.66-9.55a3.4 3.4 0 0 0 1.69-.46c.52-.3.75-.66.71-1s-.41-.8-1.16-1.23a13 13 0 0 0-1.56-.77l-5.73 3.33.75.44 2.32-1.35a3.5 3.5 0 0 0 .56.38 4.76 4.76 0 0 0 2.43.66"/><path d="M145.79 141c.83.48 1 1 .24 1.46a2.67 2.67 0 0 1-2.71-.13 2.8 2.8 0 0 1-.56-.4l2.26-1.31a5 5 0 0 1 .77.38"/></g><path d="M144.42 126.07c-.25.24-.51.5-.77.79l-1.09 1.3-1.76-1 2.26-.65c.47-.14.91-.29 1.35-.44Z" class="cls-32"/><path d="m145.55 126-3.81 4.52-.8-.46 1.2-1.42-2.07-1.19-2.43.71-.79-.45 7.79-2.23Zm-4.75 1.19 1.76 1 1.09-1.3c.25-.29.51-.55.77-.79-.44.15-.88.3-1.35.44l-2.26.65" class="cls-31"/><g class="cls-2"><path d="M137.53 121.83c0 .35-.19.7-.71 1a3.4 3.4 0 0 1-1.69.46 4.76 4.76 0 0 1-2.43-.66 3.5 3.5 0 0 1-.56-.38l-2.32 1.35-.75-.44 5.73-3.33a13 13 0 0 1 1.56.77c.75.4 1.13.84 1.17 1.23m-4.2.46a2.67 2.67 0 0 0 2.71.13c.77-.45.59-1-.24-1.46a5 5 0 0 0-.77-.38l-2.26 1.31a2.8 2.8 0 0 0 .56.4M156.08 132l-5.29.8-2.47 1.44-.77-.44 2.45-1.4 1.5-3 .86.5-.77 1.4c-.22.39-.4.69-.62 1 .56-.12 1.13-.22 1.81-.35l2.43-.45Z" class="cls-31"/><path d="M185.49 144.18c1.58.91 1.58 2.38 0 3.29l-7.26 4.22a6.25 6.25 0 0 1-5.68 0l-72.34-41.77c-1.58-.91-1.59-2.39 0-3.29l7.26-4.22a6.26 6.26 0 0 1 5.68 0ZM140.93 130l.8.46 3.81-4.52-.91-.53-7.79 2.23.79.45 2.43-.71 2.07 1.19-1.2 1.42m9.85 2.82 5.29-.8-.86-.5-2.43.45c-.67.13-1.25.23-1.79.35l.61-1 .77-1.4-.86-.5-1.5 3-2.46 1.43.77.44 2.47-1.44m-15.66-9.55a3.4 3.4 0 0 0 1.69-.46c.52-.3.75-.66.71-1s-.41-.8-1.16-1.23a13 13 0 0 0-1.56-.77l-5.73 3.33.75.44 2.32-1.35a3.5 3.5 0 0 0 .56.38 4.76 4.76 0 0 0 2.43.66" class="cls-32"/><path d="M135.79 121c.83.48 1 1 .24 1.46a2.67 2.67 0 0 1-2.71-.13 2.8 2.8 0 0 1-.56-.4l2.26-1.31a5 5 0 0 1 .77.38" class="cls-32"/></g><g class="cls-5"><path d="M222.56 85.67c.37.23.36.58 0 .8a1.56 1.56 0 0 1-1.38 0l-5.2-3a.43.43 0 0 1 0-.8 1.56 1.56 0 0 1 1.38 0ZM216.42 41.77l-51.68 30-5.08-2.93a1.27 1.27 0 0 1 0-2.4l47.54-27.6a4.56 4.56 0 0 1 4.14 0Z"/><path d="M215.95 82.67a.43.43 0 0 0 0 .8c-4.67 2.3-11.68 2.17-16.12-.39s-4.68-6.62-.73-9.34q.32-.22.67-.43a16.6 16.6 0 0 1 7.42-2 17.7 17.7 0 0 1 9.43 2c4.44 2.56 4.68 6.62.73 9.34a1.56 1.56 0 0 0-1.4.02m-1.95-.31a1.56 1.56 0 0 0 1.41 0c4-2.3 3.94-6 0-8.33A1.56 1.56 0 0 0 214 74a.43.43 0 0 0 0 .82 4.11 4.11 0 0 1 2.41 3.35 4.05 4.05 0 0 1-2.41 3.37.43.43 0 0 0 0 .82M237.48 86.79c4 2.3 4 6 0 8.33a1.56 1.56 0 0 1-1.41 0 .43.43 0 0 1 0-.82c1.59-.93 2.38-2.13 2.37-3.35s-.81-2.42-2.41-3.35a.43.43 0 0 1 0-.82 1.56 1.56 0 0 1 1.45.01"/><path d="M258.68 74.34c1.55.89 1.83 2.27.69 3.34l-19.75 18.47a1.47 1.47 0 0 1-1.37.18l-.18-.08.71-.41c2.07-1.2 3.21-2.74 3.43-4.31l15.47-14.47c.65-.61.49-1.4-.39-1.91l-4.44-2.56a.43.43 0 0 1 0-.82 1.55 1.55 0 0 1 1.41 0ZM232 47l-58.15 33.8-10-5.78c-1.3-.75-1.3-2 0-2.71l.91-.53 51.68-30 .91-.53a5.14 5.14 0 0 1 4.67 0ZM190.21 101.49c.72.42.73 1.09 0 1.5a2.85 2.85 0 0 1-2.6 0 .8.8 0 0 1 0-1.5 2.86 2.86 0 0 1 2.6 0M194.11 103.74c.72.42.73 1.09 0 1.5a2.85 2.85 0 0 1-2.6 0 .79.79 0 0 1 0-1.5 2.85 2.85 0 0 1 2.6 0M198 106c.72.42.73 1.09 0 1.5a2.85 2.85 0 0 1-2.6 0 .79.79 0 0 1 0-1.5 2.85 2.85 0 0 1 2.6 0M295 83.41c1.29.74 1.3 2 0 2.7l-.91.53-51.68 30-.91.53a5.15 5.15 0 0 1-4.66 0l-11-6.35L284 77.07ZM299.21 89.57c1.15.66 1.16 1.74 0 2.4l-47.55 27.64a4.57 4.57 0 0 1-4.15 0l-5.08-2.93 51.68-30Z"/><path d="m218.24 20 112.5 65-100.12 58.15-112.51-65Zm33.44 99.61L299.23 92c1.14-.66 1.13-1.74 0-2.4l-5.08-2.93.91-.53c1.29-.75 1.28-2 0-2.7l-11-6.35.65-.38c1.43-.83 1.42-2.17 0-3l-46.82-27a5.72 5.72 0 0 0-5.19 0l-.7.29-10-5.78a5.14 5.14 0 0 0-4.67 0l-.91.53-5.08-2.93a4.56 4.56 0 0 0-4.14 0l-47.55 27.65a1.27 1.27 0 0 0 0 2.4l5.08 2.93-.91.53c-1.28.74-1.28 2 0 2.71l10 5.78-.64.37c-1.43.83-1.42 2.18 0 3l46.82 27a5.72 5.72 0 0 0 5.19 0l.64-.37 11 6.35a5.15 5.15 0 0 0 4.66 0l.91-.53 5.08 2.93a4.57 4.57 0 0 0 4.15 0m-64-16.57a2.85 2.85 0 0 0 2.6 0c.71-.41.71-1.08 0-1.5a2.86 2.86 0 0 0-2.59 0 .8.8 0 0 0 0 1.5m3.9 2.25a2.85 2.85 0 0 0 2.6 0c.71-.41.71-1.08 0-1.5a2.85 2.85 0 0 0-2.58 0 .79.79 0 0 0 0 1.5m3.9 2.25a2.85 2.85 0 0 0 2.6 0c.71-.41.71-1.08 0-1.5a2.85 2.85 0 0 0-2.58 0 .79.79 0 0 0 0 1.5m-11.76-6.79a2.85 2.85 0 0 0 2.6 0c.71-.41.71-1.08 0-1.5a2.85 2.85 0 0 0-2.58 0 .79.79 0 0 0 0 1.5m-3.9-2.25a2.85 2.85 0 0 0 2.6 0c.71-.41.71-1.08 0-1.5a2.85 2.85 0 0 0-2.58 0 .79.79 0 0 0 0 1.5"/><path d="M284.67 73.69c1.44.83 1.44 2.17 0 3l-.65.38-58.15 33.8-.64.37a5.72 5.72 0 0 1-5.19 0l-46.82-27c-1.44-.83-1.44-2.18 0-3l.64-.37L232 47l.65-.38a5.72 5.72 0 0 1 5.19 0Zm-46.42 22.64a1.47 1.47 0 0 0 1.37-.18l19.75-18.47c1.14-1.07.86-2.45-.69-3.34l-4.44-2.56a1.55 1.55 0 0 0-1.41 0 .43.43 0 0 0 0 .82l4.44 2.56c.88.51 1 1.3.39 1.91L242.2 91.53c.27-2-.9-4-3.49-5.45-4.43-2.56-11.45-2.69-16.12-.39l-5.23-3c3.92-2.73 3.68-6.79-.76-9.35a17.7 17.7 0 0 0-9.43-2l24.94-9a4.2 4.2 0 0 1 3.29.22l4.44 2.56a1.55 1.55 0 0 0 1.41 0c.39-.23.39-.59 0-.82l-4.45-2.6a7.4 7.4 0 0 0-5.77-.38l-31.82 11.5c-.46.17-.61.52-.31.8l.14.1c-3.92 2.73-3.67 6.79.76 9.35s11.45 2.69 16.12.39l5.23 3c-3.92 2.73-3.67 6.8.76 9.35s11.46 2.69 16.13.39l.21.1"/><path d="M241.24 64.27c.4.23.4.59 0 .82a1.55 1.55 0 0 1-1.41 0l-4.44-2.56a4.2 4.2 0 0 0-3.29-.22l-24.94 9a16.6 16.6 0 0 0-7.42 2q-.35.21-.67.43a1 1 0 0 1-.17-.12c-.29-.27-.15-.63.31-.8L231 61.32a7.4 7.4 0 0 1 5.77.38ZM215.37 74c4 2.3 4 6 0 8.33a1.56 1.56 0 0 1-1.41 0 .43.43 0 0 1 0-.82 4.05 4.05 0 0 0 2.37-3.35 4.11 4.11 0 0 0-2.33-3.31.43.43 0 0 1 0-.82 1.56 1.56 0 0 1 1.37-.03M242.2 91.53c-.21 1.57-1.35 3.11-3.43 4.31-.24.14-.48.27-.73.39-4.67 2.3-11.69 2.17-16.13-.39s-4.68-6.62-.73-9.34a1.56 1.56 0 0 0 1.38 0c.38-.22.39-.57 0-.8 4.67-2.3 11.69-2.17 16.12.39 2.62 1.48 3.78 3.49 3.52 5.44m-6.08 3.59a1.56 1.56 0 0 0 1.41 0c4-2.3 3.94-6 0-8.33a1.56 1.56 0 0 0-1.41 0 .43.43 0 0 0 0 .82c1.6.93 2.4 2.14 2.41 3.35s-.78 2.42-2.37 3.35a.43.43 0 0 0 0 .82M186.25 99.21c.72.42.73 1.09 0 1.5a2.85 2.85 0 0 1-2.6 0 .79.79 0 0 1 0-1.5 2.85 2.85 0 0 1 2.6 0M182.35 97c.72.42.73 1.09 0 1.5a2.85 2.85 0 0 1-2.6 0 .79.79 0 0 1 0-1.5 2.85 2.85 0 0 1 2.6 0"/></g><path d="M212.56 65.67c.37.23.36.58 0 .8a1.56 1.56 0 0 1-1.38 0l-5.2-3a.43.43 0 0 1 0-.8 1.56 1.56 0 0 1 1.38 0Z" class="cls-6"/><g class="cls-2"><path d="m206.42 21.77-51.68 30-5.08-2.93a1.27 1.27 0 0 1 0-2.4l47.54-27.6a4.56 4.56 0 0 1 4.14 0Z" class="cls-33"/><path d="M205.95 62.67a.43.43 0 0 0 0 .8c-4.67 2.3-11.68 2.17-16.12-.39s-4.68-6.62-.73-9.34q.32-.22.67-.43a16.6 16.6 0 0 1 7.42-2 17.7 17.7 0 0 1 9.43 2c4.44 2.56 4.68 6.62.73 9.34a1.56 1.56 0 0 0-1.4.02m-1.95-.31a1.56 1.56 0 0 0 1.41 0c4-2.3 3.94-6 0-8.33A1.56 1.56 0 0 0 204 54a.43.43 0 0 0 0 .82 4.11 4.11 0 0 1 2.41 3.35 4.05 4.05 0 0 1-2.41 3.37.43.43 0 0 0 0 .82" class="cls-34"/><path d="M227.48 66.79c4 2.3 4 6 0 8.33a1.56 1.56 0 0 1-1.41 0 .43.43 0 0 1 0-.82c1.59-.93 2.38-2.13 2.37-3.35s-.81-2.42-2.41-3.35a.43.43 0 0 1 0-.82 1.56 1.56 0 0 1 1.45.01" class="cls-31"/><path d="M248.68 54.34c1.55.89 1.83 2.27.69 3.34l-19.75 18.47a1.47 1.47 0 0 1-1.37.18l-.18-.08.71-.41c2.07-1.2 3.21-2.74 3.43-4.31l15.47-14.47c.65-.61.49-1.4-.39-1.91l-4.44-2.56a.43.43 0 0 1 0-.82 1.55 1.55 0 0 1 1.41 0Z" class="cls-6"/><path d="m222 27-58.15 33.8-10-5.78c-1.3-.75-1.3-2 0-2.71l.91-.53 51.68-30 .91-.53a5.14 5.14 0 0 1 4.67 0Z" class="cls-35"/><path d="M180.21 81.49c.72.42.73 1.09 0 1.5a2.85 2.85 0 0 1-2.6 0 .8.8 0 0 1 0-1.5 2.86 2.86 0 0 1 2.6 0M184.11 83.74c.72.42.73 1.09 0 1.5a2.85 2.85 0 0 1-2.6 0 .79.79 0 0 1 0-1.5 2.85 2.85 0 0 1 2.6 0M188 86c.72.42.73 1.09 0 1.5a2.85 2.85 0 0 1-2.6 0 .79.79 0 0 1 0-1.5 2.85 2.85 0 0 1 2.6 0" class="cls-36"/><path d="M285 63.41c1.29.74 1.3 2 0 2.7l-.91.53-51.68 30-.91.53a5.15 5.15 0 0 1-4.66 0l-11-6.35L274 57.07Z" class="cls-35"/><path d="M289.21 69.57c1.15.66 1.16 1.74 0 2.4l-47.53 27.64a4.57 4.57 0 0 1-4.15 0l-5.08-2.93 51.68-30Z" class="cls-33"/><path d="m208.24 0 112.5 65-100.12 58.15-112.51-65Zm33.44 99.61L289.23 72c1.14-.66 1.13-1.74 0-2.4l-5.08-2.93.91-.53c1.29-.75 1.28-2 0-2.7l-11-6.35.65-.38c1.43-.83 1.42-2.17 0-3l-46.82-27a5.72 5.72 0 0 0-5.19 0l-.7.29-10-5.78a5.14 5.14 0 0 0-4.67 0l-.91.53-5.08-2.93a4.56 4.56 0 0 0-4.14 0l-47.55 27.65a1.27 1.27 0 0 0 0 2.4l5.08 2.93-.91.53c-1.28.74-1.28 2 0 2.71l10 5.78-.64.37c-1.43.83-1.42 2.18 0 3l46.82 27a5.72 5.72 0 0 0 5.19 0l.64-.37 11 6.35a5.15 5.15 0 0 0 4.66 0l.91-.53 5.08 2.93a4.57 4.57 0 0 0 4.15 0m-64-16.57a2.85 2.85 0 0 0 2.6 0c.71-.41.71-1.08 0-1.5a2.86 2.86 0 0 0-2.59 0 .8.8 0 0 0 0 1.5m3.9 2.25a2.85 2.85 0 0 0 2.6 0c.71-.41.71-1.08 0-1.5a2.85 2.85 0 0 0-2.58 0 .79.79 0 0 0 0 1.5m3.9 2.25a2.85 2.85 0 0 0 2.6 0c.71-.41.71-1.08 0-1.5a2.85 2.85 0 0 0-2.58 0 .79.79 0 0 0 0 1.5m-11.76-6.79a2.85 2.85 0 0 0 2.6 0c.71-.41.71-1.08 0-1.5a2.85 2.85 0 0 0-2.58 0 .79.79 0 0 0 0 1.5m-3.9-2.25a2.85 2.85 0 0 0 2.6 0c.71-.41.71-1.08 0-1.5a2.85 2.85 0 0 0-2.58 0 .79.79 0 0 0 0 1.5" class="cls-31"/><path d="M274.67 53.69c1.44.83 1.44 2.17 0 3l-.65.38-58.15 33.8-.64.37a5.72 5.72 0 0 1-5.19 0l-46.82-27c-1.44-.83-1.44-2.18 0-3l.64-.37L222 27l.65-.38a5.72 5.72 0 0 1 5.19 0Zm-46.42 22.64a1.47 1.47 0 0 0 1.37-.18l19.75-18.47c1.14-1.07.86-2.45-.69-3.34l-4.44-2.56a1.55 1.55 0 0 0-1.41 0 .43.43 0 0 0 0 .82l4.44 2.56c.88.51 1 1.3.39 1.91L232.2 71.53c.27-2-.9-4-3.49-5.45-4.43-2.56-11.45-2.69-16.12-.39l-5.23-3c3.92-2.73 3.68-6.79-.76-9.35a17.7 17.7 0 0 0-9.43-2l24.94-9a4.2 4.2 0 0 1 3.29.22l4.44 2.56a1.55 1.55 0 0 0 1.41 0c.39-.23.39-.59 0-.82l-4.45-2.6a7.4 7.4 0 0 0-5.77-.38l-31.82 11.5c-.46.17-.61.52-.31.8l.14.1c-3.92 2.73-3.67 6.79.76 9.35s11.45 2.69 16.12.39l5.23 3c-3.92 2.73-3.67 6.8.76 9.35s11.46 2.69 16.13.39l.21.1" class="cls-36"/><path d="M231.24 44.27c.4.23.4.59 0 .82a1.55 1.55 0 0 1-1.41 0l-4.44-2.56a4.2 4.2 0 0 0-3.29-.22l-24.94 9a16.6 16.6 0 0 0-7.42 2q-.35.21-.67.43a1 1 0 0 1-.17-.12c-.29-.27-.15-.63.31-.8L221 41.32a7.4 7.4 0 0 1 5.77.38Z" class="cls-6"/><path d="M205.37 54c4 2.3 4 6 0 8.33a1.56 1.56 0 0 1-1.41 0 .43.43 0 0 1 0-.82 4.05 4.05 0 0 0 2.37-3.35 4.11 4.11 0 0 0-2.33-3.31.43.43 0 0 1 0-.82 1.56 1.56 0 0 1 1.37-.03" class="cls-31"/><path d="M232.2 71.53c-.21 1.57-1.35 3.11-3.43 4.31-.24.14-.48.27-.73.39-4.67 2.3-11.69 2.17-16.13-.39s-4.68-6.62-.73-9.34a1.56 1.56 0 0 0 1.38 0c.38-.22.39-.57 0-.8 4.67-2.3 11.69-2.17 16.12.39 2.62 1.48 3.78 3.49 3.52 5.44m-6.08 3.59a1.56 1.56 0 0 0 1.41 0c4-2.3 3.94-6 0-8.33a1.56 1.56 0 0 0-1.41 0 .43.43 0 0 0 0 .82c1.6.93 2.4 2.14 2.41 3.35s-.78 2.42-2.37 3.35a.43.43 0 0 0 0 .82" class="cls-34"/><path d="M176.25 79.21c.72.42.73 1.09 0 1.5a2.85 2.85 0 0 1-2.6 0 .79.79 0 0 1 0-1.5 2.85 2.85 0 0 1 2.6 0" class="cls-36"/></g><path d="M172.35 77c.72.42.73 1.09 0 1.5a2.85 2.85 0 0 1-2.6 0 .79.79 0 0 1 0-1.5 2.85 2.85 0 0 1 2.6 0" class="cls-30"/></g></g></g></svg>