<svg xmlns="http://www.w3.org/2000/svg" width="325.8" height="90.6" fill="#102b7a"><path d="M317 65.2c5 0 8.7-3.2 8.7-8.3v-2.5c0-5.1-4-8.1-6.9-11.1s-5.1-4.5-5.1-7.1V35c0-3 1.5-4.3 3.3-4.3s3.3 1.3 3.3 4.3v1.2c0 .5.3.8.8.8h3.8c.5 0 .8-.3.8-.8v-2.5c0-5.1-3.7-8.3-8.7-8.3s-8.7 3.2-8.7 8.3v2.5c0 5.1 4 8.1 6.9 11.1s5.1 4.5 5.1 7.1v1.2c0 3-1.5 4.3-3.3 4.3s-3.3-1.3-3.3-4.3v-1.2c0-.5-.3-.8-.8-.8h-3.8c-.5 0-.8.3-.8.8v2.5c0 5 3.8 8.3 8.7 8.3M290.9 44c-.5 0-.8-.3-.8-.8V31.7c0-.5.3-.8.8-.8h2.6c1.9 0 3.3 1.3 3.3 4.3v4.4c0 3-1.4 4.3-3.3 4.3h-2.6zm-5.4 20.9h3.8c.5 0 .8-.3.8-.8V50c0-.5.3-.8.8-.8h2.3c.5 0 .7.3.8.8l2.6 14.1c.2.8.5.8 1.1.8h3.5c.4 0 .8-.3.6-1.1l-2.9-15.5c-.1-.5.1-.7.4-1 1.8-1.5 2.9-3.7 2.9-6.4V34c0-5.1-3.7-8.3-8.7-8.3h-7.9c-.5 0-.8.3-.8.8v37.6c0 .5.3.8.7.8m-20.7 0h11.6c.5 0 .8-.3.8-.8v-3.3c0-.5-.3-.8-.8-.8h-6.2c-.5 0-.8-.3-.8-.8V48.3c0-.5.3-.8.8-.8h6.2c.5 0 .8-.3.8-.8v-3.3c0-.5-.3-.8-.8-.8h-6.2c-.5 0-.8-.3-.8-.8V31.4c0-.5.3-.8.8-.8h6.2c.5 0 .8-.3.8-.8v-3.3c0-.5-.3-.8-.8-.8h-11.6c-.5 0-.8.3-.8.8v37.6c0 .5.3.8.8.8m-18.4-18.8c-.5 0-.8-.3-.8-.8V31.7c0-.5.3-.8.8-.8h2.6c1.9 0 3.3 1.3 3.3 4.3v6.5c0 3-1.4 4.3-3.3 4.3h-2.6zM241 64.9h3.8c.5 0 .8-.3.8-.8v-12c0-.5.3-.8.8-.8h2.6c5 0 8.7-3.2 8.7-8.3v-9c0-5.1-3.7-8.3-8.7-8.3h-8c-.5 0-.8.3-.8.8v37.6c0 .5.3.8.8.8M199.8 44c-.5 0-.8-.3-.8-.8V31.7c0-.5.3-.8.8-.8h2.6c1.9 0 3.3 1.3 3.3 4.3v4.4c0 3-1.4 4.3-3.3 4.3h-2.6zm-5.4 20.9h3.8c.5 0 .8-.3.8-.8V50c0-.5.3-.8.8-.8h2.3c.5 0 .7.3.8.8l2.6 14.1c.2.8.5.8 1.1.8h3.5c.4 0 .8-.3.6-1.1l-2.9-15.5c-.1-.5.1-.7.4-1 1.8-1.5 2.9-3.7 2.9-6.4V34c0-5.1-3.7-8.3-8.7-8.3h-7.9c-.5 0-.8.3-.8.8v37.6c0 .5.3.8.7.8m-16.8.3c5 0 8.7-3.2 8.7-8.3v-4.3c0-.5-.3-.8-.8-.8h-3.8c-.5 0-.8.3-.8.8v3c0 3-1.5 4.3-3.3 4.3-1.9 0-3.3-1.3-3.3-4.3V35c0-3 1.4-4.3 3.3-4.3 1.8 0 3.3 1.3 3.3 4.3v3c0 .5.3.8.8.8h3.8c.5 0 .8-.3.8-.8v-4.3c0-5.1-3.7-8.3-8.7-8.3s-8.7 3.2-8.7 8.3v23.1c0 5.1 3.8 8.4 8.7 8.4m-24 0c5 0 8.7-3.2 8.7-8.3v-2.5c0-5.1-4-8.1-6.9-11.1s-5.1-4.5-5.1-7.1V35c0-3 1.5-4.3 3.3-4.3s3.3 1.3 3.3 4.3v1.2c0 .5.3.8.8.8h3.8c.5 0 .8-.3.8-.8v-2.5c0-5.1-3.7-8.3-8.7-8.3s-8.7 3.2-8.7 8.3v2.5c0 5.1 4 8.1 6.9 11.1s5.1 4.5 5.1 7.1v1.2c0 3-1.5 4.3-3.3 4.3s-3.3-1.3-3.3-4.3v-1.2c0-.5-.3-.8-.8-.8h-3.8c-.5 0-.8.3-.8.8v2.5c0 5 3.7 8.3 8.7 8.3m-23.7-.3h4.1c.5 0 .8-.3.8-.8V50.9c0-.2.1-.5.1-.7l5.9-23.7c.1-.5-.1-.8-.5-.8h-3.8c-.5 0-.9.3-1 .8l-3.2 14.4c-.1.3-.5.3-.5 0l-3.2-14.4c-.1-.5-.5-.8-1-.8h-3.8c-.5 0-.7.3-.5.8l5.9 23.7c.1.2.1.5.1.7v13.3c-.2.4.1.7.6.7m-27.6 0h3.8c.5 0 .8-.3.8-.8v-8.8c0-.4.1-.9.3-1.3l1.5-3.9c.2-.4.6-.4.7 0l3.8 14c.2.5.4.8.8.8h3.9c.5 0 .7-.3.6-.8l-5.9-21.9c-.1-.4-.1-.8.1-1.1l5.4-14.5c.2-.5-.1-.8-.5-.8h-3.9c-.5 0-.7.3-.9.8L107.7 40c-.2.6-.7.4-.7-.1V26.5c0-.5-.3-.8-.8-.8h-3.8c-.5 0-.8.3-.8.8v37.6c-.1.5.2.8.7.8m-16.6.3c5 0 8.7-3.2 8.7-8.3v-2.5c0-5.1-4-8.1-6.9-11.1s-5.1-4.5-5.1-7.1V35c0-3 1.5-4.3 3.3-4.3S89 32 89 35v1.2c0 .5.3.8.8.8h3.8c.5 0 .8-.3.8-.8v-2.5c0-5.1-3.7-8.3-8.7-8.3S77 28.6 77 33.7v2.5c0 5.1 4 8.1 6.9 11.1s5.1 4.5 5.1 7.1v1.2c0 3-1.5 4.3-3.3 4.3s-3.3-1.3-3.3-4.3v-1.2c0-.5-.3-.8-.8-.8h-3.8c-.5 0-.8.3-.8.8v2.5c-.1 5 3.7 8.3 8.7 8.3m136.7-6.5c-.4 0-.5-.2-.4-.6l2.6-17.8c.1-.3.5-.3.5 0l2.7 17.8c.1.4-.1.6-.4.6 0 0-1.4-.3-2.5-.3-1.2.1-2.5.3-2.5.3m-6 6.3s4.3-1 8.4-1 8.6 1.2 8.6 1.2c.5 0 .8-.3.7-.9l-6.5-37.6c-.2-.8-.3-.9-1.1-.9h-3c-.8 0-1 .2-1.1.9l-6.5 37.5c-.3.6 0 .8.5.8m-157.1.3h11.9v12H59.3zm-23.7 0h11.9v25.3H35.6zm-23.7 0h11.9v18.1H11.9zM0 38v27.3h11.9V26.2c0-1-.7-.6-.9-.3L.7 36.2S0 36.9 0 38"/><path d="M23.7 12.4v53h11.9V.6c0-1-.7-.6-.9-.3L24.4 10.6s-.7.7-.7 1.8m23.7 14.5v38.4h11.9V15.1c0-1-.7-.6-.9-.3L48.1 25.1s-.7.7-.7 1.8"/></svg>