<svg xmlns="http://www.w3.org/2000/svg" viewBox="0 0 500 500"><defs><radialGradient id="radial-gradient" cx="250" cy="250" r="250" gradientUnits="userSpaceOnUse"><stop offset=".11" stop-color="#5757c2" stop-opacity="0"/><stop offset=".21" stop-color="#5151ac" stop-opacity=".12"/><stop offset=".41" stop-color="#474787" stop-opacity=".32"/><stop offset=".53" stop-color="#434379" stop-opacity=".4"/><stop offset="1" stop-color="#34346e" stop-opacity=".7"/></radialGradient><style>.cls-1{fill:#5757a0}.cls-18,.cls-3{fill:#78cbc4}.cls-6{fill:#5a9792}.cls-5{fill:#f5debd}.cls-10{fill:#fff}.cls-20,.cls-22{stroke-miterlimit:10}.cls-8{fill:#2f2f53}.cls-11{fill:#ecb6ba}.cls-12{fill:#483d36}.cls-16,.cls-17,.cls-20,.cls-22{fill:none}.cls-15{fill:#77c5ca}.cls-16,.cls-17,.cls-20{stroke:#fff}.cls-16,.cls-17{stroke-linecap:round;stroke-linejoin:round}.cls-16{stroke-width:2.6px}.cls-17{stroke-width:3.29px}.cls-18{font-size:29px;font-family:Neris-Black,Neris Black}.cls-20{stroke-width:2px}.cls-22{stroke:#434379;stroke-dasharray:4 3}.cls-23{fill:#434379}</style></defs><g id="Layer_2" data-name="Layer 2"><g id="BACKGROUND_1" data-name="BACKGROUND 1"><path d="M0 0h500v500H0z" class="cls-1"/><path d="M0 0h500v500H0z" style="opacity:.7;fill:url(#radial-gradient)"/><path d="M313.27 293 257 277.73c-1.54 1.86-4 11.88-7.31 11.88s-5.76-10-7.3-11.88L186.75 293c-29.17 0-29.37 24.75-29.37 47.18L155 367.67h190l-2.41-27.47c.03-22.43-.16-47.2-29.32-47.2" class="cls-3"/><path d="M259 293.37c13 10.11 33.44 14.43 35.09 33.9.4 4.68.65 10.09-1 14.6a19.64 19.64 0 0 1-7.11 9c-4.67 3.51-9.06 6.81-10.65 12.75-.26 1-.44 3-.6 4H345l-2.41-27.47c0-22.43-.19-47.18-29.36-47.18L257 277.73c-1 1.23-2.43 6.07-4.25 9.18a32.8 32.8 0 0 0 6.25 6.46" style="fill:#5a9792;opacity:.3"/><path d="M193.05 367.67H154l2.89-29.26h36.16zM306.95 367.67H346l-2.89-29.26h-36.16z" class="cls-5"/><path d="M222.13 283.93c3.37 14.81 17.18 22.6 31.67 20.89 12.52-1.48 21.54-8.25 24.08-20.89.88-4.4-5.86-6.28-6.75-1.86-1.87 9.31-7.55 14.3-16.92 15.69-11.6 1.73-22.59-3.66-25.33-15.69-1-4.39-7.75-2.53-6.75 1.86M155.59 340.82h38.31c4.5 0 4.51-7 0-7h-38.31c-4.5 0-4.51 7 0 7M306.1 340.82h39.3c4.5 0 4.51-7 0-7h-39.3c-4.5 0-4.51 7 0 7" class="cls-6"/><path d="M222.85 337c15.23-13.91 38.15-14.85 54.3 0-11.26 16.56-42.38 15.89-54.3 0" style="fill:#fff;stroke:#5a9792;stroke-linecap:square;stroke-width:5px;stroke-miterlimit:10"/><path d="M250 344.75c10 0 10-15 0-15s-10 15 0 15" class="cls-3"/><path d="M250 340.75c4.67 0 4.67-7 0-7s-4.67 7 0 7" class="cls-8"/><path d="M230.23 322c1.4 2.41 3.24 4.62 4.87 6.88.94 1.29 3.11 0 2.16-1.26-1.63-2.25-3.47-4.47-4.87-6.87a1.25 1.25 0 0 0-2.16 1.26ZM242.48 318.71 244 327c.29 1.58 2.7.91 2.41-.66l-1.5-8.25c-.29-1.58-2.7-.91-2.41.66ZM255.11 317.29l-1.11 8.25c-.21 1.57 2.19 2.25 2.41.66l1.13-8.25c.21-1.57-2.19-2.25-2.41-.66ZM267.48 320l-2.87 7.75c-.56 1.51 1.86 2.16 2.41.66l2.87-7.75c.56-1.51-1.86-2.16-2.41-.66" class="cls-6"/><path d="M270.75 281.41c0 12.62-9.29 16.3-20.75 16.3s-20.75-3.68-20.75-16.3l2.18-23.74c0-12.62 7.1-22.85 18.56-22.85s18.56 10.23 18.56 22.85Z" style="fill:#dfcdad"/><path d="M294.91 222.18c0 18.07-3.07 22-11.57 30.87s-20.24 15.61-33.2 15.61-24.7-6.73-33.2-15.61-11.58-12.8-11.58-30.87-6.85-42.71 0-58.11 25.11-28.64 44.82-28.64c19.08 0 37.37 13.25 44.34 28.64s.39 40.04.39 58.11" class="cls-5"/><path d="m207 230.1-5.09.78c-4 .61-7.87-3.61-8.62-9.41-.76-5.8 1.88-11 5.89-11.6l7.28-.78M293.56 209.09l7.28.78c4 .61 6.64 5.8 5.89 11.6-.76 5.8-4.62 10-8.62 9.41l-5.11-.78" class="cls-5"/><path d="M269.95 233.65c0 9.65-8.93 17.47-19.95 17.47s-20-7.82-20-17.47" class="cls-10"/><path d="M255.68 222.8a5.68 5.68 0 0 1-5.68 5.68 5.68 5.68 0 0 1-5.68-5.68v-18.74a5.68 5.68 0 0 1 5.68-5.68 5.68 5.68 0 0 1 5.68 5.68ZM219.55 237.44c6.77 0 6.77-10.5 0-10.5s-6.77 10.5 0 10.5M280.45 237.44c6.77 0 6.77-10.5 0-10.5s-6.77 10.5 0 10.5" class="cls-11"/><path d="M216.79 162.84c16.1 12.6 47.9 13.1 67.5 8.2 10.5-2.8 18.9-6.3 21-16.8 1.4-8.4-.7-21.7-9.8-23.8 0 14-24.66-7.44-41.3-8.6-18.21-1.26-32.9 3-35.7 22.6-31.5-2.8-28 51.8-13.3 66.5 6.3-16.8 9.1-44.1 25.2-55.3" class="cls-12"/><path d="M283 166.74c7.34 15.15 9.7 30.9 10.4 45.6 12.6-11.9 18.9-50.4.7-60.9" class="cls-12"/><path d="M232.9 148.62c.31.5.61 1 .93 1.49s.66.92 1 1.35a16 16 0 0 0 2.47 2.32 17 17 0 0 0 1.39 1 13 13 0 0 0 1.46.84 14 14 0 0 0 1.52.72c.51.23 1 .44 1.57.63s1.06.37 1.61.53 1.08.31 1.64.44 1.1.27 1.66.37 1.11.22 1.68.3c1.12.19 2.25.31 3.39.41s2.28.19 3.42.24c2.29.09 4.59.07 6.89 0 1.15 0 2.3-.06 3.45-.12l3.46-.18c2.31-.13 4.62-.34 6.93-.59s4.62-.54 6.92-.94v1.1c-.85-.25-1.72-.48-2.59-.67s-1.76-.35-2.66-.5c-1.78-.33-3.58-.57-5.37-1-.9-.19-1.8-.39-2.68-.67-.45-.12-.88-.29-1.32-.45s-.86-.37-1.3-.55a13 13 0 0 1-1.25-.67c-.42-.23-.79-.55-1.18-.83s-.71-.65-1.07-1-.62-.75-.93-1.13a.74.74 0 0 1 .66-1.21h.11c2.76.32 5.54.54 8.3.64a71 71 0 0 0 8.25 0 33.3 33.3 0 0 0 7.92-1.28c.62-.2 1.22-.43 1.8-.68a13 13 0 0 0 1.63-.89 7.8 7.8 0 0 0 1.37-1.11 7.3 7.3 0 0 0 1-1.32l1.51 2.39-3 .14c-1 .07-2 0-3-.06a23 23 0 0 1-3-.29l-1.51-.2-1.49-.31-1.48-.31c-.49-.12-1-.27-1.46-.4-1-.26-1.94-.56-2.87-.91s-1.89-.67-2.8-1.06-1.84-.74-2.74-1.16c-1.81-.8-3.57-1.66-5.33-2.5s-3.5-1.69-5.28-2.44c-.88-.41-1.79-.7-2.69-1.06s-1.82-.61-2.74-.92-1.87-.47-2.81-.71l-2.87-.48a.15.15 0 0 1 0-.3c1 0 2 0 3 .07s2 .21 3 .38 2 .34 2.91.62 1.93.51 2.86.84c1.89.61 3.74 1.3 5.57 2s3.63 1.46 5.44 2.12q1.36.52 2.71 1c.9.33 1.81.61 2.73.88s1.83.52 2.75.74c.46.11.92.24 1.38.34l1.39.25 1.39.26 1.4.15c.93.1 1.87.21 2.81.23s1.87.13 2.82.06l2.82-.12h.11a1.57 1.57 0 0 1 1.4 2.4 9.4 9.4 0 0 1-1.58 2 11 11 0 0 1-1.93 1.48 16 16 0 0 1-2.09 1.05 22 22 0 0 1-2.15.73 29 29 0 0 1-4.33.84q-2.17.26-4.32.3a71 71 0 0 1-8.53-.44c-2.82-.33-5.6-.8-8.37-1.32l.76-1.19.73 1c.29.3.56.63.87.92s.63.57 1 .8a11 11 0 0 0 1.09.69 10 10 0 0 0 1.17.57c.41.17.81.35 1.23.47a22 22 0 0 0 2.57.73c1.75.39 3.53.69 5.32 1s3.6.58 5.39 1a.56.56 0 0 1 0 1.09c-2.29.52-4.57 1.06-6.88 1.51s-4.63.86-7 1.2c-1.17.17-2.34.33-3.52.42s-2.36.21-3.54.25-2.37.07-3.56.07-2.38-.06-3.56-.14a49 49 0 0 1-7.1-.93c-.59-.11-1.17-.25-1.76-.4s-1.17-.29-1.74-.49-1.15-.37-1.71-.59-1.13-.43-1.68-.69a15 15 0 0 1-1.63-.8 15 15 0 0 1-1.56-.93 15 15 0 0 1-1.48-1.06 13 13 0 0 1-1.37-1.2 17.2 17.2 0 0 1-2.3-2.79c-.33-.5-.61-1-.9-1.57s-.44-1.09-.66-1.63a.15.15 0 0 1 .08-.2.2.2 0 0 1 .03.02" style="fill:#5e4f44"/><path d="M201.63 208.17a4.63 4.63 0 0 1-4.63 4.63 4.63 4.63 0 0 1-4.63-4.63V196a4.63 4.63 0 0 1 4.63-4.63 4.63 4.63 0 0 1 4.63 4.63ZM307.63 208.17a4.63 4.63 0 0 1-4.63 4.63 4.63 4.63 0 0 1-4.63-4.63V196a4.63 4.63 0 0 1 4.63-4.63 4.63 4.63 0 0 1 4.63 4.63Z" class="cls-8"/><path d="M302.68 202a19.06 19.06 0 0 1-19.07 19h-67.23a19.06 19.06 0 0 1-19.06-19 19.06 19.06 0 0 1 19.06-19.06h67.23A19.06 19.06 0 0 1 302.68 202" class="cls-8"/><path d="M296.88 202c0 8.21-7.6 14.87-17 14.87h-59.8c-9.37 0-17-6.66-17-14.87s7.59-14.87 17-14.87h59.83c9.37 0 17 6.66 17 14.87Z" class="cls-1"/><path d="M96.33 191.24c-9.6-6.11-21.15-30.8-5.15-36.91 10.14-4.07 18 3.16 18 12.33 0 8.15-5.66 16.82-12.86 24.58" class="cls-3"/><path d="M96.6 160.07c-7.6-.63-7.6 10.08-1.09 10.71 7.05 1.26 8.69-9.45 1.09-10.71" class="cls-10"/><circle cx="383.42" cy="291.11" r="5.32" class="cls-15"/><path d="M381.4 293.88h4.04v5.68h-4.04z" class="cls-15"/><path d="M390.14 310.94a3.78 3.78 0 0 1-3.94 3.59h-5.57a3.77 3.77 0 0 1-3.94-3.59v-10c0-2 1.09-3.59 3.26-3.59h6.92c2.17 0 3.27 1.6 3.27 3.59Z" class="cls-15"/><path d="M382.51 325.56a2.11 2.11 0 0 1-2.12 2.12 2.12 2.12 0 0 1-2.11-2.12v-11.63a2.12 2.12 0 0 1 2.11-2.12 2.11 2.11 0 0 1 2.12 2.12ZM388.56 325.56a2.12 2.12 0 0 1-2.12 2.12 2.12 2.12 0 0 1-2.11-2.12v-11.63a2.12 2.12 0 0 1 2.11-2.12 2.12 2.12 0 0 1 2.12 2.12ZM396.5 306.91a1.84 1.84 0 0 1-.21 2.59 1.84 1.84 0 0 1-2.59-.21l-6.55-7.72a1.84 1.84 0 0 1 .21-2.59 1.84 1.84 0 0 1 2.59.21ZM370.33 306.91a1.83 1.83 0 0 0 .21 2.59 1.84 1.84 0 0 0 2.59-.21l6.55-7.72a1.84 1.84 0 0 0-.21-2.59 1.84 1.84 0 0 0-2.59.21Z" class="cls-15"/><circle cx="413.35" cy="291.11" r="5.32" class="cls-10"/><path d="M411.33 293.88h4.04v5.68h-4.04z" class="cls-10"/><path d="M420.07 310.94a3.77 3.77 0 0 1-3.94 3.59h-5.57a3.78 3.78 0 0 1-3.94-3.59v-10c0-2 1.09-3.59 3.27-3.59h6.92c2.18 0 3.26 1.6 3.26 3.59Z" class="cls-10"/><path d="M412.44 325.56a2.12 2.12 0 0 1-2.12 2.12 2.12 2.12 0 0 1-2.11-2.12v-11.63a2.12 2.12 0 0 1 2.11-2.12 2.12 2.12 0 0 1 2.12 2.12ZM418.49 325.56a2.12 2.12 0 0 1-2.12 2.12 2.12 2.12 0 0 1-2.12-2.12v-11.63a2.12 2.12 0 0 1 2.12-2.12 2.12 2.12 0 0 1 2.12 2.12ZM426.44 306.91a1.84 1.84 0 0 1-.21 2.59 1.84 1.84 0 0 1-2.59-.21l-6.55-7.72a1.84 1.84 0 0 1 .21-2.59 1.84 1.84 0 0 1 2.59.21ZM400.27 306.91a1.84 1.84 0 0 0 .21 2.59 1.84 1.84 0 0 0 2.59-.21l6.55-7.72a1.84 1.84 0 0 0-.21-2.59 1.84 1.84 0 0 0-2.59.21Z" class="cls-10"/><circle cx="370.5" cy="156.37" r="21.61" class="cls-16"/><path d="M387.18 142.87c-10.28 4.22-23 5.13-33.33-.15M387.18 169.87c-10.28-4.22-23-5.13-33.33.15" class="cls-16"/><ellipse cx="370.5" cy="156.37" class="cls-16" rx="11.6" ry="21.61"/><path d="M370.5 134.76v43.22M348.88 156.37h43.23" class="cls-16"/><path d="M125.67 312.18a7 7 0 0 1-4.75 8.72l-23.22 6.86A7 7 0 0 1 89 323l-15.58-52.67a7 7 0 0 1 4.74-8.72l23.23-6.86a7 7 0 0 1 8.72 4.75Z" class="cls-3"/><path d="m77.253 272.478 30.776-9.088 13.295 45.029-30.776 9.087zM103.24 258.93a1.61 1.61 0 0 1-1.09 2l-21.28 6.28a1.61 1.61 0 0 1-2-1.09 1.61 1.61 0 0 1 1.09-2l21.28-6.28a1.61 1.61 0 0 1 2 1.09" class="cls-10"/><ellipse cx="107.47" cy="318.1" class="cls-10" rx="3.59" ry="3.1" transform="rotate(-16.45 107.461 318.063)"/><path d="M161.56 95.17h38.59v29.88h-38.59zM200.14 95.17l-19.41 20.09M161.56 95.17l19.17 20.09M186.18 109.63l13.96 15.42M175.18 109.45l-13.62 15.6" class="cls-17"/><path d="m408.08 249-12.12-18.5 2.38-1.56 12.12 18.48z" class="cls-10"/><path d="m386.11 212.88 5.86 30.09 6.01-11.99 13.39-.73z" class="cls-10"/><text class="cls-18" transform="translate(285.94 109.35)">360<tspan x="44.63" y="-13" style="font-size:13px">0</tspan></text><path d="M130.13 199.17h24.2v24.2h-24.2z" class="cls-20"/><path d="M142.23 186.52h24.2v24.2h-24.2zM130.13 199.17l12.1-12.65M154.34 198.62l12.1-12.1M154.34 223.37l12.1-12.65M130.13 223.37l12.1-12.65" class="cls-20"/><ellipse cx="340.2" cy="252" rx="23" ry="18.96" style="stroke-miterlimit:10;fill:none;stroke:#fff;stroke-width:1.94px"/><path d="M330.57 254.91c3.74 0 3.75-5.82 0-5.82s-3.75 5.82 0 5.82M340.2 254.91c3.74 0 3.75-5.82 0-5.82s-3.75 5.82 0 5.82M349.84 254.91c3.74 0 3.75-5.82 0-5.82s-3.75 5.82 0 5.82" class="cls-10"/><text class="cls-18" transform="translate(134.16 272.39)">VR</text><path d="M187.33 168.33C178 157 165.67 153 151.67 153c-13.33 0-19.53 4.37-30.67 11" class="cls-22"/><circle cx="121" cy="164" r="3.76" class="cls-23" transform="rotate(-30.77 121.018 164.01)"/><path d="M316 220c16.67-2.67 38.67-13.33 40-32.67" class="cls-22"/><circle cx="356" cy="187.33" r="3.76" class="cls-23" transform="rotate(-86.05 356.02 187.33)"/><path d="M217 129.67c1.33-30 28-28.67 52-28.67" class="cls-22"/><circle cx="269" cy="101" r="3.76" class="cls-23"/><path d="M353.67 355c12.67 2 36-2.67 38-18" class="cls-22"/><circle cx="391.67" cy="337" r="3.76" class="cls-23" transform="rotate(-82.57 391.658 337)"/><path d="M149.67 352.33C134.33 355 118.33 349 115 333" class="cls-22"/><circle cx="115" cy="333" r="3.76" class="cls-23" transform="rotate(-11.77 114.919 332.852)"/><path d="M210.33 281c-1.33-14.67-14.67-20.67-28.67-21.33" class="cls-22"/><circle cx="181.67" cy="259.67" r="3.76" class="cls-23" transform="rotate(-87.28 181.652 259.665)"/><path d="m225.51 187 14.71.08-7.68 29.77-13.98.08zM249.95 216.88l-9.37.05 6.96-29.93 9.92.05" class="cls-10"/></g></g></svg>