<svg xmlns="http://www.w3.org/2000/svg" xmlns:xlink="http://www.w3.org/1999/xlink" viewBox="0 0 406.33 516.89"><defs><linearGradient id="Gradient_bez_nazwy_17" x1="207" x2="229.23" y1="152.08" y2="322.11" gradientUnits="userSpaceOnUse"><stop offset="0" stop-color="#0ff"/><stop offset=".37" stop-color="#0071bc"/><stop offset=".76" stop-color="#9e005d"/><stop offset="1" stop-color="#ed1e79"/></linearGradient><linearGradient xlink:href="#Gradient_bez_nazwy_17" id="Gradient_bez_nazwy_17-2" x1="324" x2="105.44" y1="292.44" y2="91.66"/><linearGradient id="Gradient_bez_nazwy_16" x1="223.73" x2="205.39" y1="246.36" y2="191.2" gradientUnits="userSpaceOnUse"><stop offset="0" stop-color="#3301a0"/><stop offset="1" stop-color="#6a01a0"/></linearGradient><linearGradient id="Gradient_bez_nazwy_10" x1="192.53" x2="195.03" y1="319.66" y2="243.16" gradientUnits="userSpaceOnUse"><stop offset="0" stop-color="#f7631e"/><stop offset="1" stop-color="#febc66"/></linearGradient><linearGradient id="Gradient_bez_nazwy_21" x1="211.3" x2="154.55" y1="186.54" y2="87.04" gradientUnits="userSpaceOnUse"><stop offset="0" stop-color="#0ff"/><stop offset="1" stop-color="#9e005d"/></linearGradient><linearGradient id="Gradient_bez_nazwy_114" x1="183.08" x2="140.41" y1="196.81" y2="192.14" gradientUnits="userSpaceOnUse"><stop offset="0" stop-color="#0ff"/><stop offset=".69" stop-color="#9e005d"/><stop offset="1" stop-color="#ed1e79"/></linearGradient><linearGradient xlink:href="#Gradient_bez_nazwy_114" id="Gradient_bez_nazwy_114-2" x1="291.28" x2="343.78" y1="177.38" y2="93.38" gradientTransform="rotate(67.83 300.982 161.906)"/><linearGradient xlink:href="#Gradient_bez_nazwy_114" id="Gradient_bez_nazwy_114-3" x1="128.7" x2="224.7" y1="271.72" y2="173.05" gradientTransform="rotate(17.35 160.15 239.307)"/><style>.cls-4{fill:#e0e0e2}.cls-9{opacity:.2}.cls-10{fill:#eeedf3}.cls-11{fill:#ff3131}.cls-13{fill:#010080}.cls-14{fill:#f8b7b0}.cls-18{fill:#4003a9}.cls-23{mix-blend-mode:multiply;fill:#3f3f3f;opacity:.1}.cls-25{fill:#fff}.cls-26{fill:#e2e2e2}.cls-29{fill:#ed9e00}.cls-31{fill:#ffb6ea}</style></defs><g style="isolation:isolate"><g id="Layer_2" data-name="Layer 2"><g id="Objects"><path d="M253.29 124.27C243 119.69 203.57 102 157 115.3c-9.91 2.82-56.52 16.1-73 54.11-21.75 50.3 32.56 90.18 18.92 144.77-11.73 46.94-78 34.95-97.36 85.18-10.1 26.22-6.28 61.12 10.09 81.35 51.07 63.14 277.81 49.47 336.92-87.39 43.03-99.62-16.75-232.12-99.28-269.05" style="fill:#fcfaff"/><path d="M166 456.13c-11.31 0-21.54-1.76-30.23-5.42-24.87-10.45-46.46-40.93-50.23-70.9C82 351.49 97 332 111.62 313.1c14.43-18.7 28.07-36.36 21.87-60.85-6.94-27.39-26.71-44-45.83-60.1-21.27-17.89-41.36-34.78-43.92-65-2.39-28.2 12.13-59.1 40.9-87 16.77-16.24 46.74-36.37 94.21-39.8v.5-.5c46.36-3.35 100.75 17.2 145.51 55 47.18 39.81 76.83 92.95 81.34 145.79 3.33 39-6.38 78-28.86 115.93-19.49 32.9-47.93 63.49-82.25 88.46-44.5 32.35-92.19 50.6-128.59 50.6M188.81 1q-5 0-9.89.35C131.75 4.76 102 24.74 85.33 40.91c-28.55 27.7-43 58.32-40.6 86.21 2.53 29.76 22.46 46.52 43.57 64.27 19.24 16.18 39.14 32.92 46.16 60.62 6.32 25-7.46 42.81-22 61.71C98 332.43 83 351.77 86.54 379.69c3.73 29.64 25.06 59.78 49.62 70.1 17.9 7.52 42.62 7.07 71.47-1.29 28.46-8.25 58.32-23.4 86.37-43.81 75.5-54.94 116.88-131 110.7-203.5-4.48-52.58-34-105.47-81-145.11C282.3 21.14 232.62 1 188.81 1" style="fill:#e9e9ff"/><ellipse cx="190.95" cy="322.58" class="cls-4" rx="25.76" ry="3.25"/><path d="m269.08 170-62.24-23.11a3.63 3.63 0 0 0-4.66 2.15l-42 113.22a3.62 3.62 0 0 0 2.14 4.66l62.2 23.08a3.62 3.62 0 0 0 4.66-2.14l42-113.22a3.63 3.63 0 0 0-2.1-4.64" style="fill:url(#Gradient_bez_nazwy_17)"/><path d="M200.14 137.33c-4.33 1.8-21 8.75-30.3 26.72-2 3.82-11.28 21.79-4.43 37.67 9.07 21 36.74 15.91 49.43 35.68 10.92 17-11.7 33.73-2 54 5.08 10.58 16.79 19.4 27.63 20.22 33.82 2.54 94.55-70.32 69.85-127.46-17.93-41.61-75.32-61.35-110.18-46.83" style="fill:url(#Gradient_bez_nazwy_17-2)"/><path d="M234 305.23c-1 0-1.9 0-2.79-.07-17.56-.87-31.3-6.85-38.69-16.85-7.92-10.72-6.2-22.1-4.37-34.15 1.63-10.74 3.31-21.84-2.27-32.73-5-9.69-14.45-11.54-24.5-13.5-10.27-2-20.89-4.07-27.94-14.47-7.45-11-9.16-27.32-4-38 7.62-15.7 33.86-28.19 65.31-31.09 40.83-3.77 76.55 9.35 95.56 35.1 30.32 41.07 16.23 106.66-16.57 131.55l-.3-.4.3.4c-15.16 11.51-29.56 14.21-39.74 14.21m-25.58-180.49q-6.67 0-13.56.63c-31.11 2.87-57 15.14-64.5 30.53-5 10.38-3.36 26.28 3.91 37 6.82 10.1 17.23 12.1 27.3 14.1 10.29 2 20 3.9 25.2 14 5.72 11.18 4 22.44 2.36 33.34-1.8 11.84-3.49 23 4.19 33.41 7.21 9.75 20.68 15.59 37.93 16.44 10.07.5 25.51-1.52 41.89-13.94l.3.4-.3-.4c32.45-24.62 46.38-89.51 16.37-130.16-16.66-22.6-46.37-35.35-81.09-35.35" style="fill:#aaaae8;mix-blend-mode:color-dodge;opacity:.35"/><path d="M231.77 228q-2.35 0-4.76-.13c-24.18-1.33-43.91-12.08-52.79-28.77-14.16-26.61-.26-63.71 21.06-75.41 10.79-5.92 20.13-5.76 26.06-4.58 10.18 2 17.68 6.7 21.13 13.18 3.69 6.94 1.7 13.43-.41 20.31-1.88 6.14-3.83 12.49-1.51 19.36 2.07 6.12 7.47 8 13.18 10s11.84 4.18 15.06 10.86c3.4 7.05 3 16.73-1 22.51-5.26 7.79-19.41 12.67-36.02 12.67m-17.15-109a39.4 39.4 0 0 0-19.1 5.17c-21.12 11.59-34.89 48.36-20.86 74.74C183.45 215.38 203 226 227 227.35c18.46 1 34.68-3.92 40.39-12.29 3.85-5.64 4.25-15.1.92-22-3.13-6.49-9-8.58-14.77-10.6s-11.35-4-13.49-10.35c-2.37-7-.4-13.45 1.51-19.67 2.08-6.77 4-13.17.44-19.93-3.38-6.34-10.76-10.93-20.79-12.92a34 34 0 0 0-6.59-.65Zm-19.22 5" style="fill:#aaaae8;mix-blend-mode:color-dodge;opacity:.09"/><g class="cls-9"><path d="m254 164.37-6.88 4.62-60.2 40.41-9.54 6.41 13.12-35.36 9.55-6.4 21.61-14.51 6.88-4.62z" class="cls-10"/></g><g class="cls-9"><path d="m267.71 169.46-6.89 4.62-80.97 54.35v.01l-9.54 6.4 4.62-12.45v-.01l9.55-6.4v-.01l67.37-45.22 6.89-4.62z" class="cls-10"/></g><path d="m232.027 237.807 50.839-8.098 4.571 28.698-50.84 8.098z" class="cls-11"/><path d="m259.73 248.1 23.14-18.4-50.84 8.1z" style="fill:#ff7373"/><path d="M214.67 187.66c2-1.71 3.68-10.11-.71-8s-1 8.06-1 8.06Z" class="cls-13"/><path d="M215.86 205.88a8.18 8.18 0 0 0 7.76-1.81c.94-.93-1.54-2.29-2.35-3.45a3.13 3.13 0 0 1-.32-2.15 25 25 0 0 1 1.15-4.51l-8-2.46s-.24 4.13-.44 5.66a2.3 2.3 0 0 1-.19.7c-.42.92-1.44 1.2-3.15 2.26-2.03 1.29 1.56 4.71 5.54 5.76" class="cls-14"/><path d="M213.71 197.16a2 2 0 0 1-.05.28 4.76 4.76 0 0 0 2.6 1.83 7.37 7.37 0 0 0 4.78-1.47 31 31 0 0 1 1.06-3.84l-8-2.46s-.19 4.13-.39 5.66" style="fill:#e49f98"/><path d="M225 189.08c-.89 3.91-1.4 5.79-3.33 7.19a7.73 7.73 0 0 1-5.23 1.77c-1.78-.22-4.07-3.36-4.31-5.09a30.9 30.9 0 0 1 .76-10.6 6.44 6.44 0 0 1 6.4-4.13c2.79.35 7.88 1.32 5.71 10.86" class="cls-14"/><ellipse cx="212.75" cy="187.95" class="cls-14" rx="1.41" ry="2.7" transform="rotate(-5.4 212.894 188.132)"/><path d="m248.68 226.36-18.36 4.79-4.89-13.86s-3.82 23.23-4.56 25.91-1.4 2.77-2.55 2.57l-18.49-3.24c-1.27-.22-1.93-1.74-1.29-4.11.52-1.93 4.55-17.64 5.27-24.86a76.5 76.5 0 0 1-5.91 11l-17.41-6.64 1.92-5.34 12.14 3.33s4.1-8.45 8.65-13.45a17.1 17.1 0 0 1 7.61-3.83 13 13 0 0 1 1.79-.22 4.5 4.5 0 0 0 3.68 4c1.62.28 4.88-.25 5.34-1.93a9 9 0 0 1 1.87 1c2.33 1.55 3.82 2.07 4.85 4.11 1.66 3.28 6.73 17.93 6.73 17.93l13.82-3.1Z" style="fill:url(#Gradient_bez_nazwy_16)"/><path d="M207.36 315.28a12.6 12.6 0 0 0 5 4.23c2.71 1.42 8.39 2.66 5 3.47s-5.63.7-10.75-1c-2.15-.62-1.94-.72-4.25-.63s-4 .71-2.91-3.75 6.74-4.99 7.91-2.32M167.74 296.61c-.18.88-2.51 2.9-4.86 4.86s-5.09 3-3.23 4c3.22 1.74 4.81.22 9.45-2.52 2-1.06 1.87-.66 4-1.51 1.47-.58 2.71-1.35 2.05-4.28-.99-4.48-6.83-3.41-7.41-.55" class="cls-18"/><path d="M220.71 244.8s-2.57 17.87-4.31 28.59c-.2 1.21-.38 2.32-.55 3.28-.24 1.4-.44 2.49-.59 3.15-.26 1.18-.74 3.44-1.32 6.24-.21 1-.43 2.1-.67 3.24-1.91 9.34-4.39 21.86-4.51 23.47a26 26 0 0 0 0 3.66.31.31 0 0 1-.45.3l-2.54-1.17a.33.33 0 0 0-.24 0c-.82.31-5.56 2.07-6.25 2.88s.3-2.2.56-5.52c.2-2.47 3.17-17.36 5.08-26.71.24-1.18.46-2.27.66-3.24.39-1.9.68-3.33.82-4a46 46 0 0 0 .46-5.62c0-1.08.09-2.24.13-3.44.19-6.28.22-13.57.23-15a.32.32 0 0 0-.24-.3l-4.14-1.1a.26.26 0 0 0-.21 0c-1.06.52-10.57 5.18-15.13 9.1a7.9 7.9 0 0 0-2.26 2.66 2.4 2.4 0 0 0-.11.32c-.91 3.67-1.79 6.64-2.55 8.78-.27.78-.53 1.46-.78 2-.12.27-.27.62-.43 1-1.68 4.06-5.42 14.07-6.08 16-.42 1.21 0 2.07 0 3 0 1.44-2.32 2.09-3.53 1.51-.9-.43-2.71-1.65-3.77-1.44a.32.32 0 0 1-.4-.37c.68-2.83 3.18-13.14 5.44-21.77.29-1.09.57-2.16.85-3.18a87 87 0 0 1 2.76-9.06 14.2 14.2 0 0 1 2-2.77c5.48-6.48 19.15-18.61 19.15-18.61s.49-1.49 1.31-1.37c1.79.27 1.93.58 11 2.39 9.71 2.01 10.9 1.01 10.61 3.1" style="fill:url(#Gradient_bez_nazwy_10)"/><path d="M224.34 182.38c-5.41-.63-9.21-1.45-11-3.94s-.15-2.77 1.22-1.91a1.87 1.87 0 0 1 3-.85 3.46 3.46 0 0 1 4.77 1s3.71-1.11 4 1.79c-.01.03 2.78 4.47-1.99 3.91" class="cls-13"/><path d="M226.83 181.19c1.48 2.15 1.07 10.7-2.67 7.58s.51-7.43.51-7.43Z" class="cls-13"/><ellipse cx="225.06" cy="189.49" class="cls-14" rx="2.7" ry="1.41" transform="rotate(-60.62 225.07 189.492)"/><path d="M220.62 244.64 198 240.55a.26.26 0 0 1-.2-.34l.8-2.26a.26.26 0 0 1 .29-.17l22.29 3.9a.26.26 0 0 1 .21.3l-.43 2.45a.26.26 0 0 1-.34.21" class="cls-13"/><path d="M223.48 201.47a7.33 7.33 0 0 1-6.9 2.72 7.46 7.46 0 0 1-5.78-5.54 13 13 0 0 1 1.79-.22 4.5 4.5 0 0 0 3.68 4c1.62.28 4.88-.25 5.34-1.93a9 9 0 0 1 1.87.97" style="fill:#eefaff"/><path d="M228.17 181.18a1.19 1.19 0 0 0-.53-1.6l-1.08 2.13a1.19 1.19 0 0 0 1.61-.53M215.34 181.38a3.77 3.77 0 0 0 2.43-4.74l-7.17 2.31a3.77 3.77 0 0 0 4.74 2.43" class="cls-13"/><path d="M218.37 182.14a2.51 2.51 0 0 0 .21-3.54l-3.75 3.34a2.51 2.51 0 0 0 3.54.2M228 182.69a1.19 1.19 0 0 0 .94-1.4l-2.34.46a1.19 1.19 0 0 0 1.4.94" class="cls-13"/><path d="m269.08 170-1.37-.51-9-3.33-4.71-1.79-25.46-9.45-21.7-8.06a3.64 3.64 0 0 0-4.66 2.15l-11.68 31.44-13.12 35.36-2.45 6.57-4.62 12.45-10.17 27.38a3.8 3.8 0 0 0-.21 1 3.59 3.59 0 0 0 2.35 3.63l11.56 4.29 8.72 3.24 23 8.54 8.38 3.11 10.58 3.98a3.63 3.63 0 0 0 4.66-2.13l41.26-111.17.77-2.06a3.63 3.63 0 0 0-2.13-4.64m-5.92 7-.88 2.36-35.54 95.75a2 2 0 0 1-2.53 1.15l-7.81-2.9-9.43-3.5-19.49-7.24-8.92-3.31-7.11-2.64a1.94 1.94 0 0 1-1.27-1.76 1.8 1.8 0 0 1 .11-.76l9.56-25.74 4.63-12.41 2.44-6.57L200 174l6.67-18a2 2 0 0 1 2.52-1.15l12.42 4.61 25.51 9.54 4.73 1.76 9 3.33 1.18.44a1.94 1.94 0 0 1 1.13 2.47" class="cls-10"/><g style="mix-blend-mode:multiply"><path d="m204.9 286.19 8.37 3.11c.24-1.14.46-2.22.67-3.24l-8.38-3.11q-.3 1.455-.66 3.24M173 274.35l8.36 3.1c.16-.41.31-.76.43-1 .25-.55.51-1.23.78-2l-8.72-3.24c-.29.98-.57 2.05-.85 3.14" class="cls-4"/></g><path d="M191.64 273.78a3.41 3.41 0 0 1-2-4.38 3.41 3.41 0 0 1 4.38-2 3.41 3.41 0 0 1 2 4.38 3.41 3.41 0 0 1-4.38 2" style="fill:#c8c7d9"/><path d="M177.64 215.09a5.5 5.5 0 0 0 3-.44c.67-.35 1.31-2.4 1.52-3.87s-1.68-1.28-1.68-1.28a9 9 0 0 1 1.94-.46c1.2-.16 1.68-1.54-.06-1.52s-3.44.85-5.05 4.16c0 0-1.66 3.07 0 4.4ZM256.86 217.8c0-1.16-2-3-2.56-2.28s-2.08 3.44-1.82 4.76a7.1 7.1 0 0 0 .93 2.31l-.38 1s3.79-.74 3.83-5.79" class="cls-14"/><path d="M225.62 131.67 150 137.93a3.32 3.32 0 0 0-3 3.58l1.83 22.14a3.32 3.32 0 0 0 3.58 3l7.46-.62 3.62-.3c.71.78 2.53 2.75 3.29 3.46a1.64 1.64 0 0 0 2.4-.2c.63-.83 2.1-3.07 2.67-4l18.39-1.52 37.76-3.05a3.32 3.32 0 0 0 3-3.58l-1.8-22.14a3.32 3.32 0 0 0-3.58-3.03" class="cls-23"/><rect width="27.74" height="27.74" x="251.3" y="128.87" class="cls-23" rx="1.86" ry="1.86" transform="rotate(-83.18 265.152 142.745)"/><path d="M174.69 180.37a4.32 4.32 0 0 0-5.43-2.82l-27.82 8.81a4.32 4.32 0 0 0-2.82 5.43l5.74 18.11a4.32 4.32 0 0 0 5.43 2.82l2.72-.86s5.07 3.52 6.84 4.57a2.59 2.59 0 0 0 3.62-1.15c.85-1.88 3-7.68 3-7.68l11.68-3.7a4.32 4.32 0 0 0 2.82-5.43ZM268 188.58a1.33 1.33 0 0 0-2.42-.39l-2.51 4.08-1.41-5.92a2.23 2.23 0 0 0-2.68-1.65l-16.28 3.88a2.23 2.23 0 0 0-1.65 2.68l3.95 16.29a2.23 2.23 0 0 0 2.68 1.65l16.28-3.88a2.23 2.23 0 0 0 1.65-2.68l-1.41-5.92 4.08 2.51a1.33 1.33 0 0 0 2-1.44ZM121.14 161.27a2.21 2.21 0 0 0-4.08.22l-5.25 14.85a2.21 2.21 0 0 0 3 2.73l10.05-4.8a2.21 2.21 0 0 0 1-2.95Z" class="cls-23"/><circle cx="128.38" cy="126.91" r="6.48" class="cls-23" transform="rotate(-17.58 128.401 126.928)"/><circle cx="301.79" cy="288.19" r="4.34" class="cls-23" transform="rotate(-53.1 301.81 288.197)"/><circle cx="295.11" cy="167.01" r="8.2" class="cls-23" transform="rotate(-67.83 295.14 167.015)"/><circle cx="165.19" cy="237.09" r="11.14" class="cls-23" transform="rotate(-17.35 165.138 237.028)"/><path d="M226.94 126.27 145.77 133a3.56 3.56 0 0 0-3.25 3.84l2 23.75a3.56 3.56 0 0 0 3.84 3.25l8-.66 3.88-.32c.77.83 2.72 3 3.53 3.72a1.76 1.76 0 0 0 2.57-.21c.67-.89 2.25-3.3 2.87-4.25l19.73-1.63 40.58-3.35a3.56 3.56 0 0 0 3.25-3.84l-2-23.75a3.56 3.56 0 0 0-3.83-3.28" style="fill:url(#Gradient_bez_nazwy_21)"/><path d="M162.29 147.87a3.9 3.9 0 0 0 1.06-3l-.16-1.93a4 4 0 0 0-4.13-3.76 3.93 3.93 0 0 0-3.71 4.25l.17 2.09a3.9 3.9 0 0 0 1.54 2.8 8.3 8.3 0 0 0-4.9 6.2 1.69 1.69 0 0 0 1.82 1.94l12.68-1a1.69 1.69 0 0 0 1.48-2.21 8.3 8.3 0 0 0-5.85-5.38M195 136.18l-16.18 1.34a2.41 2.41 0 0 0-2.2 2.6l.66 7.95a2.41 2.41 0 0 0 2.6 2.2l1.58-.13s2.31 2.54 3.15 3.32a1.44 1.44 0 0 0 2.1-.17c.69-.91 2.56-3.8 2.56-3.8l6.79-.56a2.41 2.41 0 0 0 2.2-2.6l-.66-7.95a2.41 2.41 0 0 0-2.6-2.2" class="cls-25"/><path d="M180.65 141.56a1 1 0 0 1-.08-2l13.12-1.08a1 1 0 1 1 .16 2l-13.12 1.08ZM180.94 145a1 1 0 0 1-.08-2l13.14-1.08a1 1 0 1 1 .16 2L181 145ZM181.22 148.44a1 1 0 0 1-.08-2l5.91-.49a1 1 0 1 1 .16 2l-5.91.49Z" class="cls-26"/><path d="M225.38 147.23a7.28 7.28 0 0 0-1.79-4.22l-.14-1.71a5.88 5.88 0 0 0-5.31-5.37v-.5a1 1 0 1 0-2.05.17v.5a5.88 5.88 0 0 0-4.36 6.16l.14 1.71a7.3 7.3 0 0 0-1.07 4.45l.06.74a.69.69 0 0 0 .74.63l2.9-.24a.58.58 0 0 0 .27.58 5.89 5.89 0 0 0 7-.57.58.58 0 0 0 .17-.61l2.9-.24a.69.69 0 0 0 .63-.74Z" class="cls-25"/><circle cx="209.85" cy="149.11" r="3.1" class="cls-11" transform="rotate(-4.73 209.588 148.966)"/><rect width="29.75" height="29.75" x="254.49" y="123.27" rx="2" ry="2" style="fill:#f8aa00" transform="rotate(-83.18 269.355 138.146)"/><rect width="24.23" height="24.23" x="257.25" y="126.03" rx="1.21" ry="1.21" style="fill:#fb3" transform="rotate(-83.18 269.355 138.146)"/><path d="m269.94 140.11-2.66 2.09a1.13 1.13 0 0 1-1.58-.19 1.13 1.13 0 0 0-1.58-.19l-3.94 3.1a1.13 1.13 0 0 0 .56 2l.46.06 9.28 1.11 5.22.62a1.13 1.13 0 0 0 1-1.82l-5.19-6.6a1.13 1.13 0 0 0-1.57-.18" class="cls-29"/><circle cx="263.18" cy="135.4" r="1.99" class="cls-29" transform="rotate(-83.18 263.173 135.41)"/><path d="m164.49 173.42-29.84 9.45a4.64 4.64 0 0 0-3 5.82l6.15 19.43a4.64 4.64 0 0 0 5.82 3l2.91-.92s5.44 3.78 7.34 4.9a2.78 2.78 0 0 0 3.88-1.23c.91-2 3.18-8.23 3.18-8.23l12.53-4a4.64 4.64 0 0 0 3-5.82l-6.15-19.43a4.64 4.64 0 0 0-5.82-2.97" style="fill:url(#Gradient_bez_nazwy_114)"/><path d="m164.58 183.5-24.19 7.66a1.5 1.5 0 1 1-.91-2.86l24.19-7.66a1.5 1.5 0 1 1 .91 2.86M166.74 190.33l-24.2 7.67a1.5 1.5 0 0 1-.91-2.86l24.19-7.66a1.5 1.5 0 0 1 .91 2.86ZM155.61 201.36l-10.91 3.45a1.5 1.5 0 1 1-.91-2.86l10.91-3.45a1.5 1.5 0 0 1 .91 2.86" class="cls-31"/><path d="m267.56 183.77-2.7 4.38-1.51-6.35a2.39 2.39 0 0 0-2.88-1.77L243 184.2a2.39 2.39 0 0 0-1.77 2.88l4.16 17.47a2.39 2.39 0 0 0 2.88 1.77l17.47-4.16a2.39 2.39 0 0 0 1.77-2.88l-1.51-6.35 4.38 2.7a1.43 1.43 0 0 0 2.13-1.54l-2.36-9.89a1.43 1.43 0 0 0-2.59-.43" style="fill:#ff3158"/><path d="m251.26 188.47 6.38 3.93-3.93 6.38" class="cls-25"/><path d="m120 168.8-5.15-10.8a2.37 2.37 0 0 0-4.37.23l-5.64 15.94a2.37 2.37 0 0 0 3.26 2.93l10.78-5.1a2.37 2.37 0 0 0 1.12-3.2" style="fill:#ff7d43"/><path d="m116.68 167-1.25-2 .08-.22a.52.52 0 1 0-1-.35l-1.75 4.94a3.5 3.5 0 0 0-1.32-.81c-1.33-.47-2.66-.15-3 .71s.52 1.95 1.85 2.42 2.62.16 2.95-.68l1.22-3.45.73 1.15a.61.61 0 0 0 1.1-.12l.37-1.06a.61.61 0 0 0 .02-.53" class="cls-25"/><circle cx="124.46" cy="122.91" r="6.95" class="cls-11" transform="matrix(.95 -.3 .3 .95 -31.31 43.34)"/><path d="M127.16 119.56a2.48 2.48 0 0 0-3.45 1 2.48 2.48 0 0 0-3.39 1.17 2.53 2.53 0 0 0 1.18 3.27l3.48 1.8a1 1 0 0 0 1.31-.41l1.8-3.48a2.53 2.53 0 0 0-.93-3.35" class="cls-25"/><circle cx="305.63" cy="291.16" r="4.66" class="cls-11" transform="rotate(-53.1 305.652 291.168)"/><path d="M308.51 291.33a50 50 0 0 0-3.85-2.89 1.69 1.69 0 0 0-1.33 1.91l.37 2.6a.65.65 0 0 0 .74.55l2.6-.37a1.69 1.69 0 0 0 1.47-1.8" class="cls-25"/><circle cx="300.97" cy="161.88" r="8.8" style="fill:url(#Gradient_bez_nazwy_114-2)" transform="rotate(-67.83 300.99 161.878)"/><path d="M304.17 157.33a1 1 0 0 0-1.36-.11 15.6 15.6 0 0 1-2.62 2.11l-.83-.34a.14.14 0 0 0-.18.07l-1.79 4.4a.14.14 0 0 0 .07.18l.62.25a2.37 2.37 0 0 0 1.47 1.93l.37.15 2.41 1 .54.22a1 1 0 0 0 1.24-1.27l.39.16a5.23 5.23 0 0 1 2.13-2 1 1 0 0 0-.53-1.25 1 1 0 0 0 0-1.78l-3.39-1.38c.84-.67 2.07-1.67 1.46-2.34" class="cls-25"/><rect width="5.55" height="1.91" x="294.17" y="159.75" class="cls-25" rx=".35" ry=".35" transform="rotate(-67.84 296.911 160.709)"/><circle cx="160.19" cy="239.36" r="11.95" style="fill:url(#Gradient_bez_nazwy_114-3)" transform="rotate(-17.35 160.128 239.315)"/><path d="M159.61 231.82a1.32 1.32 0 0 0-1.52 1.06 21 21 0 0 1-.93 4.47l-1.17.36a.19.19 0 0 0-.12.23l1.92 6.15a.19.19 0 0 0 .23.12l.87-.27a3.23 3.23 0 0 0 3.2.76l.51-.16 3.38-1.05.76-.24a1.3 1.3 0 0 0 .2-2.41l.54-.17a7.1 7.1 0 0 1 .55-3.89 1.31 1.31 0 0 0-1.64-.86 1.3 1.3 0 0 0-1.53-1.87l-4.75 1.48c.28-1.42.73-3.53-.5-3.71" class="cls-25"/><rect width="2.6" height="7.54" x="153.65" y="237.84" class="cls-25" rx=".47" ry=".47" transform="rotate(-17.35 154.893 241.534)"/></g></g></g></svg>