<svg xmlns="http://www.w3.org/2000/svg" xmlns:xlink="http://www.w3.org/1999/xlink" viewBox="0 0 366.92 406.47"><defs><linearGradient id="Degradado_sin_nombre_2" x1="207" x2="229.23" y1="255.49" y2="85.46" gradientTransform="matrix(1 0 0 -1 0 297.13)" gradientUnits="userSpaceOnUse"><stop offset="0" stop-color="#0ff"/><stop offset=".37" stop-color="#0071bc"/><stop offset=".76" stop-color="#9e005d"/><stop offset="1" stop-color="#ed1e79"/></linearGradient><linearGradient xlink:href="#Degradado_sin_nombre_2" id="Degradado_sin_nombre_2-2" x1="323.99" x2="105.43" y1="115.11" y2="315.89"/><linearGradient id="Degradado_sin_nombre_3" x1="223.73" x2="205.39" y1="161.21" y2="216.37" gradientTransform="matrix(1 0 0 -1 0 297.13)" gradientUnits="userSpaceOnUse"><stop offset="0" stop-color="#3301a0"/><stop offset="1" stop-color="#6a01a0"/></linearGradient><linearGradient id="Degradado_sin_nombre_4" x1="192.55" x2="195.05" y1="87.9" y2="164.4" gradientTransform="matrix(1 0 0 -1 0 297.13)" gradientUnits="userSpaceOnUse"><stop offset="0" stop-color="#f7631e"/><stop offset="1" stop-color="#febc66"/></linearGradient><linearGradient id="Degradado_sin_nombre_5" x1="211.31" x2="154.56" y1="221.03" y2="320.53" gradientTransform="matrix(1 0 0 -1 0 297.13)" gradientUnits="userSpaceOnUse"><stop offset="0" stop-color="#0ff"/><stop offset="1" stop-color="#9e005d"/></linearGradient><linearGradient id="Degradado_sin_nombre_8" x1="183.09" x2="140.42" y1="210.78" y2="215.45" gradientTransform="matrix(1 0 0 -1 0 297.13)" gradientUnits="userSpaceOnUse"><stop offset="0" stop-color="#0ff"/><stop offset=".69" stop-color="#9e005d"/><stop offset="1" stop-color="#ed1e79"/></linearGradient><linearGradient xlink:href="#Degradado_sin_nombre_8" id="Degradado_sin_nombre_8-2" x1="291.29" x2="343.79" y1="230.18" y2="314.18" gradientTransform="scale(1 -1)rotate(-67.8 79.746 96.658)"/><linearGradient xlink:href="#Degradado_sin_nombre_8" id="Degradado_sin_nombre_8-3" x1="128.71" x2="224.71" y1="135.84" y2="234.51" gradientTransform="matrix(.95 .3 .3 -.95 -42.88 241.7)"/><style>.cls-2{fill:#e0e0e2}.cls-20{isolation:isolate}.cls-7{opacity:.2}.cls-8{fill:#eeedf3}.cls-9{fill:#ff3131}.cls-11{fill:#010080}.cls-12{fill:#f8b7b0}.cls-16{fill:#4003a9}.cls-20{fill:#3f3f3f;opacity:.1}.cls-22{fill:#fff}.cls-23{fill:#e2e2e2}.cls-26{fill:#ed9e00}.cls-28{fill:#ffb6ea}</style></defs><g id="Capa_2" data-name="Capa 2"><g id="Capa_1-2" data-name="Capa 1"><g id="Layer_2" data-name="Layer 2"><g id="Objects"><path d="M253.29 13.84C243 9.26 203.57-8.43 157 4.87 147.09 7.69 100.48 21 84 59c-21.75 50.3 32.56 90.18 18.92 144.77-11.73 46.94-78 35-97.36 85.18-10.1 26.2-6.28 61.05 10.09 81.33 51.07 63.14 277.81 49.47 336.92-87.39 43.03-99.62-16.75-232.12-99.28-269.05" style="fill:#fcfaff"/><ellipse cx="190.95" cy="212.15" class="cls-2" rx="25.76" ry="3.25"/><path d="m269.08 59.57-62.24-23.11a3.63 3.63 0 0 0-4.66 2.15l-42 113.22a3.62 3.62 0 0 0 2.13 4.66l62.2 23.08a3.62 3.62 0 0 0 4.66-2.13l42-113.22a3.63 3.63 0 0 0-2.09-4.65" style="fill:url(#Degradado_sin_nombre_2)"/><path d="M200.14 26.9c-4.33 1.8-21 8.75-30.3 26.72-2 3.82-11.28 21.79-4.43 37.67 9.07 21 36.74 15.91 49.43 35.68 10.92 17-11.7 33.73-2 54 5.08 10.58 16.79 19.4 27.63 20.22 33.82 2.54 94.55-70.32 69.85-127.46C292.39 32.12 235 12.38 200.14 26.9" style="fill:url(#Degradado_sin_nombre_2-2)"/><path d="M234 194.8c-1 0-1.9 0-2.79-.07-17.56-.87-31.3-6.85-38.69-16.85-7.92-10.72-6.2-22.1-4.37-34.15 1.63-10.74 3.31-21.84-2.27-32.73-5-9.69-14.45-11.54-24.5-13.5-10.27-2-20.89-4.07-27.94-14.47-7.45-11-9.16-27.32-4-38 7.62-15.7 33.86-28.19 65.31-31.09 40.83-3.77 76.55 9.35 95.56 35.1 30.32 41.07 16.23 106.66-16.57 131.55l-.3-.4.3.4C258.58 192.1 244.18 194.8 234 194.8M208.42 14.31q-6.67 0-13.56.63c-31.11 2.87-57 15.14-64.5 30.53-5 10.38-3.36 26.28 3.91 37 6.82 10.1 17.23 12.1 27.3 14.1 10.29 2 20 3.9 25.2 14 5.72 11.18 4 22.44 2.36 33.34-1.8 11.84-3.49 23 4.19 33.41 7.21 9.75 20.68 15.59 37.93 16.44 10.07.5 25.51-1.52 41.89-13.94l.3.4-.3-.4c32.45-24.62 46.38-89.51 16.37-130.16-16.66-22.6-46.37-35.35-81.09-35.35" style="fill:#aaaae8;opacity:.35;isolation:isolate"/><path d="M231.77 117.57q-2.35 0-4.76-.13c-24.18-1.33-43.91-12.08-52.79-28.77C160.06 62.06 174 25 195.28 13.26c10.79-5.92 20.13-5.76 26.06-4.58 10.18 2 17.68 6.7 21.13 13.18 3.69 6.94 1.7 13.43-.41 20.31-1.88 6.14-3.83 12.49-1.51 19.36 2.07 6.12 7.47 8 13.18 10s11.84 4.18 15.06 10.86c3.4 7.05 3 16.73-1 22.51-5.26 7.79-19.41 12.67-36.02 12.67m-17.15-109a39.4 39.4 0 0 0-19.1 5.17c-21.12 11.59-34.89 48.36-20.86 74.74 8.79 16.47 28.34 27.09 52.34 28.44 18.46 1 34.68-3.92 40.39-12.29 3.85-5.64 4.25-15.1.92-22-3.13-6.49-9-8.58-14.77-10.6s-11.35-4-13.49-10.35c-2.37-7-.4-13.45 1.51-19.67 2.08-6.77 4-13.17.44-19.93-3.38-6.34-10.76-10.93-20.79-12.92a34 34 0 0 0-6.59-.65Zm-19.22 5" style="fill:#aaaae8;isolation:isolate;opacity:.09"/><g class="cls-7"><path d="m254 53.94-6.88 4.61-60.2 40.42-9.54 6.41 13.12-35.36 9.55-6.4 21.61-14.52 6.88-4.62z" class="cls-8"/></g><g class="cls-7"><path d="m267.71 59.02-6.89 4.63L179.85 118l-9.54 6.41 4.62-12.46v-.01l9.55-6.39v-.02l67.37-45.22 6.89-4.61z" class="cls-8"/></g><path d="m232.037 127.37 50.839-8.098 4.57 28.698-50.838 8.098z" class="cls-9"/><path d="m259.73 137.66 23.14-18.39-50.84 8.09z" style="fill:#ff7373"/><path d="M214.67 77.23c2-1.71 3.68-10.11-.71-8s-1 8.06-1 8.06Z" class="cls-11"/><path d="M215.86 95.45a8.18 8.18 0 0 0 7.76-1.81c.94-.93-1.54-2.29-2.35-3.45A3.13 3.13 0 0 1 221 88a25 25 0 0 1 1.15-4.51l-8-2.46s-.24 4.13-.44 5.66a2.3 2.3 0 0 1-.19.7c-.42.92-1.44 1.2-3.15 2.26-2.08 1.35 1.51 4.75 5.49 5.8" class="cls-12"/><path d="M213.71 86.73a2 2 0 0 1-.05.28 4.76 4.76 0 0 0 2.6 1.83 7.37 7.37 0 0 0 4.74-1.47 31 31 0 0 1 1.06-3.84l-8-2.46s-.15 4.13-.35 5.66" style="fill:#e49f98"/><path d="M225 78.65c-.89 3.91-1.4 5.79-3.33 7.19a7.73 7.73 0 0 1-5.23 1.77c-1.78-.22-4.07-3.36-4.31-5.09a30.9 30.9 0 0 1 .76-10.6 6.44 6.44 0 0 1 6.4-4.13c2.79.35 7.88 1.32 5.71 10.86" class="cls-12"/><ellipse cx="212.74" cy="77.53" class="cls-12" rx="1.41" ry="2.7" transform="rotate(-5.4 212.691 77.506)"/><path d="m248.68 115.93-18.36 4.79-4.89-13.86s-3.82 23.23-4.56 25.91-1.4 2.77-2.55 2.57l-18.49-3.24c-1.27-.22-1.93-1.74-1.29-4.11.52-1.93 4.55-17.64 5.27-24.86a76.5 76.5 0 0 1-5.91 11l-17.41-6.64 1.92-5.34 12.14 3.33S198.65 97 203.2 92a17.1 17.1 0 0 1 7.61-3.83 13 13 0 0 1 1.79-.17 4.5 4.5 0 0 0 3.68 4c1.62.28 4.88-.25 5.34-1.93a9 9 0 0 1 1.87 1c2.33 1.55 3.82 2.07 4.85 4.11 1.66 3.28 6.73 17.93 6.73 17.93l13.82-3.1Z" style="fill:url(#Degradado_sin_nombre_3)"/><path d="M207.36 204.85a12.6 12.6 0 0 0 5 4.23c2.71 1.42 8.39 2.66 5 3.47s-5.63.7-10.75-1a8.6 8.6 0 0 0-4.25-.63c-2.31.09-4 .71-2.91-3.75s6.74-4.99 7.91-2.32M167.74 186.18c-.18.88-2.51 2.9-4.86 4.86s-5.09 3-3.23 4c3.22 1.74 4.81.22 9.45-2.52 2-1.06 1.87-.66 4-1.51 1.47-.58 2.71-1.35 2.05-4.28-.99-4.48-6.83-3.41-7.41-.55" class="cls-16"/><path d="M220.71 134.37s-2.57 17.87-4.31 28.59c-.2 1.21-.38 2.32-.55 3.28-.24 1.4-.44 2.49-.59 3.15-.26 1.18-.74 3.44-1.32 6.24-.21 1-.43 2.1-.67 3.24-1.91 9.34-4.39 21.86-4.51 23.47a26 26 0 0 0 0 3.66.31.31 0 0 1-.45.3l-2.54-1.17a.33.33 0 0 0-.24 0c-.82.31-5.56 2.07-6.25 2.88s.3-2.2.56-5.52c.2-2.47 3.17-17.36 5.08-26.71.24-1.18.46-2.27.66-3.24.39-1.9.68-3.33.82-4a46 46 0 0 0 .46-5.62c0-1.08.09-2.24.13-3.44.19-6.28.22-13.57.23-15a.32.32 0 0 0-.24-.3l-4.14-1.1a.26.26 0 0 0-.21 0c-1.06.52-10.57 5.18-15.13 9.1a7.9 7.9 0 0 0-2.26 2.66 2.4 2.4 0 0 0-.11.32c-.91 3.67-1.79 6.64-2.55 8.78-.27.78-.53 1.46-.78 2l-.43 1c-1.68 4.06-5.42 14.07-6.08 16-.42 1.21 0 2.07 0 3 0 1.44-2.32 2.09-3.53 1.51-.9-.43-2.71-1.65-3.77-1.44a.32.32 0 0 1-.4-.37c.68-2.83 3.18-13.14 5.44-21.77.29-1.09.57-2.16.85-3.18a87 87 0 0 1 2.76-9.06 14.2 14.2 0 0 1 2-2.77c5.48-6.48 19.15-18.61 19.15-18.61s.49-1.49 1.31-1.37c1.79.27 1.93.58 11 2.39 9.71 2.01 10.9 1.01 10.61 3.1" style="fill:url(#Degradado_sin_nombre_4)"/><path d="M224.34 71.95c-5.41-.63-9.21-1.45-11-3.94s-.15-2.77 1.22-1.91a1.87 1.87 0 0 1 3-.85 3.46 3.46 0 0 1 4.77 1s3.71-1.11 4 1.79c-.01.03 2.78 4.47-1.99 3.91" class="cls-11"/><path d="M226.83 70.76c1.48 2.15 1.07 10.7-2.67 7.58s.51-7.43.51-7.43Z" class="cls-11"/><ellipse cx="225.07" cy="79.07" class="cls-12" rx="2.7" ry="1.41" transform="rotate(-60.62 225.069 79.07)"/><path d="M220.62 134.21 198 130.12a.26.26 0 0 1-.21-.3l.8-2.26a.26.26 0 0 1 .29-.17l22.29 3.9a.26.26 0 0 1 .21.3L221 134a.26.26 0 0 1-.29.22Z" class="cls-11"/><path d="M223.48 91a7.33 7.33 0 0 1-6.9 2.72 7.46 7.46 0 0 1-5.78-5.54 13 13 0 0 1 1.79-.22 4.5 4.5 0 0 0 3.68 4c1.62.28 4.88-.25 5.34-1.93a9 9 0 0 1 1.87.97" style="fill:#eefaff"/><path d="M228.17 70.75a1.19 1.19 0 0 0-.53-1.6l-1.08 2.13a1.19 1.19 0 0 0 1.6-.51ZM215.34 70.95a3.77 3.77 0 0 0 2.43-4.74l-7.17 2.31a3.77 3.77 0 0 0 4.74 2.43" class="cls-11"/><path d="M218.37 71.71a2.51 2.51 0 0 0 .21-3.54l-3.75 3.34a2.51 2.51 0 0 0 3.54.2M228 72.26a1.19 1.19 0 0 0 .94-1.4l-2.34.46a1.19 1.19 0 0 0 1.4.94" class="cls-11"/><path d="m269.08 59.57-1.37-.51-9-3.33-4.71-1.79-25.46-9.45-21.7-8.06a3.64 3.64 0 0 0-4.66 2.15L190.5 70l-13.12 35.36-2.45 6.57-4.62 12.45-10.17 27.38a3.8 3.8 0 0 0-.21 1 3.59 3.59 0 0 0 2.35 3.63l11.56 4.29 8.72 3.24 23 8.54 8.38 3.11 10.58 4a3.63 3.63 0 0 0 4.66-2.13l41.26-111.17.77-2.06a3.63 3.63 0 0 0-2.13-4.64m-5.92 7-.88 2.36-35.54 95.75a2 2 0 0 1-2.53 1.15l-7.81-2.9-9.43-3.5-19.49-7.24-8.92-3.31-7.11-2.64a1.94 1.94 0 0 1-1.27-1.76 1.8 1.8 0 0 1 .11-.76l9.56-25.72 4.63-12.41 2.44-6.59L200 63.57l6.67-18a2 2 0 0 1 2.52-1.15L221.61 49l25.51 9.54 4.73 1.76 9 3.33 1.18.44a1.94 1.94 0 0 1 1.13 2.5" class="cls-8"/><path d="m204.9 175.76 8.37 3.11c.24-1.14.46-2.22.67-3.24l-8.38-3.11q-.3 1.48-.66 3.24M173 163.92l8.36 3.1c.16-.41.31-.76.43-1 .25-.55.51-1.23.78-2l-8.72-3.24c-.29.98-.57 2.05-.85 3.14" class="cls-2"/><path d="M191.64 163.35a3.41 3.41 0 0 1-2-4.38 3.41 3.41 0 0 1 4.38-2 3.41 3.41 0 0 1 2 4.38 3.41 3.41 0 0 1-4.38 2" style="fill:#c8c7d9"/><path d="M177.64 104.66a5.5 5.5 0 0 0 3-.44c.67-.35 1.31-2.4 1.52-3.87s-1.68-1.28-1.68-1.28a9 9 0 0 1 1.94-.46c1.2-.16 1.68-1.54-.06-1.52s-3.44.85-5.05 4.16c0 0-1.66 3.07 0 4.4ZM256.86 107.37c0-1.16-2-3-2.56-2.28s-2.08 3.44-1.82 4.76a7.1 7.1 0 0 0 .93 2.31l-.38 1s3.79-.74 3.83-5.79" class="cls-12"/><path d="M225.62 21.24 150 27.5a3.32 3.32 0 0 0-3 3.58l1.83 22.14a3.32 3.32 0 0 0 3.58 3l7.46-.62 3.62-.3c.71.78 2.53 2.75 3.29 3.46a1.64 1.64 0 0 0 2.32-.1l.08-.1c.63-.83 2.1-3.07 2.67-4L190.24 53 228 50a3.32 3.32 0 0 0 3-3.58l-1.8-22.14a3.32 3.32 0 0 0-3.58-3.04" class="cls-20"/><rect width="27.74" height="27.74" x="251.28" y="18.42" class="cls-20" rx="1.86" ry="1.86" transform="rotate(-83.18 265.15 32.291)"/><path d="M174.69 69.94a4.32 4.32 0 0 0-5.42-2.82l-27.82 8.81a4.32 4.32 0 0 0-2.82 5.42l5.74 18.11a4.32 4.32 0 0 0 5.42 2.82l2.72-.86s5.07 3.52 6.84 4.57a2.59 2.59 0 0 0 3.53-1l.09-.17c.85-1.88 3-7.68 3-7.68l11.68-3.7a4.32 4.32 0 0 0 2.83-5.44ZM268 78.15a1.33 1.33 0 0 0-2.42-.39l-2.51 4.08-1.41-5.92a2.23 2.23 0 0 0-2.66-1.65l-16.3 3.88a2.23 2.23 0 0 0-1.65 2.68l4 16.29a2.23 2.23 0 0 0 2.68 1.65L264 94.89a2.23 2.23 0 0 0 1.65-2.68l-1.41-5.92 4.08 2.51a1.33 1.33 0 0 0 2-1.44ZM121.14 50.84a2.21 2.21 0 0 0-4.08.22l-5.25 14.85a2.21 2.21 0 0 0 3 2.73l10.05-4.8a2.21 2.21 0 0 0 1-2.95Z" class="cls-20"/><circle cx="128.38" cy="16.48" r="6.48" class="cls-20" transform="matrix(.95 -.3 .3 .95 1.02 39.55)"/><circle cx="301.8" cy="177.77" r="4.34" class="cls-20" transform="rotate(-53.1 301.8 177.774)"/><circle cx="295.13" cy="56.61" r="8.2" class="cls-20" transform="rotate(-67.8 294 56.24)"/><circle cx="165.21" cy="126.64" r="11.14" class="cls-20" transform="rotate(-17.35 165.213 126.647)"/><path d="m226.94 15.84-81.17 6.73a3.56 3.56 0 0 0-3.25 3.84l2 23.75a3.56 3.56 0 0 0 3.84 3.25l8-.66 3.88-.32c.77.83 2.72 3 3.53 3.72a1.76 1.76 0 0 0 2.49-.11l.08-.1c.67-.89 2.25-3.3 2.87-4.25l19.73-1.63 40.58-3.35a3.56 3.56 0 0 0 3.25-3.84l-2-23.75a3.56 3.56 0 0 0-3.77-3.29Z" style="fill:url(#Degradado_sin_nombre_5)"/><path d="M162.29 37.44a3.9 3.9 0 0 0 1.06-3l-.16-1.93a4 4 0 0 0-4.13-3.76 3.93 3.93 0 0 0-3.72 4.13V33l.17 2.09a3.9 3.9 0 0 0 1.54 2.8 8.3 8.3 0 0 0-4.9 6.2A1.69 1.69 0 0 0 154 46l12.68-1a1.69 1.69 0 0 0 1.48-2.21 8.3 8.3 0 0 0-5.87-5.35M195 25.75l-16.18 1.34a2.41 2.41 0 0 0-2.2 2.6l.66 7.95a2.41 2.41 0 0 0 2.6 2.2l1.58-.13s2.31 2.54 3.15 3.32a1.44 1.44 0 0 0 2-.09l.07-.08c.69-.91 2.56-3.8 2.56-3.8l6.79-.56a2.41 2.41 0 0 0 2.2-2.6l-.66-7.95a2.41 2.41 0 0 0-2.57-2.2" class="cls-22"/><path d="M180.65 31.13a1 1 0 1 1-.08-2L193.69 28a1 1 0 1 1 .16 2l-13.12 1.08ZM180.94 34.57a1 1 0 1 1-.08-2L194 31.49a1 1 0 1 1 .16 2L181 34.57ZM181.22 38a1 1 0 1 1-.08-2l5.91-.49a1 1 0 1 1 .16 2l-5.91.49Z" class="cls-23"/><path d="M225.38 36.8a7.28 7.28 0 0 0-1.79-4.22l-.14-1.71a5.88 5.88 0 0 0-5.31-5.37V25a1 1 0 1 0-2.05.17v.5a5.88 5.88 0 0 0-4.36 6.16l.14 1.71A7.3 7.3 0 0 0 210.8 38l.06.74a.69.69 0 0 0 .74.63l2.9-.24a.58.58 0 0 0 .27.58 5.89 5.89 0 0 0 7-.57.58.58 0 0 0 .17-.61l2.9-.24a.69.69 0 0 0 .63-.74Z" class="cls-22"/><circle cx="209.86" cy="38.65" r="3.1" class="cls-9" transform="rotate(-4.73 209.9 38.623)"/><rect width="29.75" height="29.75" x="254.48" y="12.83" rx="2" ry="2" style="fill:#f8aa00" transform="rotate(-83.18 269.358 27.697)"/><rect width="24.23" height="24.23" x="257.24" y="15.59" rx="1.21" ry="1.21" style="fill:#fb3" transform="rotate(-83.18 269.358 27.697)"/><path d="m269.94 29.68-2.66 2.09a1.13 1.13 0 0 1-1.58-.19 1.13 1.13 0 0 0-1.58-.19l-3.94 3.1a1.13 1.13 0 0 0 .56 2l.46.06 9.28 1.11 5.22.62a1.13 1.13 0 0 0 1-1.82l-5.19-6.6a1.13 1.13 0 0 0-1.57-.18" class="cls-26"/><circle cx="263.17" cy="24.97" r="1.99" class="cls-26" transform="rotate(-83.18 263.171 24.966)"/><path d="m164.49 63-29.84 9.45a4.64 4.64 0 0 0-3 5.82l6.15 19.43a4.64 4.64 0 0 0 5.82 3l2.91-.92s5.44 3.78 7.34 4.9a2.78 2.78 0 0 0 3.79-1.05l.09-.18c.91-2 3.18-8.23 3.18-8.23l12.53-4a4.64 4.64 0 0 0 3-5.82L170.31 66a4.64 4.64 0 0 0-5.82-3" style="fill:url(#Degradado_sin_nombre_8)"/><path d="m164.58 73.07-24.19 7.66a1.5 1.5 0 1 1-.91-2.86l24.19-7.66a1.5 1.5 0 1 1 .91 2.86M166.74 79.9l-24.2 7.67a1.5 1.5 0 1 1-.91-2.86L165.82 77a1.5 1.5 0 1 1 .91 2.86ZM155.61 90.93l-10.91 3.45a1.5 1.5 0 1 1-.91-2.86l10.91-3.45a1.5 1.5 0 1 1 .91 2.86" class="cls-28"/><path d="m267.56 73.34-2.7 4.38-1.51-6.35a2.39 2.39 0 0 0-2.88-1.77L243 73.77a2.39 2.39 0 0 0-1.77 2.88l4.16 17.47a2.39 2.39 0 0 0 2.88 1.77l17.47-4.16a2.39 2.39 0 0 0 1.77-2.88L266 82.5l4.38 2.7a1.43 1.43 0 0 0 2.13-1.54l-2.36-9.89a1.43 1.43 0 0 0-2.59-.43" style="fill:#ff3158"/><path d="m251.26 78.03 6.38 3.94-3.93 6.37" class="cls-22"/><path d="m120 58.37-5.15-10.8a2.37 2.37 0 0 0-4.37.23l-5.64 15.94a2.37 2.37 0 0 0 3.26 2.93l10.78-5.1a2.37 2.37 0 0 0 1.12-3.16Z" style="fill:#ff7d43"/><path d="m116.68 56.57-1.25-2 .08-.22a.53.53 0 1 0-1-.35l-1.75 4.94a3.5 3.5 0 0 0-1.32-.81c-1.33-.47-2.66-.15-3 .71s.52 1.95 1.85 2.42 2.62.16 2.95-.68l1.22-3.45.73 1.15a.61.61 0 0 0 1.1-.12l.37-1.06a.61.61 0 0 0 .02-.53" class="cls-22"/><circle cx="123.8" cy="12.33" r="6.92" class="cls-9" transform="rotate(-17.53 123.759 12.342)"/><path d="M127.16 9.13a2.48 2.48 0 0 0-3.39.89l-.06.11a2.48 2.48 0 0 0-3.34 1.07v.1a2.53 2.53 0 0 0 1.18 3.27l3.48 1.8a1 1 0 0 0 1.31-.41l1.8-3.48a2.53 2.53 0 0 0-.98-3.35" class="cls-22"/><circle cx="305.64" cy="180.75" r="4.66" class="cls-9" transform="rotate(-53.1 305.633 180.74)"/><path d="M308.51 180.9q-1.85-1.54-3.85-2.89a1.69 1.69 0 0 0-1.33 1.91l.37 2.6a.65.65 0 0 0 .74.55l2.6-.37a1.69 1.69 0 0 0 1.47-1.8" class="cls-22"/><circle cx="300.99" cy="51.46" r="8.8" style="fill:url(#Degradado_sin_nombre_8-2)" transform="rotate(-67.8 299.838 51.119)"/><path d="M304.17 46.9a1 1 0 0 0-1.36-.11 15.6 15.6 0 0 1-2.62 2.11l-.83-.34a.14.14 0 0 0-.18.07L297.39 53a.14.14 0 0 0 .07.18l.62.25a2.37 2.37 0 0 0 1.47 1.93l.37.15 2.41 1 .54.22a1 1 0 0 0 1.24-1.27l.39.16a5.23 5.23 0 0 1 2.13-2 1 1 0 0 0-.53-1.25 1 1 0 0 0 0-1.78l-3.39-1.38c.84-.64 2.07-1.64 1.46-2.31" class="cls-22"/><rect width="5.55" height="1.91" x="294.15" y="49.29" class="cls-22" rx=".35" ry=".35" transform="rotate(-67.84 296.925 50.237)"/><circle cx="160.2" cy="128.9" r="11.95" style="fill:url(#Degradado_sin_nombre_8-3)" transform="rotate(-17.35 160.207 128.901)"/><path d="M159.61 121.39a1.32 1.32 0 0 0-1.52 1.06 21 21 0 0 1-.93 4.47l-1.17.36a.19.19 0 0 0-.12.23l1.92 6.15a.19.19 0 0 0 .23.12l.87-.27a3.23 3.23 0 0 0 3.2.76l.51-.16 3.38-1.05.76-.24a1.3 1.3 0 0 0 .2-2.41l.54-.17a7.1 7.1 0 0 1 .55-3.89 1.31 1.31 0 0 0-1.64-.86 1.3 1.3 0 0 0-1.53-1.87l-4.75 1.48c.28-1.42.73-3.53-.5-3.71" class="cls-22"/><rect width="2.6" height="7.54" x="153.67" y="127.39" class="cls-22" rx=".47" ry=".47" transform="rotate(-17.35 154.968 131.153)"/></g></g></g></g></svg>